<?xml version="1.0" standalone="no"?>
<!DOCTYPE svg PUBLIC "-//W3C//DTD SVG 1.1//EN" "http://www.w3.org/Graphics/SVG/1.1/DTD/svg11.dtd" >
<svg>
<metadata>
Created by FontForge 20090914 at Sun Dec 27 03:08:59 2015
 By www-data
Copyright 1990-1996 Bitstream Inc.  All rights reserved.
</metadata>
<defs>
<font id="ChiantiBT-Italic" horiz-adv-x="1063" >
  <font-face 
    font-family="Chianti It Win95BT"
    font-weight="400"
    font-style="italic"
    font-stretch="normal"
    units-per-em="2048"
    panose-1="2 12 5 2 3 5 9 9 2 4"
    ascent="1638"
    descent="-410"
    x-height="1024"
    cap-height="1442"
    bbox="-336 -524 2535 2109"
    underline-thickness="98"
    underline-position="-178"
    slope="-8"
    unicode-range="U+0020-U+FB02"
  />
<missing-glyph horiz-adv-x="1229" 
d="M102 -362v1806h1024v-1806h-1024zM217 -248h795v1577h-795v-1577z" />
    <glyph glyph-name=".notdef" horiz-adv-x="1229" 
d="M102 -362v1806h1024v-1806h-1024zM217 -248h795v1577h-795v-1577z" />
    <glyph glyph-name="space" unicode=" " horiz-adv-x="551" 
 />
    <glyph glyph-name="exclam" unicode="!" horiz-adv-x="569" 
d="M219 203c28 0 50.667 -8.66602 68 -25.999s26 -39.333 26 -66c0 -35.333 -11.833 -65 -35.5 -89s-53.5 -36 -89.5 -36c-28 0 -50.667 8.16699 -68 24.5s-26 38.166 -26 65.499c0 35.333 12.167 65.333 36.5 90s53.833 37 88.5 37zM309 1442h183
c-22.667 -172 -51 -343.833 -85 -515.5s-73.333 -343.167 -118 -514.5l-78 -21c28.667 206 51.167 396.167 67.5 570.5s26.5 334.5 30.5 480.5z" />
    <glyph glyph-name="quotedbl" unicode="&#x22;" horiz-adv-x="909" 
d="M563 1442h117v-555h-117v555zM231 1442h117v-555h-117v555z" />
    <glyph glyph-name="numbersign" unicode="#" horiz-adv-x="1176" 
d="M772 852h-55.001h-80h-68h-57c-17.333 -40 -33.666 -82.167 -48.999 -126.5s-30.333 -91.5 -45 -141.5h53h76h88h43c14 36 28.5 75.333 43.5 118zM572.999 1442l152.002 -0.000976562l-82.5 -221.5l-85.5 -245.5h59h66h82h51l90.5 254l71.5 213h151l-79.5 -214
l-87.5 -253c28.667 0 76.334 1 143.001 3c10.667 0.666992 18.667 1 24 1l-41 -131c-20 1.33301 -41.833 2.33301 -65.5 3s-59.167 1 -106.5 1c-16.667 -42.667 -32.834 -86.167 -48.501 -130.5s-30.834 -90.166 -45.501 -137.499c24 0 57.667 0.833008 101 2.5l90 3.5
l-43 -133c-47.333 1.33301 -85.333 2.33301 -114 3s-55 1 -79 1l-70 -201l-88 -260h-153l126 341l44 120h-53h-103h-53h-51c-28 -72.667 -55.333 -147.167 -82 -223.5l-80 -237.5h-152l84.5 225l83.5 236c-39.333 0 -98 -1.33301 -176 -4h-6l43 133
c7.33301 -0.666992 18.666 -1.33398 33.999 -2.00098c60 -2.66699 109.333 -4 148 -4l13 35c40 108.667 68 186.334 84 233.001c-26 0 -53.667 -0.333008 -83 -1s-70 -1.66699 -122 -3l43 131c37.333 -1.33301 72.5 -2.33301 105.5 -3s66.167 -1 99.5 -1l157 454z" />
    <glyph glyph-name="dollar" unicode="$" horiz-adv-x="1100" 
d="M594 1595l120.998 -0.000976562c-7.33301 -27.333 -14.166 -57.166 -20.499 -89.499s-11.833 -66.5 -16.5 -102.5c48.667 -6 94.667 -13.667 138 -23s83.333 -20 120 -32l-10 -134c-41.333 24 -83.666 43 -126.999 57s-88.333 23.667 -135 29l-70 -509
c104.667 -63.333 180.667 -126.5 228 -189.5s71 -132.5 71 -208.5c0 -102 -36.667 -188 -110 -258s-172.666 -113 -297.999 -129c-6 -49.333 -10.667 -90.833 -14 -124.5s-5.33301 -63.5 -6 -89.5l-123 -1c7.33301 29.333 14.166 61.333 20.499 96s12.166 73 17.499 115
c-40.667 1.33301 -86.167 7.5 -136.5 18.5s-104.833 26.833 -163.5 47.5l12 141c44.667 -29.333 92.334 -52.333 143.001 -69s104.667 -27 162 -31l82 589c-95.333 53.333 -166.5 109.833 -213.5 169.5s-70.5 122.834 -70.5 189.501c0 92.667 34.5 170.334 103.5 233.001
s161.167 99.667 276.5 111c4.66699 29.333 8.5 60.166 11.5 92.499s5.5 66.166 7.5 101.499zM558.998 1296c-70 -8 -124.667 -32 -164 -72s-59 -91.667 -59 -155c0 -41.333 12.5 -79.5 37.5 -114.5s65.833 -70.5 122.5 -106.5zM570.998 640.999l-69 -525.999
c76.667 14 137.5 44.667 182.5 92s67.5 104.666 67.5 171.999c0 51.333 -14.833 98.5 -44.5 141.5s-75.167 83.167 -136.5 120.5z" />
    <glyph glyph-name="percent" unicode="%" horiz-adv-x="1821" 
d="M1450 768c-71.333 0 -130.167 -42.168 -176.5 -126.501s-69.5 -193.166 -69.5 -326.499c0 -72 13 -126.833 39 -164.5s63.667 -56.5 113 -56.5c72 0 131 42 177 126s69 194.333 69 331c0 70 -13.167 123.667 -39.5 161s-63.833 56 -112.5 56zM1466 880.999
c88 0 155.168 -30 201.501 -90s69.5 -147 69.5 -261c0 -156 -37.833 -286 -113.5 -390s-169.834 -156 -282.501 -156c-86 0 -152.5 30.5 -199.5 91.5s-70.5 147.833 -70.5 260.5c0 155.333 37.833 285 113.5 389s169.5 156 281.5 156zM463 1329
c-72.667 0 -131.833 -41.834 -177.5 -125.501s-68.5 -192.5 -68.5 -326.5c0 -71.333 13.167 -126.166 39.5 -164.499s63.833 -57.5 112.5 -57.5c72 0 130.833 42 176.5 126s68.5 193.667 68.5 329c0 70 -13 124 -39 162s-63.333 57 -112 57zM479.001 1442
c88 0 155.167 -30 201.5 -90s69.5 -146.667 69.5 -260c0 -156 -38.167 -286.167 -114.5 -390.5s-170.833 -156.5 -283.5 -156.5c-86 0 -152.167 30.333 -198.5 91s-69.5 147.667 -69.5 261c0 156 37.833 285.833 113.5 389.5s169.5 155.5 281.5 155.5zM1358 1505l121 -67
l-452.5 -654l-559.5 -852l-115 68l450.5 654z" />
    <glyph glyph-name="ampersand" unicode="&#x26;" horiz-adv-x="1403" 
d="M494 838c-86.667 -40.667 -152.833 -95.333 -198.5 -164s-68.5 -147.334 -68.5 -236.001c0 -103.333 29.833 -185.166 89.5 -245.499s140.5 -90.5 242.5 -90.5c60 0 116 9.83301 168 29.5s97 48.167 135 85.5c-90 92 -166.167 190.5 -228.5 295.5
s-108.833 213.5 -139.5 325.5zM1104 1421l-27.002 -120.999c-26.667 17.333 -56.5 30.333 -89.5 39s-67.833 13 -104.5 13c-92.667 0 -163.334 -25 -212.001 -75s-73 -122.667 -73 -218c0 -119.333 30 -242.5 90 -369.5s149.333 -255.833 268 -386.5
c54.667 64 96.334 133 125.001 207s44.334 153.667 47.001 239l127 1c-16 -105.333 -42.5 -199.666 -79.5 -282.999s-86.167 -160.333 -147.5 -231c41.333 -36.667 82.833 -63.334 124.5 -80.001s86.167 -25 133.5 -25c10 0 17.667 0.166992 23 0.5
s10.666 0.833008 15.999 1.5l-47 -117c-4 0 -10.167 -0.333008 -18.5 -1s-14.5 -1 -18.5 -1c-52.667 0 -104 10.333 -154 31s-99.667 52 -149 94c-60.667 -50.667 -124 -88.5 -190 -113.5s-134.333 -37.5 -205 -37.5c-132.667 0 -241 39.667 -325 119
s-126 181.666 -126 306.999c0 117.333 33 221.166 99 311.499s160 159.833 282 208.5c-3.33301 26 -5.83301 48.333 -7.5 67s-2.5 35.334 -2.5 50.001c0 123.333 37.167 222 111.5 296s173.5 111 297.5 111c42.667 0 83.334 -3 122.001 -9s75.334 -15.333 110.001 -28z" />
    <glyph glyph-name="quotesingle" unicode="'" horiz-adv-x="606" 
d="M246 1442h116v-555h-116v555z" />
    <glyph glyph-name="parenleft" unicode="(" horiz-adv-x="702" 
d="M731 1556l65.999 -36.001c-171.333 -201.333 -297.166 -398.833 -377.499 -592.5s-120.5 -396.5 -120.5 -608.5c0 -117.333 18 -236.666 54 -357.999s92.333 -252.333 169 -393l-76 -37c-100 146.667 -175.167 289 -225.5 427s-75.5 270.667 -75.5 398
c0 205.333 47.333 405 142 599s242.667 394.333 444 601z" />
    <glyph glyph-name="parenright" unicode=")" horiz-adv-x="702" 
d="M213 1556c101.333 -149.333 177.167 -292.499 227.5 -429.499s75.5 -268.167 75.5 -393.5c0 -205.333 -47.167 -405 -141.5 -599s-242.5 -395 -444.5 -603l-67 37c172 201.333 297.833 398.666 377.5 591.999s119.5 396 119.5 608c0 118 -18 237.667 -54 359
s-92.333 252.333 -169 393z" />
    <glyph glyph-name="asterisk" unicode="*" horiz-adv-x="1024" 
d="M430 1442h168l-59 -340l254 235l90 -135l-316 -139l316 -150l-88 -125l-256 234l59 -340h-168l59 340l-260 -234l-84 125l316 150l-320 139l95 135l253 -235z" />
    <glyph glyph-name="plus" unicode="+" horiz-adv-x="1896" 
d="M889 1221h119v-551h540v-117h-540v-553h-119v553h-541v117h541v551z" />
    <glyph glyph-name="comma" unicode="," horiz-adv-x="551" 
d="M250 201c15.333 -18.667 26.667 -36.998 34 -54.998s11 -36.667 11 -56c0 -50 -18.667 -97.833 -56 -143.5s-92.333 -87.834 -165 -126.501l-41 63c35.333 21.333 60.5 41.333 75.5 60s22.5 39 22.5 61c0 16 -3.83301 33.167 -11.5 51.5s-19.5 38.166 -35.5 59.499z" />
    <glyph glyph-name="hyphen" unicode="-" horiz-adv-x="674" 
d="M74 602h493l-18 -127h-494z" />
    <glyph glyph-name="period" unicode="." horiz-adv-x="551" 
d="M203 207c28 0 50.333 -8.16699 67 -24.5s25 -38.166 25 -65.499c0 -35.333 -12.833 -66.666 -38.5 -93.999s-54.5 -41 -86.5 -41c-27.333 0 -49.5 8.16699 -66.5 24.5s-25.5 38.166 -25.5 65.499c0 35.333 12.667 66.666 38 93.999s54.333 41 87 41z" />
    <glyph glyph-name="slash" unicode="/" horiz-adv-x="569" 
d="M506 1442l172 -0.000976562l-450 -1009.5c-111.333 -261 -193.333 -468.5 -246 -622.5h-181c166.667 354.667 310.667 672.834 432 954.501s212.333 507.5 273 677.5z" />
    <glyph glyph-name="zero" unicode="0" horiz-adv-x="1100" 
d="M643 1333c-57.333 0 -109.831 -19.332 -157.498 -57.999s-88.834 -95.667 -123.501 -171c-38.667 -86 -69.834 -187.833 -93.501 -305.5s-35.5 -232.834 -35.5 -345.501c0 -119.333 19.667 -211.666 59 -276.999s94.333 -98 165 -98c59.333 0 112.833 19.167 160.5 57.5
s87.5 94.166 119.5 167.499c39.333 87.333 70.333 189.166 93 305.499s34 232.833 34 349.5c0 120.667 -19 213.334 -57 278.001s-92.667 97 -164 97zM641.002 1442c120.667 0 213.669 -45.833 279.002 -137.5s98 -222.167 98 -391.5
c0 -121.333 -13.5 -240.166 -40.5 -356.499s-65.5 -220.5 -115.5 -312.5c-47.333 -88.667 -106.5 -157.334 -177.5 -206.001s-147.5 -73 -229.5 -73c-118.667 0 -210.834 45.833 -276.501 137.5s-98.5 220.5 -98.5 386.5c0 121.333 13.667 240.333 41 357
s65.666 221 114.999 313c48.667 90.667 108.167 160.5 178.5 209.5s145.833 73.5 226.5 73.5z" />
    <glyph glyph-name="one" unicode="1" horiz-adv-x="1100" 
d="M719 1421h65c-40 -175.333 -77.833 -383.333 -113.5 -624s-67.5 -506.334 -95.5 -797.001h-167c42 228.667 77.833 443.334 107.5 644.001s52.5 384.667 68.5 552l-238 27l14 61c82 6 151.167 19.833 207.5 41.5s106.833 53.5 151.5 95.5z" />
    <glyph glyph-name="two" unicode="2" horiz-adv-x="1100" 
d="M147 117h459.002c59.333 0 113 2.83301 161 8.5s93.333 14.5 136 26.5l-47 -152h-853c-2 28.667 -4.16699 55.5 -6.5 80.5s-5.16602 48.5 -8.49902 70.5c306 180 531 345 675 495s216 295 216 435c0 76 -22.833 135.333 -68.5 178s-108.834 64 -189.501 64
c-67.333 0 -129.333 -9.33301 -186 -28s-110.334 -47 -161.001 -85l-28 123c60.667 35.333 123.667 62 189 80s132.666 27 201.999 27c122 0 218 -31 288 -93s105 -147 105 -255c0 -144.667 -68.667 -293.167 -206 -445.5s-363 -328.833 -677 -529.5z" />
    <glyph glyph-name="three" unicode="3" horiz-adv-x="1100" 
d="M702 733c69.333 -27.333 120.834 -64.6689 154.501 -112.002s50.5 -105.666 50.5 -174.999c0 -138 -51.667 -252.333 -155 -343s-236 -136 -398 -136c-73.333 0 -141 9 -203 27s-118.333 44.667 -169 80l75 133c41.333 -42 89.166 -73.333 143.499 -94
s115.833 -31 184.5 -31c113.333 0 203.833 33 271.5 99s101.5 154.333 101.5 265c0 78 -24.167 135.5 -72.5 172.5s-123.833 55.5 -226.5 55.5c-22.667 0 -45.334 -0.666992 -68.001 -2s-45.667 -3.33301 -69 -6l45 120c22 -2 41.667 -3.5 59 -4.5s33 -1.5 47 -1.5
c108.667 0 196.334 30.5 263.001 91.5s100 140.5 100 238.5c0 69.333 -20.167 122.833 -60.5 160.5s-97.5 56.5 -171.5 56.5c-54 0 -106.833 -9.66699 -158.5 -29s-103.167 -48.666 -154.5 -87.999l-31 125c64 36 127.333 62.833 190 80.5s125 26.5 187 26.5
c108 0 192.667 -27.5 254 -82.5s92 -130.5 92 -226.5c0 -97.333 -23.833 -179.833 -71.5 -247.5s-117.5 -118.5 -209.5 -152.5z" />
    <glyph glyph-name="four" unicode="4" horiz-adv-x="1100" 
d="M760 1243l-619 -698h529c10 70.667 21.333 155.167 34 253.5zM762 1407h171.999c-27.333 -154 -51.833 -301 -73.5 -441s-41.5 -280.333 -59.5 -421h196l-28 -115h-185c-9.33301 -73.333 -17.666 -145.833 -24.999 -217.5s-14 -142.5 -20 -212.5h-164
c14 64.667 26.833 131.334 38.5 200.001s23.5 145.334 35.5 230.001h-605c-4 27.333 -8 53.166 -12 77.499s-8.66699 47.833 -14 70.5c133.333 128.667 262 262.167 386 400.5s243.333 281.166 358 428.499z" />
    <glyph glyph-name="five" unicode="5" horiz-adv-x="1100" 
d="M377 1407h619.999l-12 -147c-34.667 10.667 -75.667 18.667 -123 24s-104.666 8 -171.999 8h-205l-100 -344c182.667 -10 319.167 -48.5 409.5 -115.5s135.5 -162.833 135.5 -287.5c0 -167.333 -61.167 -306.166 -183.5 -416.499s-276.833 -165.5 -463.5 -165.5
c-34 0 -68.833 2.33301 -104.5 7s-72.5 12 -110.5 22l-2 127c39.333 -12 78.833 -21.167 118.5 -27.5s78.5 -9.5 116.5 -9.5c140 0 255.167 41.667 345.5 125s135.5 187.666 135.5 312.999c0 105.333 -44.167 185 -132.5 239s-218.833 81 -391.5 81h-47z" />
    <glyph glyph-name="six" unicode="6" horiz-adv-x="1100" 
d="M246 678c-9.33301 -47.333 -16.166 -89.999 -20.499 -127.999s-6.5 -72.667 -6.5 -104c0 -116 24.667 -205.333 74 -268s119.666 -94 210.999 -94c100.667 0 182.167 40.167 244.5 120.5s93.5 186.166 93.5 317.499c0 88 -23.5 156.833 -70.5 206.5
s-111.5 74.5 -193.5 74.5c-54 0 -107.833 -10.167 -161.5 -30.5s-110.5 -51.833 -170.5 -94.5zM944 1436l10.001 -107h-34c-155.333 0 -288.333 -44.667 -399 -134s-193 -218.666 -247 -387.999c60 38.667 117.333 67.167 172 85.5s110 27.5 166 27.5
c117.333 0 209.833 -35.667 277.5 -107s101.5 -168.333 101.5 -291c0 -156.667 -49 -288.334 -147 -395.001s-217.667 -160 -359 -160c-132.667 0 -235.667 42.833 -309 128.5s-110 206.167 -110 361.5c0 190.667 43.667 365.5 131 524.5s206.666 281.167 357.999 366.5
c50.667 28 106.5 49.667 167.5 65s123.167 23 186.5 23h35z" />
    <glyph glyph-name="seven" unicode="7" horiz-adv-x="1100" 
d="M254 1407l823.001 0.00195312l-14 -98c-161.333 -228.667 -303.833 -452.834 -427.5 -672.501s-226.834 -431.834 -309.501 -636.501h-213l767 1288c-44 2 -78 3.16699 -102 3.5s-46.333 0.5 -67 0.5c-76.667 0 -156.5 -2.16699 -239.5 -6.5
s-171.833 -10.833 -266.5 -19.5z" />
    <glyph glyph-name="eight" unicode="8" horiz-adv-x="1100" 
d="M526 705c-111.333 -40.667 -193.333 -91.832 -246 -153.499s-79 -137.5 -79 -227.5c0 -76.667 23.333 -136.834 70 -180.501s110.667 -65.5 192 -65.5c100.667 0 183.167 30.833 247.5 92.5s96.5 140.167 96.5 235.5c0 68.667 -20.667 125.5 -62 170.5
s-114.333 87.833 -219 128.5zM692 748.002c90 -28 156.499 -67.6689 199.499 -119.002s64.5 -116.333 64.5 -195c0 -135.333 -47.667 -247.333 -143 -336s-216.666 -133 -363.999 -133c-124.667 0 -222.5 30.167 -293.5 90.5s-106.5 142.833 -106.5 247.5
c0 105.333 32.333 196.833 97 274.5s154 131.5 268 161.5c-70 18.667 -124 51.667 -162 99s-57 105.333 -57 174c0 120.667 43.667 221.834 131 303.501s196.333 122.5 327 122.5c110.667 0 199.5 -29.167 266.5 -87.5s100.5 -135.166 100.5 -230.499
c0 -88.667 -28.5 -165.5 -85.5 -230.5s-137.833 -112.167 -242.5 -141.5zM579.999 799c96.667 25.333 170.667 64.501 222 117.501s77 116.833 77 191.5c0 64 -21.833 115.833 -65.5 155.5s-100.5 59.5 -170.5 59.5c-82.667 0 -152.834 -26.667 -210.501 -80
s-86.5 -117.333 -86.5 -192c0 -66 18.833 -119.333 56.5 -160s96.834 -71.334 177.501 -92.001z" />
    <glyph glyph-name="nine" unicode="9" horiz-adv-x="1100" 
d="M111 -31l-13.001 107h37c164 0 305.167 45 423.5 135s206.5 219.667 264.5 389c-55.333 -37.333 -111.666 -65.833 -168.999 -85.5s-113 -29.5 -167 -29.5c-118 0 -211 35.5 -279 106.5s-102 168.833 -102 293.5c0 156.667 49 288.667 147 396s217.667 161 359 161
c134.667 0 238.334 -42.333 311.001 -127s109 -205 109 -361c0 -200 -44.167 -378 -132.5 -534s-213.5 -277 -375.5 -363c-55.333 -28.667 -114.833 -50.5 -178.5 -65.5s-129.834 -22.5 -198.501 -22.5h-36zM853.999 729c8.66699 41.333 15.332 81.167 19.999 119.5
s7 74.833 7 109.5c0 119.333 -24.167 210.333 -72.5 273s-117.833 94 -208.5 94c-101.333 0 -183 -39.833 -245 -119.5s-93 -185.834 -93 -318.501c0 -89.333 23.167 -159.166 69.5 -209.499s110.5 -75.5 192.5 -75.5c54.667 0 109.334 10.5 164.001 31.5
s110 52.833 166 95.5z" />
    <glyph glyph-name="colon" unicode=":" horiz-adv-x="551" 
d="M203 207c28 0 50.333 -8.16699 67 -24.5s25 -38.166 25 -65.499c0 -35.333 -12.833 -66.666 -38.5 -93.999s-54.5 -41 -86.5 -41c-27.333 0 -49.5 8.16699 -66.5 24.5s-25.5 38.166 -25.5 65.499c0 35.333 12.667 66.666 38 93.999s54.333 41 87 41zM315 1006
c28 0 50.5 -8.16602 67.5 -24.499s25.5 -38.5 25.5 -66.5c0 -34.667 -12.833 -65.834 -38.5 -93.501s-54.5 -41.5 -86.5 -41.5c-28 0 -50.5 8.5 -67.5 25.5s-25.5 39.167 -25.5 66.5c0 34.667 12.833 65.667 38.5 93s54.5 41 86.5 41z" />
    <glyph glyph-name="semicolon" unicode=";" horiz-adv-x="551" 
d="M250 201c14.667 -18 25.5 -35.8311 32.5 -53.498s10.5 -36.834 10.5 -57.501c0 -50.667 -18.5 -98.667 -55.5 -144s-91.5 -87.333 -163.5 -126l-41 63c35.333 21.333 60.5 41.333 75.5 60s22.5 39 22.5 61c0 16 -3.83301 33.167 -11.5 51.5s-19.5 38.166 -35.5 59.499z
M311 1006c28 0 50.333 -8.16602 67 -24.499s25 -38.5 25 -66.5c0 -34.667 -12.667 -65.834 -38 -93.501s-54 -41.5 -86 -41.5c-28 0 -50.5 8.5 -67.5 25.5s-25.5 39.167 -25.5 66.5c0 34.667 12.833 65.667 38.5 93s54.5 41 86.5 41z" />
    <glyph glyph-name="less" unicode="&#x3c;" horiz-adv-x="1706" 
d="M1442 1026l-1022 -416l1022 -413v-109l-1178 481v82l1178 484v-109z" />
    <glyph glyph-name="equal" unicode="=" horiz-adv-x="1896" 
d="M348 477h1200v-117h-1200v117zM348 860h1200v-117h-1200v117z" />
    <glyph glyph-name="greater" unicode="&#x3e;" horiz-adv-x="1706" 
d="M1442 651v-82l-1178 -481v109l1022 413l-1022 416v109z" />
    <glyph glyph-name="question" unicode="?" horiz-adv-x="909" 
d="M317 203c28.667 0 51.667 -8.5 69 -25.5s26 -39.167 26 -66.5c0 -35.333 -12.167 -65 -36.5 -89s-53.833 -36 -88.5 -36c-28 0 -50.667 8.5 -68 25.5s-26 39.167 -26 66.5c0 34 12.333 63.333 37 88s53.667 37 87 37zM397 408l-115.999 -22.999
c-0.666992 8.66699 -1.16699 17.667 -1.5 27s-0.5 20.666 -0.5 33.999c0 62 11.667 116.667 35 164s73.666 106.666 150.999 177.999l30 29c128.667 118 193 224.667 193 320c0 66 -20.5 116.833 -61.5 152.5s-99.5 53.5 -175.5 53.5c-44.667 0 -92.667 -6.83301 -144 -20.5
s-110.666 -36.167 -177.999 -67.5l41 144c53.333 20.667 105.166 36 155.499 46s99.5 15 147.5 15c116 0 206.167 -27.667 270.5 -83s96.5 -132.666 96.5 -231.999c0 -126 -84 -261.667 -252 -407c-11.333 -10 -20.333 -17.667 -27 -23
c-70.667 -62 -115.667 -113.833 -135 -155.5s-29 -92.167 -29 -151.5z" />
    <glyph glyph-name="at" unicode="@" horiz-adv-x="1896" 
d="M1176 727c-10.667 60 -33.668 107.167 -69.001 141.5s-78.666 51.5 -129.999 51.5c-92.667 0 -170.5 -44.667 -233.5 -134s-94.5 -197 -94.5 -323c0 -72 16.667 -127.833 50 -167.5s80.333 -59.5 141 -59.5c64.667 0 122.5 23 173.5 69s85.833 107.333 104.5 184z
M1104 307c-30.667 -54.667 -71.8291 -97.332 -123.496 -127.999s-108.834 -46 -171.501 -46c-94 0 -166.333 28.833 -217 86.5s-76 139.5 -76 245.5c0 153.333 43.5 283.166 130.5 389.499s192.5 159.5 316.5 159.5c57.333 0 106.333 -12.667 147 -38
s73.334 -64 98.001 -116l54 117h106l-137 -567c-0.666992 -2 -1 -3.66699 -1 -5c-7.33301 -32 -11 -56.333 -11 -73c0 -30 8.66699 -52.833 26 -68.5s42.666 -23.5 75.999 -23.5c98 0 186 53.333 264 160s117 232.667 117 378c0 177.333 -62.667 320 -188 428
s-291.333 162 -498 162c-234.667 0 -429.834 -80 -585.501 -240s-233.5 -361.333 -233.5 -604c0 -210.667 69 -380 207 -508s319.333 -192 544 -192c108 0 214.667 16.5 320 49.5s200 79.833 284 140.5l43 -65c-92 -73.333 -191.5 -128.833 -298.5 -166.5
s-217.5 -56.5 -331.5 -56.5c-268 0 -483.5 74 -646.5 222s-244.5 343.667 -244.5 587c0 125.333 21.667 243 65 353s107 208.667 191 296c92.667 95.333 198.167 167.333 316.5 216s248.166 73 389.499 73c229.333 0 418.166 -64.333 566.499 -193s222.5 -291 222.5 -487
c0 -186 -52.5 -342.167 -157.5 -468.5s-231.5 -189.5 -379.5 -189.5c-63.333 0 -109.833 12.167 -139.5 36.5s-44.5 62.833 -44.5 115.5v20z" />
    <glyph glyph-name="A" unicode="A" horiz-adv-x="1176" 
d="M684 1274l-173 -358.5l-153 -340.5h418l-47 348zM647 1464c12.667 -2 25.168 -3.50098 37.501 -4.50098s24.5 -1.5 36.5 -1.5c11.333 0 23 0.5 35 1.5s24 2.5 36 4.5c26 -262 59.5 -515.167 100.5 -759.5s89.5 -479.166 145.5 -704.499h-182l-35.5 273
c-9.66699 72.667 -18.834 137.334 -27.501 194.001h-486c-38.667 -81.333 -74 -160.833 -106 -238.5s-60.667 -153.834 -86 -228.501h-187l415 812c118 240.667 219.333 458 304 652z" />
    <glyph glyph-name="B" unicode="B" horiz-adv-x="1114" 
d="M289 115c1.33301 0 3.33301 -0.333008 6 -1c47.333 -2 82 -3 104 -3c154.667 0 268.834 25.833 342.501 77.5s110.5 131.5 110.5 239.5c0 99.333 -33.667 173.333 -101 222s-170.333 73 -309 73c-20.667 0 -36.334 -0.166992 -47.001 -0.5s-20.667 -0.833008 -30 -1.5
c-19.333 -136.667 -35 -252.667 -47 -348s-21.667 -181.333 -29 -258zM379 831c20.667 -1.33301 40.998 -2.33203 60.998 -2.99902s42.667 -1 68 -1c124.667 0 219 24.5 283 73.5s96 120.833 96 215.5c0 77.333 -25.167 132.5 -75.5 165.5s-135.166 49.5 -254.499 49.5
c-26 0 -46 -0.166992 -60 -0.5s-27.333 -0.833008 -40 -1.5l-41 -245.5c-13.333 -83.667 -25.666 -167.834 -36.999 -252.501zM298.998 1442l157.998 0.00488281c124.667 0 212 -2.83301 262 -8.5s93 -15.167 129 -28.5c56.667 -20.667 100.834 -55.334 132.501 -104.001
s47.5 -106.334 47.5 -173.001c0 -94.667 -27.667 -172.334 -83 -233.001s-134.666 -99.667 -237.999 -117c90.667 -17.333 160.667 -55 210 -113s74 -132.333 74 -223c0 -68.667 -13.833 -132.667 -41.5 -192s-67.167 -108.666 -118.5 -147.999
c-48 -36.667 -105 -62.834 -171 -78.501s-164.333 -23.5 -295 -23.5h-269c50 237.333 92 476.166 126 716.499s59.667 482.166 77 725.499z" />
    <glyph glyph-name="C" unicode="C" horiz-adv-x="1104" 
d="M1077 1442l6 -142c-37.333 20 -77.333 35 -120 45s-88 15 -136 15c-180 0 -324 -73.333 -432 -220s-162 -343 -162 -589c0 -150.667 33.833 -266.167 101.5 -346.5s164.5 -120.5 290.5 -120.5c65.333 0 130.333 8.66699 195 26s129.334 43.333 194.001 78l-35 -131
c-56 -28.667 -115.333 -50.5 -178 -65.5s-127 -22.5 -193 -22.5c-166.667 0 -295 50 -385 150s-135 243.333 -135 430c0 132 17.5 254.833 52.5 368.5s85.833 212.5 152.5 296.5c67.333 86 146.833 150.667 238.5 194s195.167 65 310.5 65
c41.333 0 81.666 -2.66699 120.999 -8s77.333 -13 114 -23z" />
    <glyph glyph-name="D" unicode="D" horiz-adv-x="1339" 
d="M293 115c22.667 -2 44.335 -3.49707 65.002 -4.49707s41.334 -1.5 62.001 -1.5c227.333 0 399.166 61.333 515.499 184s174.5 303.667 174.5 543c0 173.333 -40.333 299.166 -121 377.499s-210.334 117.5 -389.001 117.5c-21.333 0 -43.333 -0.5 -66 -1.5
s-46.334 -2.5 -71.001 -4.5c-38 -196.667 -71 -395.834 -99 -597.501s-51.667 -405.834 -71 -612.501zM303.001 1442l243.999 0.00292969c114.667 0 202.667 -5 264 -15s117.333 -26.333 168 -49c90 -40 158.833 -105 206.5 -195s71.5 -199.667 71.5 -329
c0 -158.667 -27.833 -299.667 -83.5 -423s-136.834 -224 -243.501 -302c-61.333 -44.667 -142.166 -77.334 -242.499 -98.001s-228.5 -31 -384.5 -31h-203c47.333 235.333 87.833 473.166 121.5 713.499s60.834 483.166 81.501 728.499z" />
    <glyph glyph-name="E" unicode="E" horiz-adv-x="999" 
d="M299 1442l629 0.00195312l6 -137c-53.333 8.66699 -111.833 15.167 -175.5 19.5s-137.5 6.5 -221.5 6.5h-86l-74 -506h487l-59 -133c-60 8 -121.167 14.167 -183.5 18.5s-125.5 6.5 -189.5 6.5h-72l-81 -608h149c79.333 0 150.5 2.5 213.5 7.5s122.167 13.167 177.5 24.5
l-61 -141h-662c50 237.333 92 476.166 126 716.499s59.667 482.166 77 725.499z" />
    <glyph glyph-name="F" unicode="F" horiz-adv-x="948" 
d="M299 1442l658.999 0.00292969l7 -137c-50.667 8.66699 -106.5 15.167 -167.5 19.5s-132.167 6.5 -213.5 6.5h-123c-14.667 -72 -29.167 -151.167 -43.5 -237.5s-29.166 -181.833 -44.499 -286.5h518l-60 -133c-54 7.33301 -113.833 12.833 -179.5 16.5
s-144.167 5.5 -235.5 5.5h-62c-8.66699 -62.667 -18 -141.834 -28 -237.501s-25 -248.5 -45 -458.5h-185c50 237.333 92 476.166 126 716.499s59.667 482.166 77 725.499z" />
    <glyph glyph-name="G" unicode="G" horiz-adv-x="1251" 
d="M1077 1442l6.00195 -142.001c-37.333 20 -77.333 35 -120 45s-88 15 -136 15c-183.333 0 -328.5 -74.833 -435.5 -224.5s-160.5 -353.5 -160.5 -611.5c0 -137.333 35.5 -245.333 106.5 -324s168.833 -118 293.5 -118c44.667 0 89.667 5.33301 135 16
s87.666 25.667 126.999 45c23.333 108 41 206.167 53 294.5s19 169.833 21 244.5h168c-26 -96 -46.5 -192.667 -61.5 -290s-24.833 -196.666 -29.5 -297.999c-68 -42 -138.333 -73.667 -211 -95s-147.667 -32 -225 -32c-166 0 -294.167 50.667 -384.5 152
s-135.5 245.333 -135.5 432c0 132 17.5 254.5 52.5 367.5s85.833 211.5 152.5 295.5c67.333 86 146.833 150.667 238.5 194s195.167 65 310.5 65c41.333 0 81.666 -2.66699 120.999 -8s77.333 -13 114 -23z" />
    <glyph glyph-name="H" unicode="H" horiz-adv-x="1403" 
d="M299 1442l184.001 0.000976562c-20.667 -103.333 -40 -206.166 -58 -308.499s-34.667 -204.5 -50 -306.5h684c13.333 100 25.333 201.167 36 303.5s19.667 206.166 27 311.499h185c-50 -239.333 -91.833 -479.333 -125.5 -720s-58.834 -481.334 -75.501 -722.001h-184
c24 130 46 254.5 66 373.5s38 234.167 54 345.5h-684c-14.667 -121.333 -28.5 -242.166 -41.5 -362.499s-24.833 -239.166 -35.5 -356.499h-185c50 237.333 92 476.166 126 716.499s59.667 482.166 77 725.499z" />
    <glyph glyph-name="I" unicode="I" horiz-adv-x="602" 
d="M311 1442l187.001 0.00292969c-50.667 -237.333 -92.834 -476.333 -126.501 -717s-59.167 -482.334 -76.5 -725.001h-186c50 237.333 91.833 476.166 125.5 716.499s59.167 482.166 76.5 725.499z" />
    <glyph glyph-name="J" unicode="J" horiz-adv-x="569" 
d="M305 1442l184 -0.000976562c-63.333 -293.333 -119.333 -651 -168 -1073c-12.667 -109.333 -22 -186.333 -28 -231c-14 -104 -29.833 -181 -47.5 -231s-41.5 -91.333 -71.5 -124c-38 -42 -82.833 -74 -134.5 -96s-107.834 -33 -168.501 -33
c-16 0 -32.833 1.16699 -50.5 3.5s-38.5 5.83301 -62.5 10.5l-12 142c28.667 -10 53.834 -17.333 75.501 -22s41.5 -7 59.5 -7c83.333 0 146 30.167 188 90.5s76.333 178.833 103 355.5c23.333 158.667 46.5 342.334 69.5 551.001s44.167 430 63.5 664z" />
    <glyph glyph-name="K" unicode="K" horiz-adv-x="1118" 
d="M299 1442l183.997 0.00292969c-28 -143.333 -51.833 -269.833 -71.5 -379.5s-34.5 -201.834 -44.5 -276.501c134 130.667 248.5 250.667 343.5 360s170.167 208 225.5 296h211c-76 -72 -168.5 -165.667 -277.5 -281l-347.5 -381
c54 -48.667 137.833 -163.834 251.5 -345.501s212.834 -326.5 297.501 -434.5h-215c-96.667 189.333 -186.167 346 -268.5 470s-158.166 216.667 -227.499 278c-9.33301 -71.333 -19.666 -159.166 -30.999 -263.499s-27.333 -265.833 -48 -484.5h-185
c50 237.333 92 476.166 126 716.499s59.667 482.166 77 725.499z" />
    <glyph glyph-name="L" unicode="L" horiz-adv-x="958" 
d="M299 1442l182 0.00195312c-42.667 -226.667 -79.5 -441 -110.5 -643s-55.5 -386.333 -73.5 -553l-14 -137h176c68 0 139 2.66699 213 8s151.667 13.333 233 24l-63 -141h-746c50 237.333 92 476.166 126 716.499s59.667 482.166 77 725.499z" />
    <glyph glyph-name="M" unicode="M" horiz-adv-x="1731" 
d="M391 1442l243.995 -0.999023c7.33301 -82.667 24 -205.834 50 -369.501s72 -432.834 138 -807.501l276.5 685.5c77 198.333 137.167 362.5 180.5 492.5h244c-7.33301 -136.667 -12.666 -257.334 -15.999 -362.001s-5 -199.667 -5 -285c0 -146 2.66699 -285.667 8 -419
s13 -258.666 23 -375.999h-186c10.667 137.333 18.834 315.833 24.501 535.5s8.83398 488.834 9.50098 807.501l-288 -698l-246 -645h-107c-37.333 245.333 -75.166 479.5 -113.499 702.5s-78.166 440.167 -119.499 651.5c-46 -162.667 -95 -358.5 -147 -587.5
s-105.333 -484.5 -160 -766.5h-168c77.333 260 146 510.333 206 751s110.667 471 152 691z" />
    <glyph glyph-name="N" unicode="N" horiz-adv-x="1413" 
d="M301 1442l225.001 0.00195312l232.5 -658l245.5 -645l83 623c16.667 121.333 30.667 237.666 42 348.999s20.666 221.333 27.999 330l178 1c-45.333 -202.667 -86.5 -425.5 -123.5 -668.5s-68.833 -500.833 -95.5 -773.5h-211l-280.5 787l-204.5 559l-96 -680
c-14 -98 -26.333 -202.333 -37 -313s-19.667 -228.334 -27 -353.001h-184c46 204.667 88 428.5 126 671.5s71 499.833 99 770.5z" />
    <glyph glyph-name="O" unicode="O" horiz-adv-x="1366" 
d="M1126 901c0 143.333 -32.668 255.333 -98.001 336s-156 121 -272 121c-154 0 -278.833 -75 -374.5 -225s-143.5 -347.333 -143.5 -592c0 -141.333 32.333 -252.833 97 -334.5s152.334 -122.5 263.001 -122.5c160 0 288 73.833 384 221.5s144 346.167 144 595.5z
M763.999 1473c160 0 285.002 -51.5 375.002 -154.5s135 -246.833 135 -431.5c0 -124 -15.667 -242.167 -47 -354.5s-76.333 -212.833 -135 -301.5c-56.667 -84 -127.834 -149 -213.501 -195s-178.5 -69 -278.5 -69c-160 0 -284.667 51.5 -374 154.5s-134 247.5 -134 433.5
c0 124.667 15.667 243 47 355s76.333 211.333 135 298c56.667 84 127.667 149.167 213 195.5s177.666 69.5 276.999 69.5z" />
    <glyph glyph-name="P" unicode="P" 
d="M360 741c12.667 0 30.334 -0.333008 53.001 -1c41.333 -2 67.666 -3 78.999 -3c145.333 0 253 28.833 323 86.5s105 146.5 105 266.5c0 87.333 -26.333 149.333 -79 186s-142.667 55 -270 55c-22.667 0 -59 -1 -109 -3c-8 -0.666992 -14 -1 -18 -1l-49.5 -339.5
c-13 -89 -24.5 -171.167 -34.5 -246.5zM299 1442l138.999 0.00195312c136.667 0 234.167 -3.33301 292.5 -10s107.166 -17.667 146.499 -33c60.667 -24 106.5 -60.5 137.5 -109.5s46.5 -110.167 46.5 -183.5c0 -154.667 -48.667 -272.834 -146 -354.501
s-238.333 -122.5 -423 -122.5c-36 0 -64.167 0.333008 -84.5 1s-40.166 1.66699 -59.499 3c-5.33301 -33.333 -12.166 -88.166 -20.499 -164.499s-23.833 -232.5 -46.5 -468.5h-185c50 237.333 92 476.166 126 716.499s59.667 482.166 77 725.499z" />
    <glyph glyph-name="Q" unicode="Q" horiz-adv-x="1366" 
d="M588 -18c74.667 -45.333 143.665 -78.665 206.998 -99.998s124.666 -32 183.999 -32c28.667 0.666992 56.5 2.5 83.5 5.5s53.833 7.5 80.5 13.5l-45 -123c-23.333 -4 -45.666 -7 -66.999 -9s-41.333 -3 -60 -3c-52.667 0 -105.167 8.16699 -157.5 24.5
s-120.166 47.833 -203.499 94.5c-7.33301 3.33301 -18.666 9 -33.999 17c-102.667 52 -185.334 85.667 -248.001 101l41 47c-93.333 50 -162.833 119.833 -208.5 209.5s-68.5 200.167 -68.5 331.5c0 124.667 15.667 242.667 47 354s76.333 210.333 135 297
c58 84.667 129.333 149.667 214 195s177.334 68 278.001 68c160 0 284.667 -51.333 374 -154s134 -245.334 134 -428.001c0 -152.667 -23 -294.667 -69 -426s-109 -237.333 -189 -318c-54.667 -54.667 -116 -95.834 -184 -123.501s-141.333 -41.5 -220 -41.5h-24z
M1126 901.001c0 143.333 -32.668 255.333 -98.001 336s-156 121 -272 121c-154 0 -278.833 -75 -374.5 -225s-143.5 -347.333 -143.5 -592c0 -141.333 32.333 -252.833 97 -334.5s152.334 -122.5 263.001 -122.5c160 0 288 73.833 384 221.5s144 346.167 144 595.5z" />
    <glyph glyph-name="R" unicode="R" horiz-adv-x="1139" 
d="M365 766c8.66699 -0.666992 18.501 -1.16699 29.501 -1.5s27.5 -0.5 49.5 -0.5c150.667 0 265.5 29.5 344.5 88.5s118.5 144.833 118.5 257.5c0 80 -27 136.833 -81 170.5s-148.333 50.5 -283 50.5c-24 0 -42.333 -0.166992 -55 -0.5s-24.334 -0.833008 -35.001 -1.5
l-49.5 -305c-13.667 -86.667 -26.5 -172.667 -38.5 -258zM299.001 1442l127.001 0.000976562c133.333 0 231.666 -3.66699 294.999 -11s116.666 -19.333 159.999 -36c54 -22 96.167 -57 126.5 -105s45.5 -104.667 45.5 -170c0 -108.667 -35.833 -199 -107.5 -271
s-173.834 -121 -306.501 -147c42.667 -17.333 80.334 -43 113.001 -77s63.334 -79.333 92.001 -136c12 -25.333 36.5 -92.833 73.5 -202.5s73.833 -205.167 110.5 -286.5h-182c-66 264.667 -129.833 441.5 -191.5 530.5s-143.167 133.5 -244.5 133.5
c-11.333 0 -28.666 -1.33301 -51.999 -4c-2.66699 0 -4.66699 -0.333008 -6 -1l-6 -35c-4.66699 -32 -12.834 -103.667 -24.501 -215s-25.167 -247.666 -40.5 -408.999h-185c50 237.333 92 476.166 126 716.499s59.667 482.166 77 725.499z" />
    <glyph glyph-name="S" unicode="S" horiz-adv-x="948" 
d="M864 1417l-12 -138.999c-43.333 28 -87.5 49 -132.5 63s-90.833 21 -137.5 21c-76 0 -138 -23.667 -186 -71s-72 -108.333 -72 -183c0 -42.667 11.667 -82.334 35 -119.001s75 -87 155 -151c112 -90.667 184.333 -164.334 217 -221.001s49 -121.667 49 -195
c0 -131.333 -42.167 -239 -126.5 -323s-192.833 -126 -325.5 -126c-47.333 0 -95.666 4.83301 -144.999 14.5s-100.666 24.167 -153.999 43.5l12 147c40.667 -31.333 84.667 -55.166 132 -71.499s97 -24.5 149 -24.5c94 0 170.333 29.167 229 87.5s88 134.166 88 227.499
c0 48.667 -11.333 93.834 -34 135.501s-56.334 80.5 -101.001 116.5l-88 69c-78 60.667 -127.333 104 -148 130c-30 40 -52.167 78.667 -66.5 116s-21.5 75.666 -21.5 114.999c0 112.667 39 205.667 117 279s177.667 110 299 110c44.667 0 89.167 -4.16699 133.5 -12.5
s89.166 -21.166 134.499 -38.499z" />
    <glyph glyph-name="T" unicode="T" horiz-adv-x="1024" 
d="M123 1442h980.999l8 -127c-52 6 -109.333 10.5 -172 13.5s-131 4.5 -205 4.5h-63c-50 -312 -88.5 -574.833 -115.5 -788.5s-44.5 -395.167 -52.5 -544.5h-187c38 172 74.333 369.833 109 593.5s66.667 470.167 96 739.5h-63c-73.333 0 -141.666 -1.5 -204.999 -4.5
s-122 -7.5 -176 -13.5z" />
    <glyph glyph-name="U" unicode="U" horiz-adv-x="1366" 
d="M281 1442l188.001 0.00292969c-50 -255.333 -88.833 -476.833 -116.5 -664.5s-41.5 -321.834 -41.5 -402.501c0 -100.667 24.167 -175.334 72.5 -224.001s122.5 -73 222.5 -73c106 0 186.667 25.833 242 77.5s97 141.834 125 270.501c24.667 114 48.167 257.667 70.5 431
s42.5 368.333 60.5 585h184c-49.333 -202.667 -90.5 -422.834 -123.5 -660.501s-52.5 -369.834 -58.5 -396.501c-34.667 -148.667 -92.834 -255.5 -174.501 -320.5s-197.5 -97.5 -347.5 -97.5c-135.333 0 -237.833 33.833 -307.5 101.5s-104.5 167.167 -104.5 298.5
c0 49.333 16 192.833 48 430.5s52.333 452.5 61 644.5z" />
    <glyph glyph-name="V" unicode="V" horiz-adv-x="1100" 
d="M127 1442l189.998 0.000976562c8.66699 -168.667 26.334 -364.334 53.001 -587.001s61 -461.334 103 -716.001c142.667 331.333 253.667 601 333 809s134.333 372.667 165 494h180l-394.5 -916c-97 -234.667 -164.167 -410 -201.5 -526h-211
c-17.333 215.333 -44.166 443.333 -80.499 684s-81.833 493.334 -136.5 758.001z" />
    <glyph glyph-name="W" unicode="W" horiz-adv-x="1706" 
d="M145 1442l180 0.000976562c1.33301 -104.667 10.666 -263.667 27.999 -477s42.333 -472.333 75 -777l239.5 657.5l202.5 596.5h140c19.333 -211.333 39.833 -420.333 61.5 -627s44.834 -412 69.501 -616c111.333 294.667 201.833 546.667 271.5 756
s116.834 371.666 141.501 486.999h179c-56 -129.333 -129.833 -318.5 -221.5 -567.5l-309.5 -874.5h-168c-16.667 203.333 -35.334 404 -56.001 602s-43.667 394.667 -69 590c-107.333 -280.667 -246 -667 -416 -1159l-12 -33h-170c-15.333 238 -36.833 477.167 -64.5 717.5
s-61.5 481.833 -101.5 724.5z" />
    <glyph glyph-name="X" unicode="X" horiz-adv-x="1100" 
d="M158 1442h194.001c1.33301 -13.333 21.166 -64 59.499 -152l174.5 -385c100 144.667 173 254.5 219 329.5s84.333 144.167 115 207.5h178c-38.667 -49.333 -87.5 -115.666 -146.5 -198.999l-312.5 -450l56 -127c164 -372 270.333 -594 319 -666h-197
c-26 78.667 -62.5 175.167 -109.5 289.5s-101.833 240.5 -164.5 378.5l-300 -441c-66.667 -102.667 -111.334 -178.334 -134.001 -227.001h-181c36.667 46 93.834 122.167 171.501 228.5l394.5 549.5c-92 198 -161.5 343.167 -208.5 435.5s-89.5 168.5 -127.5 228.5z" />
    <glyph glyph-name="Y" unicode="Y" 
d="M348 0c16.667 63.333 33.833 145.999 51.5 247.999s37.5 233 59.5 393c-90 231.333 -158.667 401.833 -206 511.5s-92.666 206.167 -135.999 289.5h198c10.667 -70 36.667 -163.167 78 -279.5s94.666 -246.5 159.999 -390.5c132.667 185.333 231.5 328.666 296.5 429.999
s109.5 181.333 133.5 240h180c-82.667 -104.667 -171.5 -224.167 -266.5 -358.5l-300.5 -442.5c-23.333 -153.333 -40.5 -281.666 -51.5 -384.999s-16.5 -188.666 -16.5 -255.999h-180z" />
    <glyph glyph-name="Z" unicode="Z" 
d="M262 1442l779.997 -0.000976562c1.33301 -18 4 -36.667 8 -56s9 -37.666 15 -54.999l-502.5 -666.5l-394.5 -553.5c28 -2 55.833 -3.33301 83.5 -4s63.834 -1 108.501 -1c173.333 0 296 2.83301 368 8.5s134.333 14.5 187 26.5l-47 -141h-868c0 20 -1 40 -3 60
s-5 40.333 -9 61l453 591.5l454 622.5c-28.667 0.666992 -60.667 1.16699 -96 1.5s-89.333 0.5 -162 0.5c-91.333 0 -170.666 -2 -237.999 -6s-126.666 -10 -177.999 -18z" />
    <glyph glyph-name="bracketleft" unicode="[" horiz-adv-x="702" 
d="M360 1524l406 -0.000976562l6 -90h-22c-34 0 -71 -2.16699 -111 -6.5s-83.667 -10.5 -131 -18.5c-58 -374.667 -106.5 -700 -145.5 -976s-71.833 -527.667 -98.5 -755c40 -7.33301 79.5 -12.833 118.5 -16.5s76.833 -5.5 113.5 -5.5h26l-30 -90h-406
c59.333 344.667 112 680.334 158 1007s84.667 643.667 116 951z" />
    <glyph glyph-name="backslash" unicode="\" horiz-adv-x="569" 
d="M94 1442l170.001 -0.00195312c14 -180 42.333 -411.167 85 -693.5s96.334 -595.166 161.001 -938.499h-178c-6.66699 134.667 -29.334 334.334 -68.001 599.001s-95.334 609 -170.001 1033z" />
    <glyph glyph-name="bracketright" unicode="]" horiz-adv-x="702" 
d="M162 1524l405.002 0.00195312c-56.667 -329.333 -108 -657.333 -154 -984s-86 -651.334 -120 -974.001h-406l-6 90h27c37.333 0 75.5 1.83301 114.5 5.5s79.833 9.16699 122.5 16.5c40 243.333 80.167 507.666 120.5 792.999s81.5 598 123.5 938
c-44.667 8 -86.834 14.167 -126.501 18.5s-75.834 6.5 -108.501 6.5h-23z" />
    <glyph glyph-name="asciicircum" unicode="^" horiz-adv-x="2048" 
d="M1094 1458l530 -557h-143l-457 455l-459 -455h-143l532 557h140z" />
    <glyph glyph-name="underscore" unicode="_" horiz-adv-x="1024" 
d="M1024 -383v-100h-1024v100h1024z" />
    <glyph glyph-name="grave" unicode="`" horiz-adv-x="1024" 
d="M393 1452h176c28 -49.333 58.5 -95.5 91.5 -138.5s68.167 -82.167 105.5 -117.5l-68 -18c-59.333 35.333 -114.5 76 -165.5 122s-97.5 96.667 -139.5 152z" />
    <glyph glyph-name="a" unicode="a" horiz-adv-x="948" 
d="M815 66l-22.0029 -68c-10 -2.66699 -20.167 -4.66699 -30.5 -6s-23.5 -2 -39.5 -2c-42.667 0 -76.834 9.66699 -102.501 29s-43.5 49.333 -53.5 90c-58 -42 -114 -73 -168 -93s-107.667 -30 -161 -30c-76 0 -135.667 19.667 -179 59s-65 93.333 -65 162
c0 127.333 56.833 229 170.5 305s271.834 117.667 474.501 125l6 25c4 18 7 36.167 9 54.5s3 36.833 3 55.5c0 55.333 -17.333 96.5 -52 123.5s-87.667 40.5 -159 40.5c-45.333 0 -88.666 -5.33301 -129.999 -16s-79.666 -26.667 -114.999 -48l16 134
c39.333 14 79.166 24.667 119.499 32s81.833 11 124.5 11c105.333 0 185.5 -21 240.5 -63s82.5 -103 82.5 -183c0 -39.333 -9.33301 -111.333 -28 -216c-5.33301 -30.667 -9.66602 -54.334 -12.999 -71.001c-22 -125.333 -36 -208.666 -42 -249.999s-9 -72 -9 -92
c0 -36 8.66699 -63.5 26 -82.5s43 -28.5 77 -28.5c1.33301 0 4.33301 0.5 9 1.5s8.33398 1.5 11.001 1.5zM625.997 551c-155.333 -3.33301 -277.666 -33.499 -366.999 -90.499s-134 -132.833 -134 -227.5c0 -44 13.333 -78.833 40 -104.5s63 -38.5 109 -38.5
c52 0 102 8.83301 150 26.5s96.333 45.167 145 82.5c8 65.333 16.667 127.166 26 185.499s19.666 113.833 30.999 166.5z" />
    <glyph glyph-name="b" unicode="b" horiz-adv-x="1100" 
d="M322 836c-22.667 -134.667 -38.667 -239.169 -48 -313.502s-14 -131.166 -14 -170.499c0 -89.333 21 -157.666 63 -204.999s102.333 -71 181 -71c105.333 0 190 50.5 254 151.5s96 235.5 96 403.5c0 102 -20.667 180.667 -62 236s-100 83 -176 83
c-37.333 0 -80.5 -9.5 -129.5 -28.5s-103.833 -47.5 -164.5 -85.5zM426 1554l-45.001 -297c-15.333 -105.333 -30.333 -215 -45 -329c64 42.667 123.5 74.834 178.5 96.501s104.833 32.5 149.5 32.5c100.667 0 180.334 -38 239.001 -114s88 -180 88 -312
c0 -194 -47.167 -353.167 -141.5 -477.5s-214.5 -186.5 -360.5 -186.5c-58.667 0 -111.834 13.667 -159.501 41s-90.5 69 -128.5 125l-70 -133c-2.66699 0.666992 -6.33398 1.33398 -11.001 2.00098c-35.333 7.33301 -62.333 12.333 -81 15c40 130 79 328.167 117 594.5
s68.667 566.166 92 899.499c28.667 5.33301 57.834 11.666 87.501 18.999s59.834 15.333 90.501 24z" />
    <glyph glyph-name="c" unicode="c" horiz-adv-x="834" 
d="M766 1020l-17.9971 -113c-26.667 14.667 -54.334 25.5 -83.001 32.5s-57.667 10.5 -87 10.5c-117.333 0 -211.666 -49.167 -282.999 -147.5s-107 -228.5 -107 -390.5c0 -111.333 23.333 -195.166 70 -251.499s115.667 -84.5 207 -84.5c35.333 0 71.166 4.5 107.499 13.5
s74.166 22.833 113.499 41.5l-37 -121c-37.333 -14.667 -73 -25.5 -107 -32.5s-67.333 -10.5 -100 -10.5c-122.667 0 -217.834 35.833 -285.501 107.5s-101.5 173.167 -101.5 304.5c0 201.333 48.333 364.666 145 489.999s221.667 188 375 188
c34 0 66.833 -3.16699 98.5 -9.5s62.5 -15.5 92.5 -27.5z" />
    <glyph glyph-name="d" unicode="d" horiz-adv-x="1100" 
d="M811 858c-40 30.667 -80.999 53.668 -122.999 69.001s-85 23 -129 23c-109.333 0 -198.833 -51.833 -268.5 -155.5s-104.5 -238.167 -104.5 -403.5c0 -103.333 21.833 -182.333 65.5 -237s106.5 -82 188.5 -82c63.333 0 119.166 16.667 167.499 50
s82.833 78.666 103.5 135.999c28.667 78 61 269 97 573zM1049 1554c-64 -379.333 -112.5 -694.999 -145.5 -946.999s-49.5 -431.667 -49.5 -539c0 -10.667 0.333008 -21.5 1 -32.5s1.66699 -22.5 3 -34.5l-102 -5l-33 121c-45.333 -50.667 -94.833 -88.667 -148.5 -114
s-112.167 -38 -175.5 -38c-108.667 0 -194.167 37.5 -256.5 112.5s-93.5 178.167 -93.5 309.5c0 194 48.167 354.167 144.5 480.5s217.5 189.5 363.5 189.5c42 0 86.333 -8.83301 133 -26.5s91.667 -43.167 135 -76.5c14 104 25.667 202.833 35 296.5s17 180.5 23 260.5
c29.333 5.33301 57.833 11.666 85.5 18.999s54.5 15.333 80.5 24z" />
    <glyph glyph-name="e" unicode="e" horiz-adv-x="948" 
d="M842 506l-647 -0.00292969c-2 -15.333 -3.33301 -31.333 -4 -48s-1 -38.334 -1 -65.001c0 -107.333 21.167 -187.666 63.5 -240.999s105.833 -80 190.5 -80c48.667 0 95 5.83301 139 17.5s87.333 29.5 130 53.5l-13 -110c-43.333 -22 -87.833 -38.5 -133.5 -49.5
s-91.834 -16.5 -138.501 -16.5c-120 0 -212.5 38 -277.5 114s-97.5 184.333 -97.5 325c0 192.667 43.833 349.334 131.5 470.001s200.834 181 339.501 181c105.333 0 187.333 -33.5 246 -100.5s88 -160.5 88 -280.5c0 -25.333 -1.33301 -52.166 -4 -80.499
s-6.66699 -58.166 -12 -89.499zM727 603.997c2.66699 16.667 4.66699 33.167 6 49.5s2 32.5 2 48.5c0 80.667 -18.333 142.167 -55 184.5s-90 63.5 -160 63.5c-80.667 0 -147.5 -29.167 -200.5 -87.5s-90.5 -144.5 -112.5 -258.5h520z" />
    <glyph glyph-name="f" unicode="f" horiz-adv-x="606" 
d="M776 1538l-27 -96.002c-16.667 6 -33.667 10.5 -51 13.5s-34.333 4.5 -51 4.5c-72 0 -128.167 -29.333 -168.5 -88s-69.5 -155 -87.5 -289l-8 -59h252l-41 -102h-225c-30.667 -219.333 -55.5 -405 -74.5 -557s-32.5 -273.667 -40.5 -365h-154
c25.333 120.667 66.333 382.334 123 785.001l19 137h-133l2 86l145 16l16 98c26 156.667 68.5 269.334 127.5 338.001s141.5 103 247.5 103c23.333 0 45.833 -2.16699 67.5 -6.5s42.167 -10.5 61.5 -18.5z" />
    <glyph glyph-name="g" unicode="g" horiz-adv-x="1061" 
d="M795 950l10 84l45 -3c10 -0.666992 19 -1 27 -1s17 0.333008 27 1s24 1.66699 42 3c-47.333 -239.333 -86.333 -487.333 -117 -744s-46.334 -386.667 -47.001 -390c-19.333 -116.667 -64.833 -207 -136.5 -271s-163.167 -96 -274.5 -96c-54 0 -106 6.33301 -156 19
s-97.667 31.667 -143 57l16 133c42 -34 86.5 -59.167 133.5 -75.5s97.5 -24.5 151.5 -24.5c102 0 176.833 35.5 224.5 106.5s79.167 198.5 94.5 382.5c-41.333 -50 -87.666 -87.333 -138.999 -112s-107.333 -37 -168 -37c-102 0 -183.5 37.333 -244.5 112
s-91.5 175.667 -91.5 303c0 189.333 47.5 347 142.5 473s212.167 189 351.5 189c42.667 0 85.5 -9.33301 128.5 -28s84.167 -45.667 123.5 -81zM784 858c-35.333 32 -72.1689 55.666 -110.502 70.999s-78.5 23 -120.5 23c-105.333 0 -192.833 -51.333 -262.5 -154
s-104.5 -232.667 -104.5 -390c0 -101.333 21.5 -180.333 64.5 -237s102.167 -85 177.5 -85c56.667 0 108.334 16.833 155.001 50.5s80.334 78.167 101.001 133.5c29.333 78.667 62 267.334 98 566.001z" />
    <glyph glyph-name="h" unicode="h" 
d="M434 1554l-49.999 -293l-54 -343c79.333 45.333 149.833 79.833 211.5 103.5s112.5 35.5 152.5 35.5c68 0 120.167 -20.167 156.5 -60.5s54.5 -98.166 54.5 -173.499c0 -32 -13.167 -138.833 -39.5 -320.5s-45.166 -349.167 -56.499 -502.5h-166
c41.333 201.333 72.833 368.833 94.5 502.5s32.5 226.834 32.5 279.501s-10.833 92.167 -32.5 118.5s-54.5 39.5 -98.5 39.5c-38 0 -82.833 -8.66699 -134.5 -26s-114.167 -45 -187.5 -83c-18.667 -107.333 -36.334 -228.333 -53.001 -363s-33.667 -290.667 -51 -468h-166
c59.333 299.333 107.666 577.666 144.999 834.999s62 482.666 74 675.999c29.333 5.33301 57.833 11.5 85.5 18.5s55.167 15.167 82.5 24.5z" />
    <glyph glyph-name="i" unicode="i" horiz-adv-x="455" 
d="M346 1036c-30.667 -138.667 -58 -295.001 -82 -469.001s-44.333 -363 -61 -567h-162c42 224.667 74.667 426.834 98 606.501s35 313.5 35 401.5v12c36 1.33301 67.833 3.33301 95.5 6s53.167 6 76.5 10zM322 1479c28 0 50.333 -8.5 67 -25.5s25 -40.167 25 -69.5
c0 -33.333 -11.167 -62 -33.5 -86s-48.833 -36 -79.5 -36c-25.333 0 -46.333 9.5 -63 28.5s-25 43.5 -25 73.5c0 32.667 10.333 60 31 82s46.667 33 78 33z" />
    <glyph glyph-name="j" unicode="j" horiz-adv-x="455" 
d="M356 1036c-50 -254.667 -97.333 -562.001 -142 -922.001c-11.333 -96 -20 -163.333 -26 -202c-28 -140.667 -67.667 -239 -119 -295s-124.333 -84 -219 -84c-7.33301 0 -15.5 0.333008 -24.5 1s-21.5 1.66699 -37.5 3l-11 113c13.333 -2.66699 26.5 -4.66699 39.5 -6
s25.833 -2 38.5 -2c56.667 0 100 19.5 130 58.5s54.667 110.833 74 215.5c23.333 128 46 289.333 68 484s40.667 401.334 56 620.001c34.667 1.33301 66 3.33301 94 6s54.333 6 79 10zM326 1479c28 0 50.334 -8.49902 67.001 -25.499s25 -40.167 25 -69.5
c0 -33.333 -10.833 -62 -32.5 -86s-47.834 -36 -78.501 -36c-26 0 -47.5 9.66699 -64.5 29s-25.5 43.666 -25.5 72.999c0 32.667 10.333 60 31 82s46.667 33 78 33z" />
    <glyph glyph-name="k" unicode="k" horiz-adv-x="948" 
d="M436 1554c-34.667 -196 -65.667 -378.832 -93 -548.499s-49.666 -317.167 -66.999 -442.5c71.333 64.667 143.666 134.834 216.999 210.501s150 159.167 230 250.5h180l-229.5 -209.5l-249.5 -243.5c46 -51.333 112 -142.833 198 -274.5s159.333 -230.5 220 -296.5h-191
c-79.333 138 -148 247.167 -206 327.5s-116.333 150.166 -175 209.499c-9.33301 -70 -18.666 -148.667 -27.999 -236s-19 -187.666 -29 -300.999h-166c59.333 299.333 107.666 577.666 144.999 834.999s62 482.666 74 675.999c28.667 6.66699 57.167 13.667 85.5 21z" />
    <glyph glyph-name="l" unicode="l" horiz-adv-x="455" 
d="M420 1554c-46 -214 -88.1689 -452.499 -126.502 -715.499s-71.833 -542.5 -100.5 -838.5h-162c62 348 111.333 657.833 148 929.5s55.667 465.5 57 581.5c30.667 5.33301 61.334 11.666 92.001 18.999s61.334 15.333 92.001 24z" />
    <glyph glyph-name="m" unicode="m" horiz-adv-x="1630" 
d="M883 903c96 53.333 175.168 92.3311 237.501 116.998s112.166 37 149.499 37c64.667 0 114.167 -20.167 148.5 -60.5s51.5 -98.166 51.5 -173.499c0 -34 -13 -142 -39 -324s-44.333 -348.333 -55 -499h-166c42 203.333 73.667 371.5 95 504.5s32 225.5 32 277.5
c0 52.667 -10.833 92.167 -32.5 118.5s-54.5 39.5 -98.5 39.5c-30 0 -66.833 -7.5 -110.5 -22.5s-111.834 -45.167 -204.501 -90.5c-6.66699 -68.667 -22.5 -195.834 -47.5 -381.501s-40.833 -334.167 -47.5 -445.5h-169c40.667 201.333 72 368.833 94 502.5
s33 226.834 33 279.501s-11 92.167 -33 118.5s-54.667 39.5 -98 39.5c-31.333 0 -70.166 -8.16699 -116.499 -24.5s-109.5 -44.5 -189.5 -84.5c-28.667 -177.333 -51.667 -335.333 -69 -474s-29.333 -257.667 -36 -357h-165c46 221.333 80.667 416.5 104 585.5
s35 309.167 35 420.5l1 26c3.33301 -0.666992 6.83301 -1.16699 10.5 -1.5s9.5 -0.5 17.5 -0.5c10.667 0 22 0.833008 34 2.5s25.333 4.16699 40 7.5l26 -127c96 50.667 173.167 87.334 231.5 110.001s104.833 34 139.5 34c50 0 91.5 -12.833 124.5 -38.5
s57.167 -64.167 72.5 -115.5z" />
    <glyph glyph-name="n" unicode="n" 
d="M809 0l-166 -0.000976562c41.333 201.333 72.833 368.833 94.5 502.5s32.5 226.834 32.5 279.501s-10.833 92.167 -32.5 118.5s-54.5 39.5 -98.5 39.5c-38 0 -82.833 -8.66699 -134.5 -26s-114.167 -45 -187.5 -83c-18.667 -107.333 -36.334 -228.333 -53.001 -363
s-33.667 -290.667 -51 -468h-166c46 220 80.667 414 104 582s35 308.667 35 422l1 28c3.33301 -0.666992 6.83301 -1.16699 10.5 -1.5s9.5 -0.5 17.5 -0.5c10.667 0 22 0.833008 34 2.5s25.333 4.16699 40 7.5l26 -127c100 53.333 178.667 90.666 236 111.999s105 32 143 32
c68 0 120.167 -20.167 156.5 -60.5s54.5 -98.166 54.5 -173.499c0 -32 -13.167 -138.833 -39.5 -320.5s-45.166 -349.167 -56.499 -502.5z" />
    <glyph glyph-name="o" unicode="o" 
d="M549 950c-110 0 -196.501 -48.832 -259.501 -146.499s-94.5 -232.5 -94.5 -404.5c0 -103.333 22.833 -183 68.5 -239s110.834 -84 195.501 -84c110.667 0 197 48.667 259 146s93 233.666 93 408.999c0 101.333 -22.833 179.833 -68.5 235.5s-110.167 83.5 -193.5 83.5z
M562.999 1059c121.333 0 216.166 -38.333 284.499 -115s102.5 -183 102.5 -319c0 -202 -46 -362.5 -138 -481.5s-216 -178.5 -372 -178.5c-121.333 0 -216.166 37.667 -284.499 113s-102.5 180.333 -102.5 315c0 204 46 366 138 486s216 180 372 180z" />
    <glyph glyph-name="p" unicode="p" horiz-adv-x="1100" 
d="M322 836c-22.667 -134.667 -38.668 -239.169 -48.001 -313.502s-14 -131.166 -14 -170.499c0 -89.333 21 -157.666 63 -204.999s102.333 -71 181 -71c105.333 0 190 50.5 254 151.5s96 235.5 96 403.5c0 102 -20.667 180.667 -62 236s-100 83 -176 83
c-37.333 0 -80.666 -9.5 -129.999 -28.5s-104 -47.5 -164 -85.5zM284.999 1042l26.001 -124.001c77.333 48 144.166 83.167 200.499 105.5s107.166 33.5 152.499 33.5c100.667 0 180.334 -38 239.001 -114s88 -180 88 -312c0 -190.667 -46.667 -349.334 -140 -476.001
s-208.333 -190 -345 -190c-62 0 -117.667 14 -167 42s-90.666 68.667 -123.999 122c-10 -77.333 -19.333 -163.166 -28 -257.499s-17 -203.166 -25 -326.499h-168c60 318 106 601.667 138 851s48 445 48 587l1 51c3.33301 -0.666992 7 -1.16699 11 -1.5
s9.66699 -0.5 17 -0.5c11.333 0 23.166 0.833008 35.499 2.5s25.833 4.16699 40.5 7.5z" />
    <glyph glyph-name="q" unicode="q" horiz-adv-x="1100" 
d="M811 858c-40 30.667 -81.002 53.668 -123.002 69.001s-85 23 -129 23c-108 0 -196.833 -50.333 -266.5 -151s-104.5 -229.667 -104.5 -387c0 -104.667 22 -184.834 66 -240.501s106.667 -83.5 188 -83.5c62.667 0 117.834 16.5 165.501 49.5s81.5 77.833 101.5 134.5
c18.667 54 36.334 128.833 53.001 224.5s33 216.167 49 361.5zM843.998 934.001l54 107.999c14 -3.33301 26.833 -5.83301 38.5 -7.5s23.167 -2.5 34.5 -2.5c6.66699 0 11.667 0.166992 15 0.5s7 0.833008 11 1.5c-45.333 -146.667 -87.166 -349.167 -125.499 -607.5
s-69.5 -552.166 -93.5 -881.499h-180c18.667 84 36.834 172.833 54.501 266.5s35.167 194.167 52.5 301.5c-44.667 -44.667 -91.834 -77.667 -141.501 -99s-103.834 -32 -162.501 -32c-108.667 0 -194.167 37.167 -256.5 111.5s-93.5 176.833 -93.5 307.5
c0 188.667 48.333 345.167 145 469.5s217 186.5 361 186.5c46 0 93.5 -10.5 142.5 -31.5s97.167 -51.5 144.5 -91.5z" />
    <glyph glyph-name="r" unicode="r" horiz-adv-x="682" 
d="M291 1040l35.001 -217c62 72 120 126.5 174 163.5s102.333 55.5 145 55.5c17.333 0 34.333 -2.5 51 -7.5s34 -12.5 52 -22.5l-70 -164c-14.667 13.333 -30.334 23.166 -47.001 29.499s-36 9.5 -58 9.5c-53.333 0 -105.666 -21.167 -156.999 -63.5
s-87 -94.833 -107 -157.5c-18 -55.333 -34 -132.166 -48 -230.499s-29.333 -243.5 -46 -435.5h-168c47.333 228 82.666 425.5 105.999 592.5s35 304.833 35 413.5l1 26c2.66699 -0.666992 5.83398 -1.16699 9.50098 -1.5s9.16699 -0.5 16.5 -0.5
c10.667 0 22.167 0.833008 34.5 2.5s26.166 4.16699 41.499 7.5z" />
    <glyph glyph-name="s" unicode="s" horiz-adv-x="721" 
d="M647 1022l-7.99707 -118.996c-31.333 12.667 -62 22 -92 28s-60 9 -90 9c-66 0 -118.667 -16.5 -158 -49.5s-59 -76.5 -59 -130.5c0 -28.667 8.66699 -54.667 26 -78s53.666 -54 108.999 -92l14 -10c126 -86.667 189 -177.667 189 -273
c0 -96.667 -36.167 -175.834 -108.5 -237.501s-166.166 -92.5 -281.499 -92.5c-32 0 -64.5 3.16699 -97.5 9.5s-66.5 15.5 -100.5 27.5v129c39.333 -20.667 77.666 -36 114.999 -46s74.666 -15 111.999 -15c70 0 125.667 18.167 167 54.5s62 84.5 62 144.5
c0 53.333 -45.333 112.666 -136 177.999c-7.33301 5.33301 -13 9.33301 -17 12c-78.667 55.333 -129.5 100.666 -152.5 135.999s-34.5 76 -34.5 122c0 93.333 35.167 169.666 105.5 228.999s161.5 89 273.5 89c23.333 0 48.666 -2.16699 75.999 -6.5s56 -10.5 86 -18.5z" />
    <glyph glyph-name="t" unicode="t" horiz-adv-x="616" 
d="M414 1294c-10.667 -41.333 -20.833 -83.832 -30.5 -127.499s-19.5 -91.167 -29.5 -142.5h258l-63 -104h-211c-31.333 -185.333 -54.833 -335.833 -70.5 -451.5s-23.5 -194.167 -23.5 -235.5c0 -50.667 12.167 -87.5 36.5 -110.5s63.833 -34.5 118.5 -34.5
c19.333 0 38.666 1.33301 57.999 4s40.333 6.66699 63 12l-25 -106c-26.667 -6 -52.167 -10.5 -76.5 -13.5s-47.166 -4.5 -68.499 -4.5c-78 0 -137.333 18.667 -178 56s-61 92.333 -61 165c0 42.667 12 146.5 36 311.5s42.667 300.833 56 407.5h-189l6 38l209 82l84 221
c18 4 35.167 8.66699 51.5 14s32.833 11.666 49.5 18.999z" />
    <glyph glyph-name="u" unicode="u" 
d="M352 1028c-40 -192.667 -71.1729 -356.999 -93.5059 -492.999s-33.5 -230.333 -33.5 -283c0 -52 10.833 -91 32.5 -117s54.5 -39 98.5 -39c38.667 0 83.667 8.66699 135 26s113.666 45 186.999 83l4 28c24.667 154 44.334 292.167 59.001 414.5s27 245.166 37 368.499h29
c22.667 0 45.667 1 69 3s47.333 5 72 9c-45.333 -213.333 -79.5 -403 -102.5 -569s-34.5 -304.667 -34.5 -416v-40c-3.33301 0 -7.16602 0.166992 -11.499 0.5s-10.166 0.5 -17.499 0.5c-12 0 -24.167 -0.833008 -36.5 -2.5s-25.166 -4.16699 -38.499 -7.5l-27 129
c-105.333 -56 -185.166 -94.333 -239.499 -115s-100.166 -31 -137.499 -31c-68 0 -120.5 20.5 -157.5 61.5s-55.5 99.167 -55.5 174.5c0 32 13.333 136.5 40 313.5s45.334 340.167 56.001 489.5c36 0 67 1 93 3s50.333 5 73 9z" />
    <glyph glyph-name="v" unicode="v" horiz-adv-x="909" 
d="M922 1040c-23.333 -81.333 -81.6719 -213.168 -175.005 -395.501s-216 -402.5 -368 -660.5h-98c-35.333 192.667 -72.166 374 -110.499 544s-78.166 330 -119.499 480l164 32c14.667 -136.667 35.834 -276.5 63.501 -419.5s61.834 -290.5 102.501 -442.5
c94 163.333 171.833 314.333 233.5 453s106.834 264.334 135.501 377.001z" />
    <glyph glyph-name="w" unicode="w" horiz-adv-x="1366" 
d="M242 1042c4 -110 14.6689 -236 32.002 -378s41.333 -299 72 -471c68.667 138.667 130 276.667 184 414s100.667 273 140 407l110 24c10 -159.333 23.5 -311.5 40.5 -456.5s37.833 -280.167 62.5 -405.5c73.333 152 134.666 296.833 183.999 434.5
s87.666 270.167 114.999 397.5l166 32c-41.333 -133.333 -101 -289.333 -179 -468s-172.667 -374.667 -284 -588h-109c-12.667 145.333 -26.167 285.5 -40.5 420.5s-28.833 263.833 -43.5 386.5l-133.5 -328l-198.5 -479h-114c-28.667 235.333 -58 440.833 -88 616.5
s-58.667 311.5 -86 407.5z" />
    <glyph glyph-name="x" unicode="x" horiz-adv-x="948" 
d="M940 1040c-33.333 -66.667 -82.832 -140.499 -148.499 -221.499s-147.834 -168.833 -246.501 -263.5c64.667 -130.667 123.667 -242.167 177 -334.5s101.333 -165.833 144 -220.5h-213c-13.333 52 -37.833 116.833 -73.5 194.5s-80.834 164.5 -135.501 260.5
c-75.333 -78 -139.166 -154.333 -191.499 -229s-94.833 -150 -127.5 -226h-178c47.333 83.333 108.833 170.333 184.5 261s164.167 184 265.5 280c-72 136 -129.167 237.833 -171.5 305.5s-82.833 124.834 -121.5 171.501l197 22c15.333 -46.667 39.333 -103.667 72 -171
s73.667 -144 123 -230c63.333 63.333 117.5 127.166 162.5 191.499s80.167 128.166 105.5 191.499z" />
    <glyph glyph-name="y" unicode="y" horiz-adv-x="985" 
d="M985 1032c-154 -480.667 -325.499 -851.333 -514.499 -1112s-379.833 -391 -572.5 -391h-13l-20 111h10c86.667 0 168.167 24.167 244.5 72.5s148.5 121.5 216.5 219.5c-54.667 256 -104.667 474.833 -150 656.5s-84 319.167 -116 412.5l186 37
c13.333 -126 35.5 -270.833 66.5 -434.5s69.5 -340.167 115.5 -529.5c96 160.667 176.667 319.5 242 476.5s113.666 308.167 144.999 453.5z" />
    <glyph glyph-name="z" unicode="z" horiz-adv-x="807" 
d="M139 1024l613.998 0.000976562c2.66699 -19.333 6.33398 -37.833 11.001 -55.5s10.667 -33.834 18 -48.501c-37.333 -42.667 -98.833 -117.167 -184.5 -223.5l-468.5 -587.5h274c65.333 0 121.833 2.33301 169.5 7s86.167 11.667 115.5 21l-39 -137h-644
c-6 18.667 -12.5 36.667 -19.5 54s-15.167 34 -24.5 50l413.5 506c145 181.333 227.167 283 246.5 305h-185c-64.667 0 -125.167 -2.16699 -181.5 -6.5s-109.166 -10.833 -158.499 -19.5z" />
    <glyph glyph-name="braceleft" unicode="{" horiz-adv-x="909" 
d="M688 1515l0.00195312 -121.998c-2.66699 0 -7.33398 0.333008 -14.001 1c-28.667 2 -48 3 -58 3c-66 0 -112.167 -15.167 -138.5 -45.5s-40.166 -101.833 -41.499 -214.5v-101v-88c0 -152 -14.333 -252.5 -43 -301.5s-80.334 -82.833 -155.001 -101.5
c75.333 -21.333 127.166 -55.333 155.499 -102s42.5 -146 42.5 -298v-90v-69c0 -129.333 12.833 -210.833 38.5 -244.5s72.834 -50.5 141.501 -50.5c10.667 0 30.334 1 59.001 3c6 0.666992 10.333 1 13 1v-123c-16 -2 -32 -3.5 -48 -4.5s-32 -1.5 -48 -1.5
c-111.333 0 -189.333 24.667 -234 74s-67 140 -67 272v12c1.33301 29.333 2 56.666 2 81.999v53c0 191.333 -17.333 309.5 -52 354.5s-100.667 67.5 -198 67.5c-4.66699 0 -11.834 -0.333008 -21.501 -1s-16.834 -1 -21.501 -1v129c4.66699 0 11.667 -0.333008 21 -1
s16 -1 20 -1c98 0 164.5 22.5 199.5 67.5s52.5 163.167 52.5 354.5v53c0 25.333 -0.666992 52.666 -2 81.999v13c0 131.333 22.333 221.833 67 271.5s122.667 74.5 234 74.5c15.333 0 31 -0.5 47 -1.5s32.333 -2.83301 49 -5.5z" />
    <glyph glyph-name="bar" unicode="|" horiz-adv-x="1024" 
d="M567 1565v-2048h-108v2048h108z" />
    <glyph glyph-name="braceright" unicode="}" horiz-adv-x="909" 
d="M909 608l-0.00488281 -129.001h-41c-98 0 -164.167 -22 -198.5 -66s-51.5 -162 -51.5 -354v-112c0 -90.667 -4.16699 -156 -12.5 -196s-22.5 -72.333 -42.5 -97c-23.333 -30 -55.166 -52.167 -95.499 -66.5s-89.833 -21.5 -148.5 -21.5
c-15.333 0 -31.166 0.5 -47.499 1.5s-32.166 2.5 -47.499 4.5l-1 123c4.66699 -0.666992 10.334 -1 17.001 -1c25.333 -2 43 -3 53 -3c69.333 0 117 17.167 143 51.5s39 115.5 39 243.5v96v80c0 140 14.5 233.5 43.5 280.5s80.833 81.167 155.5 102.5
c-76 19.333 -128.5 53.833 -157.5 103.5s-43.5 156.5 -43.5 320.5v51v117c-1.33301 112.667 -15 184.167 -41 214.5s-72.333 45.5 -139 45.5c-9.33301 0 -26.666 -1 -51.999 -3c-8 -0.666992 -14 -1 -18 -1v122c16.667 2.66699 33.167 4.5 49.5 5.5s31.833 1.5 46.5 1.5
c112 0 189.833 -24.5 233.5 -73.5s65.5 -145.5 65.5 -289.5c0 -25.333 -0.333008 -58.833 -1 -100.5s-1 -70.834 -1 -87.501c0 -86 3.83301 -149.667 11.5 -191s20.5 -74.666 38.5 -99.999s42.667 -43.666 74 -54.999s75.333 -17 132 -17h37z" />
    <glyph glyph-name="asciitilde" unicode="~" horiz-adv-x="1706" 
d="M1530 637c-68 -48 -134.002 -83.833 -198.002 -107.5s-127 -35.5 -189 -35.5c-66 0 -152.667 19 -260 57l-29 10c-3.33301 1.33301 -8.66602 3.33301 -15.999 6c-117.333 42.667 -208.333 64 -273 64c-55.333 0 -113.666 -12.667 -174.999 -38s-132 -66 -212 -122v113
c70.667 48.667 138 85 202 109s125.667 36 185 36c69.333 0 160 -20.333 272 -61c7.33301 -2.66699 13.333 -5 18 -7c6 -2 16.333 -5.66699 31 -11c111.333 -40 197 -60 257 -60c56.667 0 115.667 12.667 177 38s131.333 66 210 122v-113z" />
    <glyph glyph-name="nonbreakingspace" unicode="&#xa0;" horiz-adv-x="1100" 
 />
    <glyph glyph-name="exclamdown" unicode="&#xa1;" horiz-adv-x="569" 
d="M369 1051c-30 -214 -53.334 -407.5 -70.001 -580.5s-27 -329.833 -31 -470.5h-180c22 170.667 49.833 342 83.5 514s72.834 344 117.501 516zM390.999 1456c28.667 0 51.5 -8.33203 68.5 -24.999s25.5 -38.334 25.5 -65.001c0 -36 -12 -66.5 -36 -91.5
s-53.667 -37.5 -89 -37.5c-28 0 -50.667 8.33301 -68 25s-26 39 -26 67c0 34.667 12.167 64.5 36.5 89.5s53.833 37.5 88.5 37.5z" />
    <glyph glyph-name="cent" unicode="&#xa2;" horiz-adv-x="1100" 
d="M641 1351l125.006 0.00292969c-8.66699 -36.667 -16.167 -72.667 -22.5 -108s-11.833 -70.666 -16.5 -105.999c45.333 -1.33301 84.166 -4.83301 116.499 -10.5s61.166 -13.834 86.499 -24.501l-19 -115c-33.333 13.333 -66.5 23.166 -99.5 29.499s-66.5 9.5 -100.5 9.5
l-125 -866h24c40 0 80.167 4.33301 120.5 13s81.5 22 123.5 40l-39 -125c-40.667 -14.667 -81.334 -25.834 -122.001 -33.501s-81.334 -11.5 -122.001 -11.5c-4.66699 -34 -8.83398 -70.167 -12.501 -108.5s-6.83398 -81.833 -9.50098 -130.5l-125 -1
c8.66699 34.667 16.667 72.667 24 114s14.333 86.666 21 135.999c-96.667 16.667 -171.667 62.334 -225 137.001s-80 171.667 -80 291c0 176.667 41 323.167 123 439.5s193.333 186.5 334 210.5c4 34.667 7.66699 70.167 11 106.5s6.33301 74.166 9 113.499zM606.006 1018
c-92.667 -19.333 -166.667 -75.501 -222 -168.501s-83 -208.833 -83 -347.5c0 -89.333 15.167 -161.166 45.5 -215.499s76.5 -92.5 138.5 -114.5z" />
    <glyph glyph-name="sterling" unicode="&#xa3;" horiz-adv-x="1100" 
d="M1032 1409l-6.00098 -125c-28.667 16 -60.167 27.833 -94.5 35.5s-71.833 11.5 -112.5 11.5c-116 0 -201.333 -40.167 -256 -120.5s-96.334 -235.5 -125.001 -465.5h434l-32 -106h-416c-13.333 -80.667 -25.5 -163.334 -36.5 -248.001s-21.5 -176 -31.5 -274h277
c55.333 0 104.833 2.16699 148.5 6.5s82.834 10.833 117.501 19.5l-41 -143h-807v76l152 41l44 261c14 86.667 27.333 173.667 40 261h-178l32 106h160c26.667 248.667 80.834 427 162.501 535s202.167 162 361.5 162c35.333 0 69.833 -2.66699 103.5 -8
s68.167 -13.666 103.5 -24.999z" />
    <glyph glyph-name="currency" unicode="&#xa4;" horiz-adv-x="1176" 
d="M590 1219c-86.667 0 -161 -31 -223 -93s-93 -135.667 -93 -221c0 -86 30.833 -159.667 92.5 -221s136.167 -92 223.5 -92c86.667 0 160.5 30.667 221.5 92s91.5 135 91.5 221s-30.667 159.833 -92 221.5s-135 92.5 -221 92.5zM125 1440l204.999 -207
c38.667 29.333 79.334 51.333 122.001 66s88 22 136 22c47.333 0 92 -7.16699 134 -21.5s83.333 -36.5 124 -66.5l205 207l73 -74l-204 -207c28 -37.333 49.333 -77.5 64 -120.5s22 -88.167 22 -135.5c0 -46.667 -7.16699 -91.167 -21.5 -133.5s-35.833 -82.5 -64.5 -120.5
l204 -207l-73 -71l-205 204c-38 -29.333 -78.333 -51.333 -121 -66s-88.334 -22 -137.001 -22c-49.333 0 -95.166 7.33301 -137.499 22s-82.5 36.667 -120.5 66l-205 -204l-72 71l205 207c-28.667 38 -50.167 78.333 -64.5 121s-21.5 87.667 -21.5 135s7.16699 92 21.5 134
s35.833 82 64.5 120l-205 207z" />
    <glyph glyph-name="yen" unicode="&#xa5;" horiz-adv-x="1100" 
d="M367 0c18 71.333 34.668 152.005 50.001 242.005s30 191 44 303c-58 0 -119 -0.333008 -183 -1s-145 -1.66699 -243 -3l14 89c42 0 110.5 -0.333008 205.5 -1s167.833 -1.33398 218.5 -2.00098l-32 82l-35 89c-40 0 -97 -0.333008 -171 -1
s-128.333 -1.33398 -163 -2.00098l14 90c32.667 -0.666992 80.667 -1.33398 144 -2.00098s110 -1.33398 140 -2.00098c-57.333 136 -106 244.833 -146 326.5s-76.333 147.5 -109 197.5h216c6.66699 -46.667 26 -117.334 58 -212.001s89.333 -248.667 172 -462
c117.333 167.333 213.666 310 288.999 428s122.333 200 141 246h189c-51.333 -61.333 -108 -133.333 -170 -216l-222 -308c36 0 73.667 0.166992 113 0.5s94 1.16602 164 2.49902l-14 -89c-30 0.666992 -81.167 1.33398 -153.5 2.00098s-127.833 1.33398 -166.5 2.00098
l-64.5 -97l-52.5 -75c49.333 0 102.333 0.166992 159 0.5s141.667 1.16602 255 2.49902l-14 -89h-60c-167.333 2.66699 -286 4 -356 4c-19.333 -152 -33 -269.167 -41 -351.5s-12 -146.833 -12 -193.5h-178z" />
    <glyph glyph-name="brokenbar" unicode="&#xa6;" horiz-adv-x="1024" 
d="M567 408v-758h-108v758h108zM567 1432v-758h-108v758h108z" />
    <glyph glyph-name="section" unicode="&#xa7;" horiz-adv-x="1024" 
d="M422 868c-56 -41.333 -97 -81.667 -123 -121s-39 -79.333 -39 -120c0 -66 103.667 -171.333 311 -316c4 -2.66699 6.66699 -4.33398 8 -5.00098c54.667 42.667 95 83.834 121 123.501s39 79.5 39 119.5c0 62 -92.333 159 -277 291zM928 1434l-10.002 -136.003
c-47.333 23.333 -90.166 40.166 -128.499 50.499s-75.5 15.5 -111.5 15.5c-76.667 0 -137.834 -19.5 -183.501 -58.5s-68.5 -90.5 -68.5 -154.5c0 -35.333 13 -70 39 -104s75 -78 147 -132l52 -38c146 -108 219 -207 219 -297c0 -62.667 -19.167 -122.5 -57.5 -179.5
s-94.5 -109.833 -168.5 -158.5c28.667 -29.333 49.834 -60.666 63.501 -93.999s20.5 -69 20.5 -107c0 -96.667 -39.667 -176.167 -119 -238.5s-181.666 -93.5 -306.999 -93.5c-42.667 0 -85.167 3.5 -127.5 10.5s-85.166 17.167 -128.499 30.5l11 131
c47.333 -19.333 92.5 -33.666 135.5 -42.999s84.5 -14 124.5 -14c80.667 0 146.167 19.5 196.5 58.5s75.5 89.167 75.5 150.5c0 58.667 -53 122.334 -159 191.001l-22 14c-118 78.667 -196.833 142.667 -236.5 192s-59.5 102 -59.5 158c0 66 19.667 128.167 59 186.5
s96 108.833 170 151.5c-26 30.667 -45 61.334 -57 92.001s-18 62.667 -18 96c0 104.667 39.167 190.167 117.5 256.5s181.166 99.5 308.499 99.5c31.333 0 65.5 -3 102.5 -9s77.167 -15 120.5 -27z" />
    <glyph glyph-name="dieresis" unicode="&#xa8;" horiz-adv-x="1024" 
d="M764 1405c24.667 0 44.834 -7.49805 60.501 -22.498s23.5 -34.833 23.5 -59.5c0 -27.333 -9.33301 -50.5 -28 -69.5s-41.334 -28.5 -68.001 -28.5c-24.667 0 -44.5 7.66699 -59.5 23s-22.5 35.666 -22.5 60.999c0 27.333 9 50.166 27 68.499s40.333 27.5 67 27.5z
M438 1405c25.333 0 45.668 -7.5 61.001 -22.5s23 -34.833 23 -59.5c0 -28 -9 -51.333 -27 -70s-40.333 -28 -67 -28c-24.667 0 -44.834 7.83301 -60.501 23.5s-23.5 35.834 -23.5 60.501c0 27.333 9 50.166 27 68.499s40.333 27.5 67 27.5z" />
    <glyph glyph-name="copyright" unicode="&#xa9;" horiz-adv-x="1706" 
d="M1073 915c-12 53.333 -37 94.667 -75 124s-85.333 44 -142 44c-81.333 0 -144.666 -31.667 -189.999 -95s-68 -152.333 -68 -267c0 -110.667 23 -197.334 69 -260.001s109 -94 189 -94c59.333 0 109.666 16.833 150.999 50.5s67.333 79.5 78 137.5h115
c-7.33301 -83.333 -43.5 -151.666 -108.5 -204.999s-145.5 -80 -241.5 -80c-118 0 -211 40.667 -279 122s-102 193 -102 335c0 135.333 35.833 244 107.5 326s166.167 123 283.5 123c90 0 165.5 -24 226.5 -72s95.5 -111 103.5 -189h-117zM1505 723.001
c0 88 -16.1689 171.668 -48.502 251.001s-78.833 149.333 -139.5 210c-62.667 62.667 -133.667 110.334 -213 143.001s-163.333 49 -252 49c-88 0 -171 -16 -249 -48s-147.333 -78.667 -208 -140c-62.667 -64 -110.667 -135.833 -144 -215.5s-50 -162.834 -50 -249.501
c0 -86 16.5 -168.333 49.5 -247s80.5 -149.334 142.5 -212.001c62.667 -62 133.334 -109.5 212.001 -142.5s161 -49.5 247 -49.5c86.667 0 170.167 16.667 250.5 50s152.5 81.333 216.5 144c60.667 59.333 106.834 128 138.501 206s47.5 161.667 47.5 251zM851.998 1456
c99.333 0 193.835 -18.5 283.502 -55.5s169.167 -90.167 238.5 -159.5c68 -68 120.167 -146.5 156.5 -235.5s54.5 -183.167 54.5 -282.5c0 -100 -17.833 -193.667 -53.5 -281s-88.167 -165 -157.5 -233c-71.333 -70.667 -152 -124.834 -242 -162.501
s-183.333 -56.5 -280 -56.5s-189.334 18.5 -278.001 55.5s-168 90.833 -238 161.5c-70 69.333 -123.333 148.333 -160 237s-55 181.667 -55 279c0 96.667 18.833 189.834 56.5 279.501s91.834 170.5 162.501 242.5c67.333 68.667 144.666 121 231.999 157
s180.666 54 279.999 54z" />
    <glyph glyph-name="ordfeminine" unicode="&#xaa;" horiz-adv-x="797" 
d="M754 811l-9.00098 -59.001c-17.333 -5.33301 -32.833 -9.16602 -46.5 -11.499s-25.834 -3.5 -36.501 -3.5c-29.333 0 -54.166 7.5 -74.499 22.5s-34.5 36.167 -42.5 63.5c-37.333 -28.667 -76.333 -50.167 -117 -64.5s-83.667 -21.5 -129 -21.5
c-62.667 0 -111.834 17 -147.501 51s-53.5 80.667 -53.5 140c0 78 37 139.667 111 185s179.667 71 317 77v16c0 60.667 -12.167 103.167 -36.5 127.5s-65.833 36.5 -124.5 36.5c-37.333 0 -71.666 -4.5 -102.999 -13.5s-61.333 -22.833 -90 -41.5l-6 108
c30.667 12.667 62.834 22 96.501 28s70.5 9 110.5 9c48.667 0 91.667 -6.5 129 -19.5s66 -31.833 86 -56.5c18 -22 31 -49.5 39 -82.5s12 -81.167 12 -144.5v-127c0 -98 6 -159.333 18 -184s34.667 -37 68 -37c7.33301 0 13 0.166992 17 0.5s8 0.833008 12 1.5z
M525.999 1116h-24.001c-83.333 0 -152.666 -16.667 -207.999 -50s-83 -76 -83 -128c0 -34.667 10.5 -62.167 31.5 -82.5s50.167 -30.5 87.5 -30.5c33.333 0 67 5.83301 101 17.5s67 28.5 99 50.5c-1.33301 15.333 -2.33301 32.5 -3 51.5s-1 48.833 -1 89.5v82z" />
    <glyph glyph-name="guillemotleft" unicode="&#xab;" horiz-adv-x="834" 
d="M707 899l71.001 -65.001l-119 -169.5l-94 -140.5c23.333 -62.667 45.666 -119.5 66.999 -170.5s42 -96.5 62 -136.5l-92 -70c-25.333 56 -55 115 -89 177s-73.333 128.667 -118 200l195 226c45.333 54.667 84.333 104.334 117 149.001zM365.001 898.999l73.001 -65.001
l-129.5 -182.5c-35 -50.333 -63.5 -92.833 -85.5 -127.5c23.333 -62.667 45.666 -119.5 66.999 -170.5s42 -96.5 62 -136.5l-92 -70c-23.333 52 -52.333 109.5 -87 172.5s-74.667 131.167 -120 204.5l195 226c45.333 54.667 84.333 104.334 117 149.001z" />
    <glyph glyph-name="logicalnot" unicode="&#xac;" horiz-adv-x="1896" 
d="M348 858h1200v-502h-114v385h-1086v117z" />
    <glyph glyph-name="sfthyphen" unicode="&#xad;" horiz-adv-x="674" 
d="M74 602h493l-18 -127h-494z" />
    <glyph glyph-name="registered" unicode="&#xae;" horiz-adv-x="1706" 
d="M850 1071l-158 0.00195312v-303h158c89.333 0 152 11.167 188 33.5s54 60.166 54 113.499c0 55.333 -19 95.166 -57 119.499s-99.667 36.5 -185 36.5zM874 1157c118.667 0 206.5 -19 263.5 -57s85.5 -96.667 85.5 -176c0 -59.333 -18 -109 -54 -149
s-84.333 -64.333 -145 -73l188 -389h-145l-178 371h-197v-371h-127v844h309zM1505 721.002c0 89.333 -16 173.669 -48 253.002s-78 149.333 -138 210c-62.667 62 -133.834 109.5 -213.501 142.5s-164.167 49.5 -253.5 49.5c-86.667 0 -168.834 -16 -246.501 -48
s-147.167 -78.667 -208.5 -140c-63.333 -64.667 -111.833 -136.834 -145.5 -216.501s-50.5 -162.5 -50.5 -248.5s16.5 -168.333 49.5 -247s80.5 -149.334 142.5 -212.001c62.667 -62 133.334 -109.5 212.001 -142.5s161 -49.5 247 -49.5c86.667 0 170.167 16.667 250.5 50
s152.5 81.333 216.5 144c60.667 59.333 106.834 127.5 138.501 204.5s47.5 160.5 47.5 250.5zM852 1456c101.333 0 196.5 -18.3311 285.5 -54.998s167.833 -90 236.5 -160c68 -68 120.167 -146.5 156.5 -235.5s54.5 -183.167 54.5 -282.5
c0 -100 -17.833 -193.667 -53.5 -281s-88.167 -165 -157.5 -233c-71.333 -70.667 -152 -124.834 -242 -162.501s-183.333 -56.5 -280 -56.5c-98 0 -191.167 18.5 -279.5 55.5s-167.166 90.833 -236.499 161.5c-70 69.333 -123.333 148.333 -160 237s-55 181.667 -55 279
c0 96 18.833 189.167 56.5 279.5s91.834 171.166 162.501 242.499c67.333 68.667 144.666 121 231.999 157s180.666 54 279.999 54z" />
    <glyph glyph-name="overscore" unicode="&#xaf;" horiz-adv-x="1024" 
d="M1024 1565v-101h-1024v101h1024z" />
    <glyph glyph-name="degree" unicode="&#xb0;" horiz-adv-x="1176" 
d="M588 1360c-55.333 0 -102.667 -19.668 -142 -59.001s-59 -86.666 -59 -141.999c0 -56.667 19.5 -104.667 58.5 -144s86.5 -59 142.5 -59s103.333 20 142 60s58 87.667 58 143c0 56 -19.333 103.5 -58 142.5s-86 58.5 -142 58.5zM587.999 1440
c78 0 144.501 -27.667 199.501 -83s82.5 -122 82.5 -200c0 -76.667 -27.333 -142.5 -82 -197.5s-121.334 -82.5 -200.001 -82.5c-79.333 0 -146.333 27 -201 81s-82 120.333 -82 199s27.667 145.5 83 200.5s122 82.5 200 82.5z" />
    <glyph glyph-name="plusminus" unicode="&#xb1;" horiz-adv-x="1896" 
d="M348 158h1200v-117h-1200v117zM889 1180h119v-344h540v-117h-540v-344h-119v344h-541v117h541v344z" />
    <glyph glyph-name="twosuperior" unicode="&#xb2;" horiz-adv-x="758" 
d="M193 633l273.997 -0.000976562c38 0 73.333 2 106 6s64.334 10 95.001 18l-21 -108h-569c-3.33301 15.333 -7 31.333 -11 48s-8.66699 34 -14 52c174 106 300.167 200.833 378.5 284.5s117.5 165.167 117.5 244.5c0 54.667 -16.167 97.667 -48.5 129
s-76.833 47 -133.5 47c-44 0 -83.5 -6 -118.5 -18s-68.833 -30.667 -101.5 -56l-36 88c38.667 24.667 78.834 42.834 120.501 54.501s86.834 17.5 135.501 17.5c90 0 162.333 -23.833 217 -71.5s82 -110.5 82 -188.5c0 -80 -37.833 -163.667 -113.5 -251
s-195.5 -186 -359.5 -296z" />
    <glyph glyph-name="threesuperior" unicode="&#xb3;" horiz-adv-x="758" 
d="M496 1004c48 -18.667 85.1689 -46.3311 111.502 -82.998s39.5 -79.334 39.5 -128.001c0 -80.667 -29.833 -145 -89.5 -193s-140.5 -72 -242.5 -72c-48.667 0 -94.167 5.66699 -136.5 17s-82.833 28.333 -121.5 51l45 96c29.333 -26.667 62.666 -46.667 99.999 -60
s79.333 -20 126 -20c65.333 0 115 15.667 149 47s51 77.333 51 138c0 55.333 -16.667 96 -50 122s-85.333 39 -156 39c-16 0 -32.167 -0.5 -48.5 -1.5s-33.166 -2.16699 -50.499 -3.5l23 89l45.5 -3c10.333 -0.666992 19.5 -1 27.5 -1c65.333 0 114.833 14.333 148.5 43
s50.5 70.334 50.5 125.001c0 47.333 -14 84.166 -42 110.499s-67.333 39.5 -118 39.5c-34 0 -67.333 -6.33301 -100 -19s-64.667 -31.667 -96 -57l-39 90c39.333 23.333 79.666 40.833 120.999 52.5s83.666 17.5 126.999 17.5c80 0 144 -20.833 192 -62.5
s72 -96.834 72 -165.501c0 -52 -11.333 -95 -34 -129s-57.667 -60.333 -105 -79z" />
    <glyph glyph-name="acute" unicode="&#xb4;" horiz-adv-x="1024" 
d="M682 1452l176.001 0.000976562c-60 -57.333 -122.167 -108.833 -186.5 -154.5s-129.833 -85.5 -196.5 -119.5l-61 18c46.667 35.333 92.167 74.166 136.5 116.499s88.166 88.833 131.499 139.5z" />
    <glyph glyph-name="mu" unicode="&#xb5;" horiz-adv-x="1110" 
d="M344 1065l-125 -592.002c-5.33301 -26 -9.33301 -50.333 -12 -73s-4 -44.667 -4 -66c0 -78 19.333 -138.167 58 -180.5s94.334 -63.5 167.001 -63.5c83.333 0 155 35.833 215 107.5s104.333 175.167 133 310.5l121 557h139l-164 -770c-8 -36.667 -13.667 -65 -17 -85
s-5 -36 -5 -48c0 -22 5.66699 -38.5 17 -49.5s28.333 -16.5 51 -16.5c4.66699 0 10.167 0.166992 16.5 0.5s12.833 0.833008 19.5 1.5l-20 -110c-12.667 -3.33301 -26.334 -6 -41.001 -8s-29.667 -3 -45 -3c-46.667 0 -81.167 12 -103.5 36s-33.5 60.667 -33.5 110v14
c-28 -51.333 -68 -91.166 -120 -119.499s-111.667 -42.5 -179 -42.5c-61.333 0 -115 13.333 -161 40s-82 65.334 -108 116.001l-114 -557h-140l316 1491h139z" />
    <glyph glyph-name="paragraph" unicode="&#xb6;" horiz-adv-x="1176" 
d="M985 1442c-12 -116 -20.832 -235.833 -26.499 -359.5s-8.5 -252.5 -8.5 -386.5c0 -191.333 2.66699 -367.833 8 -529.5s13 -299.167 23 -412.5h-207c9.33301 94.667 16.5 222.167 21.5 382.5s7.5 342.166 7.5 545.499c0 89.333 -1.5 184.833 -4.5 286.5
s-7.83301 222.5 -14.5 362.5c-28 4 -52.667 6.66699 -74 8s-42.333 2 -63 2c-78.667 0 -134.5 -23.5 -167.5 -70.5s-49.5 -127.167 -49.5 -240.5c0 -87.333 5.33301 -169.5 16 -246.5s26 -143.5 46 -199.5h178l-11 -95c-31.333 -10.667 -60.333 -18.667 -87 -24
s-52.667 -8 -78 -8c-105.333 0 -189.833 39.833 -253.5 119.5s-95.5 185.167 -95.5 316.5c0 164.667 53.5 297 160.5 397s249.5 150 427.5 150c21.333 0 48.5 -0.333008 81.5 -1s55.167 -1 66.5 -1c10.667 0 33 0.666992 67 2
c15.333 0.666992 27.666 1.33398 36.999 2.00098z" />
    <glyph glyph-name="periodcentered" unicode="&#xb7;" horiz-adv-x="551" 
d="M274 827c32 0 58.167 -10.1689 78.5 -30.502s30.5 -46.166 30.5 -77.499c0 -32 -10 -58.167 -30 -78.5s-46.333 -30.5 -79 -30.5c-30.667 0 -56.334 10.5 -77.001 31.5s-31 46.833 -31 77.5s10.333 56.334 31 77.001s46.334 31 77.001 31z" />
    <glyph glyph-name="cedilla" unicode="&#xb8;" horiz-adv-x="1024" 
d="M436 -156l132.998 -40.999c-49.333 -48 -101.5 -91.333 -156.5 -130s-112.5 -72.334 -172.5 -101.001l-84 33c52.667 30.667 102.334 66 149.001 106s90.334 84.333 131.001 133z" />
    <glyph glyph-name="onesuperior" unicode="&#xb9;" horiz-adv-x="758" 
d="M399 1430l55.999 0.00292969c-6 -47.333 -10.333 -112.833 -13 -196.5s-4 -193.834 -4 -330.501c0 -46.667 0.833008 -98.167 2.5 -154.5s4.16699 -122.833 7.5 -199.5h-124c4 64.667 7 136.5 9 215.5s3 165.5 3 259.5c0 42.667 -0.5 85 -1.5 127
s-2.83301 84.333 -5.5 127l-159 14l4 49c62 5.33301 109.333 14.666 142 27.999s60.334 33.666 83.001 60.999z" />
    <glyph glyph-name="ordmasculine" unicode="&#xba;" horiz-adv-x="797" 
d="M397 1380c-72.667 0 -127.001 -23.167 -163.001 -69.5s-54 -116.5 -54 -210.5c0 -93.333 18.333 -163.833 55 -211.5s90.667 -71.5 162 -71.5c72.667 0 127.334 23.833 164.001 71.5s55 118.167 55 211.5c0 94 -18 164.167 -54 210.5s-91 69.5 -165 69.5zM396.999 1473
c107.333 0 191.167 -33.168 251.5 -99.501s90.5 -158.166 90.5 -275.499s-30 -208.5 -90 -273.5s-144 -97.5 -252 -97.5c-107.333 0 -190.833 32.5 -250.5 97.5s-89.5 156.167 -89.5 273.5c0 118 30 210 90 276s143.333 99 250 99z" />
    <glyph glyph-name="guillemotright" unicode="&#xbb;" horiz-adv-x="834" 
d="M518 899c26.667 -56 57.166 -115.167 91.499 -177.5s72.833 -128.166 115.5 -197.499c-55.333 -60.667 -108.666 -122.334 -159.999 -185.001l-151 -192l-74 70c51.333 65.333 118 160 200 284l15 23c-12 34 -27.833 75.167 -47.5 123.5l-79.5 186.5zM177.999 899
c26.667 -56 57.167 -115.167 91.5 -177.5s72.833 -128.166 115.5 -197.499l-167 -192c-52 -62.667 -100.667 -124.334 -146 -185.001l-72 70c51.333 65.333 118 160 200 284l15 23c-12 34 -27.833 75.167 -47.5 123.5l-79.5 186.5z" />
    <glyph glyph-name="onequarter" unicode="&#xbc;" horiz-adv-x="1896" 
d="M1561 858l-351 -455h357v150c0 51.333 -0.5 102.5 -1.5 153.5s-2.5 101.5 -4.5 151.5zM1550 1012h141.002c-3.33301 -95.333 -5.83301 -184.333 -7.5 -267s-2.5 -161.667 -2.5 -237v-105h146l-12 -98h-133c1.33301 -86 2.66602 -150 3.99902 -192s3 -79.667 5 -113h-138
c2.66699 50 5 100.333 7 151s3.33301 102 4 154h-440c-4 16.667 -8.66699 33.834 -14 51.501s-12 38.167 -20 61.5c82.667 92 162.167 187.167 238.5 285.5s150.166 201.166 221.499 308.499zM494.002 0l336.001 615.5l448 869.5l121 -62
c-186.667 -320 -432.334 -781.333 -737.001 -1384l-52 -102zM451.003 1432l59.001 -0.00195312c-6.66699 -58.667 -11.334 -135.167 -14.001 -229.5s-4 -218.166 -4 -371.499c0 -61.333 1 -127.333 3 -198s5 -145.667 9 -225h-139
c4.66699 92.667 8.16699 184.834 10.5 276.501s3.5 183.834 3.5 276.501c0 45.333 -0.5 92.166 -1.5 140.499s-2.5 98.833 -4.5 151.5l-180 19l6 59c68 5.33301 120 15.5 156 30.5s68 38.5 96 70.5z" />
    <glyph glyph-name="onehalf" unicode="&#xbd;" horiz-adv-x="1896" 
d="M1260 98l309 -0.000976562c38.667 0 76.334 2.33301 113.001 7s73.334 12 110.001 22l-23 -127h-636c-0.666992 2 -1.66699 5.66699 -3 11c-10 48 -18.667 84 -26 108c192 118 332.833 226.333 422.5 325s134.5 194.334 134.5 287.001c0 63.333 -18.5 113.333 -55.5 150
s-87.5 55 -151.5 55c-47.333 0 -90.5 -7 -129.5 -21s-77.167 -35.667 -114.5 -65l-41 104c43.333 28 88.166 48.333 134.499 61s97.166 19 152.499 19c100.667 0 181.5 -27.5 242.5 -82.5s91.5 -127.833 91.5 -218.5c0 -92.667 -42.167 -189.667 -126.5 -291
s-218.833 -216 -403.5 -344zM455 -0.000976562l336 615.5l448 869.5l121 -62c-186 -320 -431.667 -781.333 -737 -1384l-52 -102zM451 1432l59.001 -0.00195312c-6.66699 -58.667 -11.334 -135.167 -14.001 -229.5s-4 -218.166 -4 -371.499c0 -61.333 1 -127.333 3 -198
s5 -145.667 9 -225h-139c4.66699 92.667 8.16699 184.834 10.5 276.501s3.5 183.834 3.5 276.501c0 45.333 -0.5 92.166 -1.5 140.499s-2.5 98.833 -4.5 151.5l-180 19l6 59c68 5.33301 120 15.5 156 30.5s68 38.5 96 70.5z" />
    <glyph glyph-name="threequarters" unicode="&#xbe;" horiz-adv-x="1896" 
d="M1567 403v150c0 51.333 -0.5 102.5 -1.5 153.5s-2.5 101.5 -4.5 151.5l-351 -455h357zM1564 305h-439.998c-4 16.667 -8.66699 33.834 -14 51.501s-12 38.167 -20 61.5c82.667 92 162.167 187.167 238.5 285.5s150.166 201.166 221.499 308.499h141
c-3.33301 -95.333 -5.83301 -184.333 -7.5 -267s-2.5 -161.667 -2.5 -237v-105h146l-12 -98h-133c1.33301 -86 2.66602 -150 3.99902 -192s3 -79.667 5 -113h-138c2.66699 50 5 100.333 7 151s3.33301 102 4 154zM530.002 0l318.501 582l464.5 903l121 -62
c-186.667 -320 -432.334 -781.333 -737.001 -1384l-52 -102zM115.003 571c36.667 -30 75.1699 -52.501 115.503 -67.501s83.5 -22.5 129.5 -22.5c74 0 131.833 18.167 173.5 54.5s62.5 86.5 62.5 150.5c0 64.667 -20.833 113.334 -62.5 146.001s-103.5 49 -185.5 49
c-12.667 0 -26.167 -0.333008 -40.5 -1s-33.5 -1.66699 -57.5 -3l24 104c10 -1.33301 20 -2.33301 30 -3s22.667 -1 38 -1c75.333 0 134.833 17.5 178.5 52.5s65.5 82.167 65.5 141.5c0 53.333 -17 96.166 -51 128.499s-79.333 48.5 -136 48.5
c-34 0 -69.167 -7.33301 -105.5 -22s-72.833 -36 -109.5 -64l-43 106c43.333 25.333 87.666 44.333 132.999 57s91.333 19 138 19c89.333 0 161.166 -23.833 215.499 -71.5s81.5 -110.5 81.5 -188.5c0 -59.333 -15.667 -109.666 -47 -150.999s-78 -73 -140 -95
c64.667 -16 115 -46 151 -90s54 -97.333 54 -160c0 -92.667 -33.5 -166.667 -100.5 -222s-157.833 -83 -272.5 -83c-54 0 -104.833 6.16699 -152.5 18.5s-93.834 31.5 -138.501 57.5z" />
    <glyph glyph-name="questiondown" unicode="&#xbf;" horiz-adv-x="909" 
d="M637 1044c0.666992 -8.66699 1.16699 -17.6689 1.5 -27.002s0.5 -20.666 0.5 -33.999c0 -62 -11.833 -116.667 -35.5 -164s-73.834 -106.666 -150.501 -177.999l-27 -25c-131.333 -120.667 -197 -229 -197 -325c0 -66 20.5 -116.667 61.5 -152s99.833 -53 176.5 -53
c44.667 0 92.5 7 143.5 21s110.167 36.333 177.5 67l-40 -143c-56 -21.333 -109 -37.333 -159 -48s-98.333 -16 -145 -16c-115.333 0 -205.166 28 -269.499 84s-96.5 134 -96.5 234c0 126 83.667 261.333 251 406c12 10.667 21.333 18.667 28 24
c70.667 62 115.5 113.667 134.5 155s28.5 92 28.5 152zM631 1444c28 0 50.667 -8.5 68 -25.5s26 -39.167 26 -66.5c0 -34 -12.5 -63.667 -37.5 -89s-54.167 -38 -87.5 -38c-28 0 -50.667 8.5 -68 25.5s-26 39.167 -26 66.5c0 35.333 12 65.333 36 90s53.667 37 89 37z" />
    <glyph glyph-name="Agrave" unicode="&#xc0;" horiz-adv-x="1176" 
d="M684 1274l-173 -358.5l-153 -340.5h418l-47 348zM647 1464c12.667 -2 25.168 -3.50098 37.501 -4.50098s24.5 -1.5 36.5 -1.5c11.333 0 23 0.5 35 1.5s24 2.5 36 4.5c26 -262 59.5 -515.167 100.5 -759.5s89.5 -479.166 145.5 -704.499h-182l-35.5 273
c-9.66699 72.667 -18.834 137.334 -27.501 194.001h-486c-38.667 -81.333 -74 -160.833 -106 -238.5s-60.667 -153.834 -86 -228.501h-187l415 812c118 240.667 219.333 458 304 652zM536.001 1866h176c28 -49.333 58.5 -95.5 91.5 -138.5s68.167 -82.167 105.5 -117.5
l-68 -18c-59.333 35.333 -114.5 76 -165.5 122s-97.5 96.667 -139.5 152z" />
    <glyph glyph-name="Aacute" unicode="&#xc1;" horiz-adv-x="1176" 
d="M684 1274l-173 -358.5l-153 -340.5h418l-47 348zM647 1464c12.667 -2 25.168 -3.50098 37.501 -4.50098s24.5 -1.5 36.5 -1.5c11.333 0 23 0.5 35 1.5s24 2.5 36 4.5c26 -262 59.5 -515.167 100.5 -759.5s89.5 -479.166 145.5 -704.499h-182l-35.5 273
c-9.66699 72.667 -18.834 137.334 -27.501 194.001h-486c-38.667 -81.333 -74 -160.833 -106 -238.5s-60.667 -153.834 -86 -228.501h-187l415 812c118 240.667 219.333 458 304 652zM825.001 1866l176.001 0.000976562c-60 -57.333 -122.167 -108.833 -186.5 -154.5
s-129.833 -85.5 -196.5 -119.5l-61 18c46.667 35.333 92.167 74.166 136.5 116.499s88.166 88.833 131.499 139.5z" />
    <glyph glyph-name="Acircumflex" unicode="&#xc2;" horiz-adv-x="1176" 
d="M684 1274l-173 -358.5l-153 -340.5h418l-47 348zM647 1464c12.667 -2 25.168 -3.50098 37.501 -4.50098s24.5 -1.5 36.5 -1.5c11.333 0 23 0.5 35 1.5s24 2.5 36 4.5c26 -262 59.5 -515.167 100.5 -759.5s89.5 -479.166 145.5 -704.499h-182l-35.5 273
c-9.66699 72.667 -18.834 137.334 -27.501 194.001h-486c-38.667 -81.333 -74 -160.833 -106 -238.5s-60.667 -153.834 -86 -228.501h-187l415 812c118 240.667 219.333 458 304 652zM725.001 1854h64.999c36 -43.333 72.833 -83.333 110.5 -120s76.5 -71 116.5 -103
l-63 -48c-40 33.333 -78.167 62.166 -114.5 86.499s-71.833 44.833 -106.5 61.5c-40 -19.333 -81 -41.166 -123 -65.499s-85.667 -51.833 -131 -82.5l-47 48c55.333 36 107.333 72.5 156 109.5s94.334 74.833 137.001 113.5z" />
    <glyph glyph-name="Atilde" unicode="&#xc3;" horiz-adv-x="1176" 
d="M684 1274l-173 -358.5l-153 -340.5h418l-47 348zM647 1464c12.667 -2 25.168 -3.50098 37.501 -4.50098s24.5 -1.5 36.5 -1.5c11.333 0 23 0.5 35 1.5s24 2.5 36 4.5c26 -262 59.5 -515.167 100.5 -759.5s89.5 -479.166 145.5 -704.499h-182l-35.5 273
c-9.66699 72.667 -18.834 137.334 -27.501 194.001h-486c-38.667 -81.333 -74 -160.833 -106 -238.5s-60.667 -153.834 -86 -228.501h-187l415 812c118 240.667 219.333 458 304 652zM1007 1796l36.998 -26c-22.667 -45.333 -49.5 -78.833 -80.5 -100.5
s-66.833 -32.5 -107.5 -32.5c-26.667 0 -68.167 9.5 -124.5 28.5s-99.5 28.5 -129.5 28.5c-25.333 0 -49.5 -5 -72.5 -15s-45.5 -25.333 -67.5 -46l-34 28c20 43.333 46 76.333 78 99s68 34 108 34c24 0 63.833 -9.5 119.5 -28.5s99.834 -28.5 132.501 -28.5
c26 0 50.833 5 74.5 15s45.834 24.667 66.501 44z" />
    <glyph glyph-name="Adieresis" unicode="&#xc4;" horiz-adv-x="1176" 
d="M684 1274l-173 -358.5l-153 -340.5h418l-47 348zM647 1464c12.667 -2 25.168 -3.50098 37.501 -4.50098s24.5 -1.5 36.5 -1.5c11.333 0 23 0.5 35 1.5s24 2.5 36 4.5c26 -262 59.5 -515.167 100.5 -759.5s89.5 -479.166 145.5 -704.499h-182l-35.5 273
c-9.66699 72.667 -18.834 137.334 -27.501 194.001h-486c-38.667 -81.333 -74 -160.833 -106 -238.5s-60.667 -153.834 -86 -228.501h-187l415 812c118 240.667 219.333 458 304 652zM907.001 1819c24.667 0 44.834 -7.49805 60.501 -22.498s23.5 -34.833 23.5 -59.5
c0 -27.333 -9.33301 -50.5 -28 -69.5s-41.334 -28.5 -68.001 -28.5c-24.667 0 -44.5 7.66699 -59.5 23s-22.5 35.666 -22.5 60.999c0 27.333 9 50.166 27 68.499s40.333 27.5 67 27.5zM581.001 1819c25.333 0 45.668 -7.5 61.001 -22.5s23 -34.833 23 -59.5
c0 -28 -9 -51.333 -27 -70s-40.333 -28 -67 -28c-24.667 0 -44.834 7.83301 -60.501 23.5s-23.5 35.834 -23.5 60.501c0 27.333 9 50.166 27 68.499s40.333 27.5 67 27.5z" />
    <glyph glyph-name="Aring" unicode="&#xc5;" horiz-adv-x="1176" 
d="M739 1954c56 0 103.5 -19.501 142.5 -58.501s58.5 -86.5 58.5 -142.5c0 -56.667 -19.5 -104.667 -58.5 -144s-86.5 -59 -142.5 -59c-56.667 0 -104.167 19.5 -142.5 58.5s-57.5 87.167 -57.5 144.5c0 56.667 19.333 104.334 58 143.001s86 58 142 58zM739 1882
c-35.333 0 -65.334 -12.5 -90.001 -37.5s-37 -55.5 -37 -91.5s12.333 -66.5 37 -91.5s54.667 -37.5 90 -37.5c36.667 0 67.334 12.5 92.001 37.5s37 55.5 37 91.5s-12.5 66.5 -37.5 91.5s-55.5 37.5 -91.5 37.5zM646.999 1464c12.667 -2 25.168 -3.50098 37.501 -4.50098
s24.5 -1.5 36.5 -1.5c11.333 0 23 0.5 35 1.5s24 2.5 36 4.5c26 -262 59.5 -515.167 100.5 -759.5s89.5 -479.166 145.5 -704.499h-182l-35.5 273c-9.66699 72.667 -18.834 137.334 -27.501 194.001h-486c-38.667 -81.333 -74 -160.833 -106 -238.5
s-60.667 -153.834 -86 -228.501h-187l415 812c118 240.667 219.333 458 304 652zM684 1274l-173 -358.5l-153 -340.5h418l-47 348z" />
    <glyph glyph-name="AE" unicode="&#xc6;" horiz-adv-x="1663" 
d="M971 1368l-288 -399.999l-263 -393h446l72 520.5c19.333 146.333 30.333 237.166 33 272.499zM1591 1442l6.00098 -137.001c-52.667 8.66699 -110.834 15.167 -174.501 19.5s-137.834 6.5 -222.501 6.5h-86l-74 -506h488l-60 -133c-60 8 -121.167 14.167 -183.5 18.5
s-125.166 6.5 -188.499 6.5h-72l-82 -608h178c58 0 117.5 2.66699 178.5 8s123.167 13.333 186.5 24l-64 -141h-661c12.667 46.667 25.667 106.334 39 179.001s29 168.667 47 288h-500c-31.333 -44 -109 -166.333 -233 -367l-62 -100h-172l479 673.5l504 764.5z" />
    <glyph glyph-name="Ccedilla" unicode="&#xc7;" horiz-adv-x="1104" 
d="M1077 1442l6 -142c-37.333 20 -77.333 35 -120 45s-88 15 -136 15c-180 0 -324 -73.333 -432 -220s-162 -343 -162 -589c0 -150.667 33.833 -266.167 101.5 -346.5s164.5 -120.5 290.5 -120.5c65.333 0 130.333 8.66699 195 26s129.334 43.333 194.001 78l-35 -131
c-56 -28.667 -115.333 -50.5 -178 -65.5s-127 -22.5 -193 -22.5c-166.667 0 -295 50 -385 150s-135 243.333 -135 430c0 132 17.5 254.833 52.5 368.5s85.833 212.5 152.5 296.5c67.333 86 146.833 150.667 238.5 194s195.167 65 310.5 65
c41.333 0 81.666 -2.66699 120.999 -8s77.333 -13 114 -23zM608 -156l132.998 -40.999c-49.333 -48 -101.5 -91.333 -156.5 -130s-112.5 -72.334 -172.5 -101.001l-84 33c52.667 30.667 102.334 66 149.001 106s90.334 84.333 131.001 133z" />
    <glyph glyph-name="Egrave" unicode="&#xc8;" horiz-adv-x="999" 
d="M299 1442l629 0.00195312l6 -137c-53.333 8.66699 -111.833 15.167 -175.5 19.5s-137.5 6.5 -221.5 6.5h-86l-74 -506h487l-59 -133c-60 8 -121.167 14.167 -183.5 18.5s-125.5 6.5 -189.5 6.5h-72l-81 -608h149c79.333 0 150.5 2.5 213.5 7.5s122.167 13.167 177.5 24.5
l-61 -141h-662c50 237.333 92 476.166 126 716.499s59.667 482.166 77 725.499zM436 1866h176c28 -49.333 58.5 -95.5 91.5 -138.5s68.167 -82.167 105.5 -117.5l-68 -18c-59.333 35.333 -114.5 76 -165.5 122s-97.5 96.667 -139.5 152z" />
    <glyph glyph-name="Eacute" unicode="&#xc9;" horiz-adv-x="999" 
d="M299 1442l629 0.00195312l6 -137c-53.333 8.66699 -111.833 15.167 -175.5 19.5s-137.5 6.5 -221.5 6.5h-86l-74 -506h487l-59 -133c-60 8 -121.167 14.167 -183.5 18.5s-125.5 6.5 -189.5 6.5h-72l-81 -608h149c79.333 0 150.5 2.5 213.5 7.5s122.167 13.167 177.5 24.5
l-61 -141h-662c50 237.333 92 476.166 126 716.499s59.667 482.166 77 725.499zM725 1866l176.001 0.000976562c-60 -57.333 -122.167 -108.833 -186.5 -154.5s-129.833 -85.5 -196.5 -119.5l-61 18c46.667 35.333 92.167 74.166 136.5 116.499s88.166 88.833 131.499 139.5
z" />
    <glyph glyph-name="Ecircumflex" unicode="&#xca;" horiz-adv-x="999" 
d="M299 1442l629 0.00195312l6 -137c-53.333 8.66699 -111.833 15.167 -175.5 19.5s-137.5 6.5 -221.5 6.5h-86l-74 -506h487l-59 -133c-60 8 -121.167 14.167 -183.5 18.5s-125.5 6.5 -189.5 6.5h-72l-81 -608h149c79.333 0 150.5 2.5 213.5 7.5s122.167 13.167 177.5 24.5
l-61 -141h-662c50 237.333 92 476.166 126 716.499s59.667 482.166 77 725.499zM625 1854h64.999c36 -43.333 72.833 -83.333 110.5 -120s76.5 -71 116.5 -103l-63 -48c-40 33.333 -78.167 62.166 -114.5 86.499s-71.833 44.833 -106.5 61.5
c-40 -19.333 -81 -41.166 -123 -65.499s-85.667 -51.833 -131 -82.5l-47 48c55.333 36 107.333 72.5 156 109.5s94.334 74.833 137.001 113.5z" />
    <glyph glyph-name="Edieresis" unicode="&#xcb;" horiz-adv-x="999" 
d="M299 1442l629 0.00195312l6 -137c-53.333 8.66699 -111.833 15.167 -175.5 19.5s-137.5 6.5 -221.5 6.5h-86l-74 -506h487l-59 -133c-60 8 -121.167 14.167 -183.5 18.5s-125.5 6.5 -189.5 6.5h-72l-81 -608h149c79.333 0 150.5 2.5 213.5 7.5s122.167 13.167 177.5 24.5
l-61 -141h-662c50 237.333 92 476.166 126 716.499s59.667 482.166 77 725.499zM807 1819c24.667 0 44.834 -7.49805 60.501 -22.498s23.5 -34.833 23.5 -59.5c0 -27.333 -9.33301 -50.5 -28 -69.5s-41.334 -28.5 -68.001 -28.5c-24.667 0 -44.5 7.66699 -59.5 23
s-22.5 35.666 -22.5 60.999c0 27.333 9 50.166 27 68.499s40.333 27.5 67 27.5zM481 1819c25.333 0 45.668 -7.5 61.001 -22.5s23 -34.833 23 -59.5c0 -28 -9 -51.333 -27 -70s-40.333 -28 -67 -28c-24.667 0 -44.834 7.83301 -60.501 23.5s-23.5 35.834 -23.5 60.501
c0 27.333 9 50.166 27 68.499s40.333 27.5 67 27.5z" />
    <glyph glyph-name="Igrave" unicode="&#xcc;" horiz-adv-x="602" 
d="M311 1442l187.001 0.00292969c-50.667 -237.333 -92.834 -476.333 -126.501 -717s-59.167 -482.334 -76.5 -725.001h-186c50 237.333 91.833 476.166 125.5 716.499s59.167 482.166 76.5 725.499zM243.001 1866h176c28 -49.333 58.5 -95.5 91.5 -138.5
s68.167 -82.167 105.5 -117.5l-68 -18c-59.333 35.333 -114.5 76 -165.5 122s-97.5 96.667 -139.5 152z" />
    <glyph glyph-name="Iacute" unicode="&#xcd;" horiz-adv-x="602" 
d="M311 1442l187.001 0.00292969c-50.667 -237.333 -92.834 -476.333 -126.501 -717s-59.167 -482.334 -76.5 -725.001h-186c50 237.333 91.833 476.166 125.5 716.499s59.167 482.166 76.5 725.499zM532.001 1866l176.001 0.000976562
c-60 -57.333 -122.167 -108.833 -186.5 -154.5s-129.833 -85.5 -196.5 -119.5l-61 18c46.667 35.333 92.167 74.166 136.5 116.499s88.166 88.833 131.499 139.5z" />
    <glyph glyph-name="Icircumflex" unicode="&#xce;" horiz-adv-x="602" 
d="M311 1442l187.001 0.00292969c-50.667 -237.333 -92.834 -476.333 -126.501 -717s-59.167 -482.334 -76.5 -725.001h-186c50 237.333 91.833 476.166 125.5 716.499s59.167 482.166 76.5 725.499zM432.001 1854h64.999c36 -43.333 72.833 -83.333 110.5 -120
s76.5 -71 116.5 -103l-63 -48c-40 33.333 -78.167 62.166 -114.5 86.499s-71.833 44.833 -106.5 61.5c-40 -19.333 -81 -41.166 -123 -65.499s-85.667 -51.833 -131 -82.5l-47 48c55.333 36 107.333 72.5 156 109.5s94.334 74.833 137.001 113.5z" />
    <glyph glyph-name="Idieresis" unicode="&#xcf;" horiz-adv-x="602" 
d="M311 1442l187.001 0.00292969c-50.667 -237.333 -92.834 -476.333 -126.501 -717s-59.167 -482.334 -76.5 -725.001h-186c50 237.333 91.833 476.166 125.5 716.499s59.167 482.166 76.5 725.499zM614.001 1819c24.667 0 44.834 -7.49805 60.501 -22.498
s23.5 -34.833 23.5 -59.5c0 -27.333 -9.33301 -50.5 -28 -69.5s-41.334 -28.5 -68.001 -28.5c-24.667 0 -44.5 7.66699 -59.5 23s-22.5 35.666 -22.5 60.999c0 27.333 9 50.166 27 68.499s40.333 27.5 67 27.5zM288.001 1819c25.333 0 45.668 -7.5 61.001 -22.5
s23 -34.833 23 -59.5c0 -28 -9 -51.333 -27 -70s-40.333 -28 -67 -28c-24.667 0 -44.834 7.83301 -60.501 23.5s-23.5 35.834 -23.5 60.501c0 27.333 9 50.166 27 68.499s40.333 27.5 67 27.5z" />
    <glyph glyph-name="Eth" unicode="&#xd0;" horiz-adv-x="1352" 
d="M293 115c22.667 -2 44.335 -3.49902 65.002 -4.49902s41.334 -1.5 62.001 -1.5c227.333 0 399.166 61.333 515.499 184s174.5 303.667 174.5 543c0 173.333 -40.333 299.166 -121 377.499s-210.334 117.5 -389.001 117.5c-21.333 0 -43.333 -0.5 -66 -1.5
s-46.334 -2.5 -71.001 -4.5l-47.5 -262.5c-14.333 -83 -27.166 -161.5 -38.499 -235.5c50 0 104.667 0.5 164 1.5s123.333 2.5 192 4.5l-16 -122c-68.667 2 -132.334 3.5 -191.001 4.5s-113.334 1.5 -164.001 1.5c-15.333 -110.667 -28.666 -215.167 -39.999 -313.5
s-21 -194.5 -29 -288.5zM303.001 1442l244 0.00292969c114.667 0 202.667 -5 264 -15s117.333 -26.333 168 -49c90 -40 158.833 -105 206.5 -195s71.5 -199.667 71.5 -329c0 -158.667 -27.833 -299.667 -83.5 -423s-136.834 -224 -243.501 -302
c-61.333 -44.667 -142.166 -77.334 -242.499 -98.001s-228.5 -31 -384.5 -31h-203c20 96 40 202.5 60 319.5s40.333 249.5 61 397.5c-31.333 -0.666992 -67.5 -1.5 -108.5 -2.5s-65.5 -1.5 -73.5 -1.5l16 118c20 -0.666992 50.167 -1.33398 90.5 -2.00098
s71.166 -1.33398 92.499 -2.00098c13.333 104.667 25.333 208.167 36 310.5s20.334 203.833 29.001 304.5z" />
    <glyph glyph-name="Ntilde" unicode="&#xd1;" horiz-adv-x="1413" 
d="M301 1442l225.001 0.00195312l232.5 -658l245.5 -645l83 623c16.667 121.333 30.667 237.666 42 348.999s20.666 221.333 27.999 330l178 1c-45.333 -202.667 -86.5 -425.5 -123.5 -668.5s-68.833 -500.833 -95.5 -773.5h-211l-280.5 787l-204.5 559l-96 -680
c-14 -98 -26.333 -202.333 -37 -313s-19.667 -228.334 -27 -353.001h-184c46 204.667 88 428.5 126 671.5s71 499.833 99 770.5zM1097 1796l36.998 -26c-22.667 -45.333 -49.5 -78.833 -80.5 -100.5s-66.833 -32.5 -107.5 -32.5c-26.667 0 -68.167 9.5 -124.5 28.5
s-99.5 28.5 -129.5 28.5c-25.333 0 -49.5 -5 -72.5 -15s-45.5 -25.333 -67.5 -46l-34 28c20 43.333 46 76.333 78 99s68 34 108 34c24 0 63.833 -9.5 119.5 -28.5s99.834 -28.5 132.501 -28.5c26 0 50.833 5 74.5 15s45.834 24.667 66.501 44z" />
    <glyph glyph-name="Ograve" unicode="&#xd2;" horiz-adv-x="1366" 
d="M1126 901c0 143.333 -32.668 255.333 -98.001 336s-156 121 -272 121c-154 0 -278.833 -75 -374.5 -225s-143.5 -347.333 -143.5 -592c0 -141.333 32.333 -252.833 97 -334.5s152.334 -122.5 263.001 -122.5c160 0 288 73.833 384 221.5s144 346.167 144 595.5z
M763.999 1473c160 0 285.002 -51.5 375.002 -154.5s135 -246.833 135 -431.5c0 -124 -15.667 -242.167 -47 -354.5s-76.333 -212.833 -135 -301.5c-56.667 -84 -127.834 -149 -213.501 -195s-178.5 -69 -278.5 -69c-160 0 -284.667 51.5 -374 154.5s-134 247.5 -134 433.5
c0 124.667 15.667 243 47 355s76.333 211.333 135 298c56.667 84 127.667 149.167 213 195.5s177.666 69.5 276.999 69.5zM618.001 1866h176c28 -49.333 58.5 -95.5 91.5 -138.5s68.167 -82.167 105.5 -117.5l-68 -18c-59.333 35.333 -114.5 76 -165.5 122
s-97.5 96.667 -139.5 152z" />
    <glyph glyph-name="Oacute" unicode="&#xd3;" horiz-adv-x="1366" 
d="M1126 901c0 143.333 -32.668 255.333 -98.001 336s-156 121 -272 121c-154 0 -278.833 -75 -374.5 -225s-143.5 -347.333 -143.5 -592c0 -141.333 32.333 -252.833 97 -334.5s152.334 -122.5 263.001 -122.5c160 0 288 73.833 384 221.5s144 346.167 144 595.5z
M763.999 1473c160 0 285.002 -51.5 375.002 -154.5s135 -246.833 135 -431.5c0 -124 -15.667 -242.167 -47 -354.5s-76.333 -212.833 -135 -301.5c-56.667 -84 -127.834 -149 -213.501 -195s-178.5 -69 -278.5 -69c-160 0 -284.667 51.5 -374 154.5s-134 247.5 -134 433.5
c0 124.667 15.667 243 47 355s76.333 211.333 135 298c56.667 84 127.667 149.167 213 195.5s177.666 69.5 276.999 69.5zM907.001 1866l176.001 0.000976562c-60 -57.333 -122.167 -108.833 -186.5 -154.5s-129.833 -85.5 -196.5 -119.5l-61 18
c46.667 35.333 92.167 74.166 136.5 116.499s88.166 88.833 131.499 139.5z" />
    <glyph glyph-name="Ocircumflex" unicode="&#xd4;" horiz-adv-x="1366" 
d="M1126 901c0 143.333 -32.668 255.333 -98.001 336s-156 121 -272 121c-154 0 -278.833 -75 -374.5 -225s-143.5 -347.333 -143.5 -592c0 -141.333 32.333 -252.833 97 -334.5s152.334 -122.5 263.001 -122.5c160 0 288 73.833 384 221.5s144 346.167 144 595.5z
M763.999 1473c160 0 285.002 -51.5 375.002 -154.5s135 -246.833 135 -431.5c0 -124 -15.667 -242.167 -47 -354.5s-76.333 -212.833 -135 -301.5c-56.667 -84 -127.834 -149 -213.501 -195s-178.5 -69 -278.5 -69c-160 0 -284.667 51.5 -374 154.5s-134 247.5 -134 433.5
c0 124.667 15.667 243 47 355s76.333 211.333 135 298c56.667 84 127.667 149.167 213 195.5s177.666 69.5 276.999 69.5zM807.001 1854h64.999c36 -43.333 72.833 -83.333 110.5 -120s76.5 -71 116.5 -103l-63 -48c-40 33.333 -78.167 62.166 -114.5 86.499
s-71.833 44.833 -106.5 61.5c-40 -19.333 -81 -41.166 -123 -65.499s-85.667 -51.833 -131 -82.5l-47 48c55.333 36 107.333 72.5 156 109.5s94.334 74.833 137.001 113.5z" />
    <glyph glyph-name="Otilde" unicode="&#xd5;" horiz-adv-x="1366" 
d="M1126 901c0 143.333 -32.668 255.333 -98.001 336s-156 121 -272 121c-154 0 -278.833 -75 -374.5 -225s-143.5 -347.333 -143.5 -592c0 -141.333 32.333 -252.833 97 -334.5s152.334 -122.5 263.001 -122.5c160 0 288 73.833 384 221.5s144 346.167 144 595.5z
M763.999 1473c160 0 285.002 -51.5 375.002 -154.5s135 -246.833 135 -431.5c0 -124 -15.667 -242.167 -47 -354.5s-76.333 -212.833 -135 -301.5c-56.667 -84 -127.834 -149 -213.501 -195s-178.5 -69 -278.5 -69c-160 0 -284.667 51.5 -374 154.5s-134 247.5 -134 433.5
c0 124.667 15.667 243 47 355s76.333 211.333 135 298c56.667 84 127.667 149.167 213 195.5s177.666 69.5 276.999 69.5zM1089 1796l36.998 -26c-22.667 -45.333 -49.5 -78.833 -80.5 -100.5s-66.833 -32.5 -107.5 -32.5c-26.667 0 -68.167 9.5 -124.5 28.5
s-99.5 28.5 -129.5 28.5c-25.333 0 -49.5 -5 -72.5 -15s-45.5 -25.333 -67.5 -46l-34 28c20 43.333 46 76.333 78 99s68 34 108 34c24 0 63.833 -9.5 119.5 -28.5s99.834 -28.5 132.501 -28.5c26 0 50.833 5 74.5 15s45.834 24.667 66.501 44z" />
    <glyph glyph-name="Odieresis" unicode="&#xd6;" horiz-adv-x="1366" 
d="M1126 901c0 143.333 -32.668 255.333 -98.001 336s-156 121 -272 121c-154 0 -278.833 -75 -374.5 -225s-143.5 -347.333 -143.5 -592c0 -141.333 32.333 -252.833 97 -334.5s152.334 -122.5 263.001 -122.5c160 0 288 73.833 384 221.5s144 346.167 144 595.5z
M763.999 1473c160 0 285.002 -51.5 375.002 -154.5s135 -246.833 135 -431.5c0 -124 -15.667 -242.167 -47 -354.5s-76.333 -212.833 -135 -301.5c-56.667 -84 -127.834 -149 -213.501 -195s-178.5 -69 -278.5 -69c-160 0 -284.667 51.5 -374 154.5s-134 247.5 -134 433.5
c0 124.667 15.667 243 47 355s76.333 211.333 135 298c56.667 84 127.667 149.167 213 195.5s177.666 69.5 276.999 69.5zM989.001 1819c24.667 0 44.834 -7.49805 60.501 -22.498s23.5 -34.833 23.5 -59.5c0 -27.333 -9.33301 -50.5 -28 -69.5s-41.334 -28.5 -68.001 -28.5
c-24.667 0 -44.5 7.66699 -59.5 23s-22.5 35.666 -22.5 60.999c0 27.333 9 50.166 27 68.499s40.333 27.5 67 27.5zM663.001 1819c25.333 0 45.668 -7.5 61.001 -22.5s23 -34.833 23 -59.5c0 -28 -9 -51.333 -27 -70s-40.333 -28 -67 -28
c-24.667 0 -44.834 7.83301 -60.501 23.5s-23.5 35.834 -23.5 60.501c0 27.333 9 50.166 27 68.499s40.333 27.5 67 27.5z" />
    <glyph glyph-name="multiply" unicode="&#xd7;" horiz-adv-x="1896" 
d="M477 1169l475 -477l475 477l82 -82l-475 -477l475 -475l-82 -82l-475 475l-475 -475l-82 82l475 475l-475 477z" />
    <glyph glyph-name="Oslash" unicode="&#xd8;" horiz-adv-x="1366" 
d="M1087 1161l-346.5 -443.999l-400.5 -529c32 -36.667 69.5 -64.5 112.5 -83.5s90.833 -28.5 143.5 -28.5c162.667 0 293.5 75 392.5 225s148.5 350.667 148.5 602c0 50 -4.16699 96.167 -12.5 138.5s-20.833 82.166 -37.5 119.499zM1026 1255
c-35.333 36.667 -75 63.998 -119 81.998s-92.333 27 -145 27c-160 0 -288.833 -75.333 -386.5 -226s-146.5 -351 -146.5 -601c0 -53.333 4 -100.666 12 -141.999s20.667 -78.666 38 -111.999l390 497zM1260 1565l91.998 -70l-88 -109l-88 -112
c32.667 -51.333 57.167 -109 73.5 -173s24.5 -135.333 24.5 -214c0 -124 -15.833 -242.667 -47.5 -356s-76.5 -213.333 -134.5 -300c-56.667 -84 -127.667 -149 -213 -195s-179 -69 -281 -69c-65.333 0 -125.833 9.66699 -181.5 29s-107.167 48.666 -154.5 87.999
l-78 -103.5l-96 -130.5l-92 70l67 83l130 159c-33.333 50.667 -58.5 109.167 -75.5 175.5s-25.5 140.166 -25.5 221.499c0 122.667 15.667 239.834 47 351.501s76.333 210.834 135 297.501c56.667 84 127.834 149.167 213.501 195.5s178.5 69.5 278.5 69.5
c66.667 0 127.834 -9.83301 183.501 -29.5s106.5 -49.5 152.5 -89.5l69 90.5z" />
    <glyph glyph-name="Ugrave" unicode="&#xd9;" horiz-adv-x="1366" 
d="M281 1442l188.001 0.00292969c-50 -255.333 -88.833 -476.833 -116.5 -664.5s-41.5 -321.834 -41.5 -402.501c0 -100.667 24.167 -175.334 72.5 -224.001s122.5 -73 222.5 -73c106 0 186.667 25.833 242 77.5s97 141.834 125 270.501c24.667 114 48.167 257.667 70.5 431
s42.5 368.333 60.5 585h184c-49.333 -202.667 -90.5 -422.834 -123.5 -660.501s-52.5 -369.834 -58.5 -396.501c-34.667 -148.667 -92.834 -255.5 -174.501 -320.5s-197.5 -97.5 -347.5 -97.5c-135.333 0 -237.833 33.833 -307.5 101.5s-104.5 167.167 -104.5 298.5
c0 49.333 16 192.833 48 430.5s52.333 452.5 61 644.5zM614.001 1866h176c28 -49.333 58.5 -95.5 91.5 -138.5s68.167 -82.167 105.5 -117.5l-68 -18c-59.333 35.333 -114.5 76 -165.5 122s-97.5 96.667 -139.5 152z" />
    <glyph glyph-name="Uacute" unicode="&#xda;" horiz-adv-x="1366" 
d="M281 1442l188.001 0.00292969c-50 -255.333 -88.833 -476.833 -116.5 -664.5s-41.5 -321.834 -41.5 -402.501c0 -100.667 24.167 -175.334 72.5 -224.001s122.5 -73 222.5 -73c106 0 186.667 25.833 242 77.5s97 141.834 125 270.501c24.667 114 48.167 257.667 70.5 431
s42.5 368.333 60.5 585h184c-49.333 -202.667 -90.5 -422.834 -123.5 -660.501s-52.5 -369.834 -58.5 -396.501c-34.667 -148.667 -92.834 -255.5 -174.501 -320.5s-197.5 -97.5 -347.5 -97.5c-135.333 0 -237.833 33.833 -307.5 101.5s-104.5 167.167 -104.5 298.5
c0 49.333 16 192.833 48 430.5s52.333 452.5 61 644.5zM903.001 1866l176.001 0.000976562c-60 -57.333 -122.167 -108.833 -186.5 -154.5s-129.833 -85.5 -196.5 -119.5l-61 18c46.667 35.333 92.167 74.166 136.5 116.499s88.166 88.833 131.499 139.5z" />
    <glyph glyph-name="Ucircumflex" unicode="&#xdb;" horiz-adv-x="1366" 
d="M281 1442l188.001 0.00292969c-50 -255.333 -88.833 -476.833 -116.5 -664.5s-41.5 -321.834 -41.5 -402.501c0 -100.667 24.167 -175.334 72.5 -224.001s122.5 -73 222.5 -73c106 0 186.667 25.833 242 77.5s97 141.834 125 270.501c24.667 114 48.167 257.667 70.5 431
s42.5 368.333 60.5 585h184c-49.333 -202.667 -90.5 -422.834 -123.5 -660.501s-52.5 -369.834 -58.5 -396.501c-34.667 -148.667 -92.834 -255.5 -174.501 -320.5s-197.5 -97.5 -347.5 -97.5c-135.333 0 -237.833 33.833 -307.5 101.5s-104.5 167.167 -104.5 298.5
c0 49.333 16 192.833 48 430.5s52.333 452.5 61 644.5zM803.001 1854h64.999c36 -43.333 72.833 -83.333 110.5 -120s76.5 -71 116.5 -103l-63 -48c-40 33.333 -78.167 62.166 -114.5 86.499s-71.833 44.833 -106.5 61.5c-40 -19.333 -81 -41.166 -123 -65.499
s-85.667 -51.833 -131 -82.5l-47 48c55.333 36 107.333 72.5 156 109.5s94.334 74.833 137.001 113.5z" />
    <glyph glyph-name="Udieresis" unicode="&#xdc;" horiz-adv-x="1366" 
d="M281 1442l188.001 0.00292969c-50 -255.333 -88.833 -476.833 -116.5 -664.5s-41.5 -321.834 -41.5 -402.501c0 -100.667 24.167 -175.334 72.5 -224.001s122.5 -73 222.5 -73c106 0 186.667 25.833 242 77.5s97 141.834 125 270.501c24.667 114 48.167 257.667 70.5 431
s42.5 368.333 60.5 585h184c-49.333 -202.667 -90.5 -422.834 -123.5 -660.501s-52.5 -369.834 -58.5 -396.501c-34.667 -148.667 -92.834 -255.5 -174.501 -320.5s-197.5 -97.5 -347.5 -97.5c-135.333 0 -237.833 33.833 -307.5 101.5s-104.5 167.167 -104.5 298.5
c0 49.333 16 192.833 48 430.5s52.333 452.5 61 644.5zM985.001 1819c24.667 0 44.834 -7.49805 60.501 -22.498s23.5 -34.833 23.5 -59.5c0 -27.333 -9.33301 -50.5 -28 -69.5s-41.334 -28.5 -68.001 -28.5c-24.667 0 -44.5 7.66699 -59.5 23s-22.5 35.666 -22.5 60.999
c0 27.333 9 50.166 27 68.499s40.333 27.5 67 27.5zM659.001 1819c25.333 0 45.668 -7.5 61.001 -22.5s23 -34.833 23 -59.5c0 -28 -9 -51.333 -27 -70s-40.333 -28 -67 -28c-24.667 0 -44.834 7.83301 -60.501 23.5s-23.5 35.834 -23.5 60.501c0 27.333 9 50.166 27 68.499
s40.333 27.5 67 27.5z" />
    <glyph glyph-name="Yacute" unicode="&#xdd;" 
d="M348 0c16.667 63.333 33.833 145.999 51.5 247.999s37.5 233 59.5 393c-90 231.333 -158.667 401.833 -206 511.5s-92.666 206.167 -135.999 289.5h198c10.667 -70 36.667 -163.167 78 -279.5s94.666 -246.5 159.999 -390.5c132.667 185.333 231.5 328.666 296.5 429.999
s109.5 181.333 133.5 240h180c-82.667 -104.667 -171.5 -224.167 -266.5 -358.5l-300.5 -442.5c-23.333 -153.333 -40.5 -281.666 -51.5 -384.999s-16.5 -188.666 -16.5 -255.999h-180zM761.999 1866l176.001 0.000976562c-60 -57.333 -122.167 -108.833 -186.5 -154.5
s-129.833 -85.5 -196.5 -119.5l-61 18c46.667 35.333 92.167 74.166 136.5 116.499s88.166 88.833 131.499 139.5z" />
    <glyph glyph-name="Thorn" unicode="&#xde;" 
d="M332 508c13.333 -0.666992 30.998 -1.33301 52.998 -2c40 -1.33301 66 -2 78 -2c144.667 0 252.167 28.5 322.5 85.5s105.5 144.5 105.5 262.5c0 90 -26.833 153.5 -80.5 190.5s-149.167 55.5 -286.5 55.5c-13.333 0 -39.666 -1 -78.999 -3
c-14 -0.666992 -24.333 -1 -31 -1c-14.667 -88 -28.667 -180.333 -42 -277s-26.666 -199.667 -39.999 -309zM298.998 1442l167.999 0.00292969l-8 -43c-15.333 -86 -26.333 -149.667 -33 -191c11.333 0.666992 23.5 1.16699 36.5 1.5s32.167 0.5 57.5 0.5
c182.667 0 313.667 -26.333 393 -79s119 -139 119 -259c0 -154.667 -48.333 -272.834 -145 -354.501s-237.334 -122.5 -422.001 -122.5c-36 0 -64.5 0.333008 -85.5 1s-41.167 1.66699 -60.5 3c-7.33301 -59.333 -14.166 -121.833 -20.499 -187.5
s-12.166 -136.167 -17.499 -211.5h-185c50 237.333 92 476.166 126 716.499s59.667 482.166 77 725.499z" />
    <glyph glyph-name="germandbls" unicode="&#xdf;" horiz-adv-x="1057" 
d="M653 786c88.667 -22 156.998 -64.3271 204.998 -126.994s72 -140.334 72 -233.001c0 -130.667 -39.667 -237 -119 -319s-181.666 -123 -306.999 -123c-40.667 0 -76.834 3.16699 -108.501 9.5s-59.167 16.166 -82.5 29.499l49 112
c24 -15.333 48.167 -26.666 72.5 -33.999s50.166 -11 77.499 -11c82.667 0 151.834 30.833 207.501 92.5s83.5 139.5 83.5 233.5c0 90 -25.667 161.167 -77 213.5s-124.666 82.166 -219.999 89.499l20 115c100 23.333 178.667 70.166 236 140.499s86 155.166 86 254.499
c0 71.333 -18 126.666 -54 165.999s-86.333 59 -151 59c-84.667 0 -152 -33.333 -202 -100s-87 -174 -111 -322c-17.333 -99.333 -37.333 -240 -60 -422s-45.667 -385.333 -69 -610h-156c36 186.667 72.333 422.167 109 706.5s68.667 467.166 96 548.499
c32 97.333 83.333 173 154 227s153 81 247 81c102.667 0 182.667 -28.167 240 -84.5s86 -134.166 86 -233.499c0 -106 -28.667 -199.833 -86 -281.5s-136.666 -140.834 -237.999 -177.501z" />
    <glyph glyph-name="agrave" unicode="&#xe0;" horiz-adv-x="948" 
d="M815 66l-22.0029 -68c-10 -2.66699 -20.167 -4.66699 -30.5 -6s-23.5 -2 -39.5 -2c-42.667 0 -76.834 9.66699 -102.501 29s-43.5 49.333 -53.5 90c-58 -42 -114 -73 -168 -93s-107.667 -30 -161 -30c-76 0 -135.667 19.667 -179 59s-65 93.333 -65 162
c0 127.333 56.833 229 170.5 305s271.834 117.667 474.501 125l6 25c4 18 7 36.167 9 54.5s3 36.833 3 55.5c0 55.333 -17.333 96.5 -52 123.5s-87.667 40.5 -159 40.5c-45.333 0 -88.666 -5.33301 -129.999 -16s-79.666 -26.667 -114.999 -48l16 134
c39.333 14 79.166 24.667 119.499 32s81.833 11 124.5 11c105.333 0 185.5 -21 240.5 -63s82.5 -103 82.5 -183c0 -39.333 -9.33301 -111.333 -28 -216c-5.33301 -30.667 -9.66602 -54.334 -12.999 -71.001c-22 -125.333 -36 -208.666 -42 -249.999s-9 -72 -9 -92
c0 -36 8.66699 -63.5 26 -82.5s43 -28.5 77 -28.5c1.33301 0 4.33301 0.5 9 1.5s8.33398 1.5 11.001 1.5zM625.997 551c-155.333 -3.33301 -277.666 -33.499 -366.999 -90.499s-134 -132.833 -134 -227.5c0 -44 13.333 -78.833 40 -104.5s63 -38.5 109 -38.5
c52 0 102 8.83301 150 26.5s96.333 45.167 145 82.5c8 65.333 16.667 127.166 26 185.499s19.666 113.833 30.999 166.5zM322.997 1452h176c28 -49.333 58.5 -95.5 91.5 -138.5s68.167 -82.167 105.5 -117.5l-68 -18c-59.333 35.333 -114.5 76 -165.5 122
s-97.5 96.667 -139.5 152z" />
    <glyph glyph-name="aacute" unicode="&#xe1;" horiz-adv-x="948" 
d="M815 66l-22.0029 -68c-10 -2.66699 -20.167 -4.66699 -30.5 -6s-23.5 -2 -39.5 -2c-42.667 0 -76.834 9.66699 -102.501 29s-43.5 49.333 -53.5 90c-58 -42 -114 -73 -168 -93s-107.667 -30 -161 -30c-76 0 -135.667 19.667 -179 59s-65 93.333 -65 162
c0 127.333 56.833 229 170.5 305s271.834 117.667 474.501 125l6 25c4 18 7 36.167 9 54.5s3 36.833 3 55.5c0 55.333 -17.333 96.5 -52 123.5s-87.667 40.5 -159 40.5c-45.333 0 -88.666 -5.33301 -129.999 -16s-79.666 -26.667 -114.999 -48l16 134
c39.333 14 79.166 24.667 119.499 32s81.833 11 124.5 11c105.333 0 185.5 -21 240.5 -63s82.5 -103 82.5 -183c0 -39.333 -9.33301 -111.333 -28 -216c-5.33301 -30.667 -9.66602 -54.334 -12.999 -71.001c-22 -125.333 -36 -208.666 -42 -249.999s-9 -72 -9 -92
c0 -36 8.66699 -63.5 26 -82.5s43 -28.5 77 -28.5c1.33301 0 4.33301 0.5 9 1.5s8.33398 1.5 11.001 1.5zM625.997 551c-155.333 -3.33301 -277.666 -33.499 -366.999 -90.499s-134 -132.833 -134 -227.5c0 -44 13.333 -78.833 40 -104.5s63 -38.5 109 -38.5
c52 0 102 8.83301 150 26.5s96.333 45.167 145 82.5c8 65.333 16.667 127.166 26 185.499s19.666 113.833 30.999 166.5zM611.997 1452l176.001 0.000976562c-60 -57.333 -122.167 -108.833 -186.5 -154.5s-129.833 -85.5 -196.5 -119.5l-61 18
c46.667 35.333 92.167 74.166 136.5 116.499s88.166 88.833 131.499 139.5z" />
    <glyph glyph-name="acircumflex" unicode="&#xe2;" horiz-adv-x="948" 
d="M815 66l-22.0029 -68c-10 -2.66699 -20.167 -4.66699 -30.5 -6s-23.5 -2 -39.5 -2c-42.667 0 -76.834 9.66699 -102.501 29s-43.5 49.333 -53.5 90c-58 -42 -114 -73 -168 -93s-107.667 -30 -161 -30c-76 0 -135.667 19.667 -179 59s-65 93.333 -65 162
c0 127.333 56.833 229 170.5 305s271.834 117.667 474.501 125l6 25c4 18 7 36.167 9 54.5s3 36.833 3 55.5c0 55.333 -17.333 96.5 -52 123.5s-87.667 40.5 -159 40.5c-45.333 0 -88.666 -5.33301 -129.999 -16s-79.666 -26.667 -114.999 -48l16 134
c39.333 14 79.166 24.667 119.499 32s81.833 11 124.5 11c105.333 0 185.5 -21 240.5 -63s82.5 -103 82.5 -183c0 -39.333 -9.33301 -111.333 -28 -216c-5.33301 -30.667 -9.66602 -54.334 -12.999 -71.001c-22 -125.333 -36 -208.666 -42 -249.999s-9 -72 -9 -92
c0 -36 8.66699 -63.5 26 -82.5s43 -28.5 77 -28.5c1.33301 0 4.33301 0.5 9 1.5s8.33398 1.5 11.001 1.5zM625.997 551c-155.333 -3.33301 -277.666 -33.499 -366.999 -90.499s-134 -132.833 -134 -227.5c0 -44 13.333 -78.833 40 -104.5s63 -38.5 109 -38.5
c52 0 102 8.83301 150 26.5s96.333 45.167 145 82.5c8 65.333 16.667 127.166 26 185.499s19.666 113.833 30.999 166.5zM511.997 1440h64.999c36 -43.333 72.833 -83.333 110.5 -120s76.5 -71 116.5 -103l-63 -48c-40 33.333 -78.167 62.166 -114.5 86.499
s-71.833 44.833 -106.5 61.5c-40 -19.333 -81 -41.166 -123 -65.499s-85.667 -51.833 -131 -82.5l-47 48c55.333 36 107.333 72.5 156 109.5s94.334 74.833 137.001 113.5z" />
    <glyph glyph-name="atilde" unicode="&#xe3;" horiz-adv-x="948" 
d="M815 66l-22.0029 -68c-10 -2.66699 -20.167 -4.66699 -30.5 -6s-23.5 -2 -39.5 -2c-42.667 0 -76.834 9.66699 -102.501 29s-43.5 49.333 -53.5 90c-58 -42 -114 -73 -168 -93s-107.667 -30 -161 -30c-76 0 -135.667 19.667 -179 59s-65 93.333 -65 162
c0 127.333 56.833 229 170.5 305s271.834 117.667 474.501 125l6 25c4 18 7 36.167 9 54.5s3 36.833 3 55.5c0 55.333 -17.333 96.5 -52 123.5s-87.667 40.5 -159 40.5c-45.333 0 -88.666 -5.33301 -129.999 -16s-79.666 -26.667 -114.999 -48l16 134
c39.333 14 79.166 24.667 119.499 32s81.833 11 124.5 11c105.333 0 185.5 -21 240.5 -63s82.5 -103 82.5 -183c0 -39.333 -9.33301 -111.333 -28 -216c-5.33301 -30.667 -9.66602 -54.334 -12.999 -71.001c-22 -125.333 -36 -208.666 -42 -249.999s-9 -72 -9 -92
c0 -36 8.66699 -63.5 26 -82.5s43 -28.5 77 -28.5c1.33301 0 4.33301 0.5 9 1.5s8.33398 1.5 11.001 1.5zM625.997 551c-155.333 -3.33301 -277.666 -33.499 -366.999 -90.499s-134 -132.833 -134 -227.5c0 -44 13.333 -78.833 40 -104.5s63 -38.5 109 -38.5
c52 0 102 8.83301 150 26.5s96.333 45.167 145 82.5c8 65.333 16.667 127.166 26 185.499s19.666 113.833 30.999 166.5zM793.997 1382l36.998 -26c-22.667 -45.333 -49.5 -78.833 -80.5 -100.5s-66.833 -32.5 -107.5 -32.5c-26.667 0 -68.167 9.5 -124.5 28.5
s-99.5 28.5 -129.5 28.5c-25.333 0 -49.5 -5 -72.5 -15s-45.5 -25.333 -67.5 -46l-34 28c20 43.333 46 76.333 78 99s68 34 108 34c24 0 63.833 -9.5 119.5 -28.5s99.834 -28.5 132.501 -28.5c26 0 50.833 5 74.5 15s45.834 24.667 66.501 44z" />
    <glyph glyph-name="adieresis" unicode="&#xe4;" horiz-adv-x="948" 
d="M815 66l-22.0029 -68c-10 -2.66699 -20.167 -4.66699 -30.5 -6s-23.5 -2 -39.5 -2c-42.667 0 -76.834 9.66699 -102.501 29s-43.5 49.333 -53.5 90c-58 -42 -114 -73 -168 -93s-107.667 -30 -161 -30c-76 0 -135.667 19.667 -179 59s-65 93.333 -65 162
c0 127.333 56.833 229 170.5 305s271.834 117.667 474.501 125l6 25c4 18 7 36.167 9 54.5s3 36.833 3 55.5c0 55.333 -17.333 96.5 -52 123.5s-87.667 40.5 -159 40.5c-45.333 0 -88.666 -5.33301 -129.999 -16s-79.666 -26.667 -114.999 -48l16 134
c39.333 14 79.166 24.667 119.499 32s81.833 11 124.5 11c105.333 0 185.5 -21 240.5 -63s82.5 -103 82.5 -183c0 -39.333 -9.33301 -111.333 -28 -216c-5.33301 -30.667 -9.66602 -54.334 -12.999 -71.001c-22 -125.333 -36 -208.666 -42 -249.999s-9 -72 -9 -92
c0 -36 8.66699 -63.5 26 -82.5s43 -28.5 77 -28.5c1.33301 0 4.33301 0.5 9 1.5s8.33398 1.5 11.001 1.5zM625.997 551c-155.333 -3.33301 -277.666 -33.499 -366.999 -90.499s-134 -132.833 -134 -227.5c0 -44 13.333 -78.833 40 -104.5s63 -38.5 109 -38.5
c52 0 102 8.83301 150 26.5s96.333 45.167 145 82.5c8 65.333 16.667 127.166 26 185.499s19.666 113.833 30.999 166.5zM693.997 1405c24.667 0 44.834 -7.49805 60.501 -22.498s23.5 -34.833 23.5 -59.5c0 -27.333 -9.33301 -50.5 -28 -69.5s-41.334 -28.5 -68.001 -28.5
c-24.667 0 -44.5 7.66699 -59.5 23s-22.5 35.666 -22.5 60.999c0 27.333 9 50.166 27 68.499s40.333 27.5 67 27.5zM367.997 1405c25.333 0 45.668 -7.5 61.001 -22.5s23 -34.833 23 -59.5c0 -28 -9 -51.333 -27 -70s-40.333 -28 -67 -28
c-24.667 0 -44.834 7.83301 -60.501 23.5s-23.5 35.834 -23.5 60.501c0 27.333 9 50.166 27 68.499s40.333 27.5 67 27.5z" />
    <glyph glyph-name="aring" unicode="&#xe5;" horiz-adv-x="948" 
d="M815 66l-22.0029 -68c-10 -2.66699 -20.167 -4.66699 -30.5 -6s-23.5 -2 -39.5 -2c-42.667 0 -76.834 9.66699 -102.501 29s-43.5 49.333 -53.5 90c-58 -42 -114 -73 -168 -93s-107.667 -30 -161 -30c-76 0 -135.667 19.667 -179 59s-65 93.333 -65 162
c0 127.333 56.833 229 170.5 305s271.834 117.667 474.501 125l6 25c4 18 7 36.167 9 54.5s3 36.833 3 55.5c0 55.333 -17.333 96.5 -52 123.5s-87.667 40.5 -159 40.5c-45.333 0 -88.666 -5.33301 -129.999 -16s-79.666 -26.667 -114.999 -48l16 134
c39.333 14 79.166 24.667 119.499 32s81.833 11 124.5 11c105.333 0 185.5 -21 240.5 -63s82.5 -103 82.5 -183c0 -39.333 -9.33301 -111.333 -28 -216c-5.33301 -30.667 -9.66602 -54.334 -12.999 -71.001c-22 -125.333 -36 -208.666 -42 -249.999s-9 -72 -9 -92
c0 -36 8.66699 -63.5 26 -82.5s43 -28.5 77 -28.5c1.33301 0 4.33301 0.5 9 1.5s8.33398 1.5 11.001 1.5zM625.997 551c-155.333 -3.33301 -277.666 -33.499 -366.999 -90.499s-134 -132.833 -134 -227.5c0 -44 13.333 -78.833 40 -104.5s63 -38.5 109 -38.5
c52 0 102 8.83301 150 26.5s96.333 45.167 145 82.5c8 65.333 16.667 127.166 26 185.499s19.666 113.833 30.999 166.5zM556.997 1489c-36 0 -66.168 -12.167 -90.501 -36.5s-36.5 -54.5 -36.5 -90.5s12.333 -66.5 37 -91.5s54.667 -37.5 90 -37.5
c36.667 0 67.334 12.5 92.001 37.5s37 55.5 37 91.5c0 35.333 -12.5 65.333 -37.5 90s-55.5 37 -91.5 37zM556.996 1561c56 0 103.501 -19.498 142.501 -58.498s58.5 -86.5 58.5 -142.5c0 -56.667 -19.333 -104.334 -58 -143.001s-86.334 -58 -143.001 -58
c-57.333 0 -105.5 19.167 -144.5 57.5s-58.5 86.166 -58.5 143.499c0 56 19.667 103.5 59 142.5s87.333 58.5 144 58.5z" />
    <glyph glyph-name="ae" unicode="&#xe6;" horiz-adv-x="1503" 
d="M618 504c-158 -3.33301 -279.667 -28.667 -365 -76s-128 -113.666 -128 -198.999c0 -42.667 13.333 -76.5 40 -101.5s63 -37.5 109 -37.5c58.667 0 116 11.833 172 35.5s115 61.167 177 112.5c-4.66699 23.333 -8 46.666 -10 69.999s-3 46.333 -3 69
c0 20.667 0.666992 41.5 2 62.5s3.33301 42.5 6 64.5zM1397 505.999l-647 -0.00292969c-2 -22 -3.66699 -42.667 -5 -62s-2 -36.333 -2 -51c0 -106.667 21.333 -186.834 64 -240.501s106.667 -80.5 192 -80.5c48.667 0 95 5.83301 139 17.5s87.333 29.5 130 53.5l-13 -110
c-42 -22 -87 -38.5 -135 -49.5s-98.333 -16.5 -151 -16.5c-72.667 0 -136.667 16 -192 48s-99.333 78.333 -132 139c-71.333 -56 -140.666 -98 -207.999 -126s-133 -42 -197 -42c-76.667 0 -137.167 19.833 -181.5 59.5s-66.5 93.5 -66.5 161.5
c0 122 55.167 217.167 165.5 285.5s268.833 105.833 475.5 112.5l8 57c3.33301 22.667 5.83301 42 7.5 58s2.5 29.333 2.5 40c0 62 -16.333 106.833 -49 134.5s-86 41.5 -160 41.5c-44 0 -86.667 -5.33301 -128 -16s-79.666 -26.667 -114.999 -48l16 134
c39.333 14 79.166 24.667 119.499 32s81.833 11 124.5 11c79.333 0 142.666 -11.667 189.999 -35s82.333 -59.666 105 -108.999c41.333 50.667 88.5 88.667 141.5 114s112.167 38 177.5 38c108 0 191.667 -33.167 251 -99.5s89 -160.166 89 -281.499
c0 -25.333 -1.33301 -52.166 -4 -80.499s-6.66699 -58.166 -12 -89.499zM1282 603.996c2.66699 16.667 4.66699 33.167 6 49.5s2 32.5 2 48.5c0 80.667 -18.333 142.167 -55 184.5s-90 63.5 -160 63.5c-80.667 0 -147.5 -29.167 -200.5 -87.5s-90.5 -144.5 -112.5 -258.5
h520z" />
    <glyph glyph-name="ccedilla" unicode="&#xe7;" horiz-adv-x="834" 
d="M766 1020l-17.9971 -113c-26.667 14.667 -54.334 25.5 -83.001 32.5s-57.667 10.5 -87 10.5c-117.333 0 -211.666 -49.167 -282.999 -147.5s-107 -228.5 -107 -390.5c0 -111.333 23.333 -195.166 70 -251.499s115.667 -84.5 207 -84.5c35.333 0 71.166 4.5 107.499 13.5
s74.166 22.833 113.499 41.5l-37 -121c-37.333 -14.667 -73 -25.5 -107 -32.5s-67.333 -10.5 -100 -10.5c-122.667 0 -217.834 35.833 -285.501 107.5s-101.5 173.167 -101.5 304.5c0 201.333 48.333 364.666 145 489.999s221.667 188 375 188
c34 0 66.833 -3.16699 98.5 -9.5s62.5 -15.5 92.5 -27.5zM454.003 -156l132.998 -40.999c-49.333 -48 -101.5 -91.333 -156.5 -130s-112.5 -72.334 -172.5 -101.001l-84 33c52.667 30.667 102.334 66 149.001 106s90.334 84.333 131.001 133z" />
    <glyph glyph-name="egrave" unicode="&#xe8;" horiz-adv-x="948" 
d="M842 506l-647 -0.00292969c-2 -15.333 -3.33301 -31.333 -4 -48s-1 -38.334 -1 -65.001c0 -107.333 21.167 -187.666 63.5 -240.999s105.833 -80 190.5 -80c48.667 0 95 5.83301 139 17.5s87.333 29.5 130 53.5l-13 -110c-43.333 -22 -87.833 -38.5 -133.5 -49.5
s-91.834 -16.5 -138.501 -16.5c-120 0 -212.5 38 -277.5 114s-97.5 184.333 -97.5 325c0 192.667 43.833 349.334 131.5 470.001s200.834 181 339.501 181c105.333 0 187.333 -33.5 246 -100.5s88 -160.5 88 -280.5c0 -25.333 -1.33301 -52.166 -4 -80.499
s-6.66699 -58.166 -12 -89.499zM727 603.997c2.66699 16.667 4.66699 33.167 6 49.5s2 32.5 2 48.5c0 80.667 -18.333 142.167 -55 184.5s-90 63.5 -160 63.5c-80.667 0 -147.5 -29.167 -200.5 -87.5s-90.5 -144.5 -112.5 -258.5h520zM336 1452h176
c28 -49.333 58.5 -95.5 91.5 -138.5s68.167 -82.167 105.5 -117.5l-68 -18c-59.333 35.333 -114.5 76 -165.5 122s-97.5 96.667 -139.5 152z" />
    <glyph glyph-name="eacute" unicode="&#xe9;" horiz-adv-x="948" 
d="M842 506l-647 -0.00292969c-2 -15.333 -3.33301 -31.333 -4 -48s-1 -38.334 -1 -65.001c0 -107.333 21.167 -187.666 63.5 -240.999s105.833 -80 190.5 -80c48.667 0 95 5.83301 139 17.5s87.333 29.5 130 53.5l-13 -110c-43.333 -22 -87.833 -38.5 -133.5 -49.5
s-91.834 -16.5 -138.501 -16.5c-120 0 -212.5 38 -277.5 114s-97.5 184.333 -97.5 325c0 192.667 43.833 349.334 131.5 470.001s200.834 181 339.501 181c105.333 0 187.333 -33.5 246 -100.5s88 -160.5 88 -280.5c0 -25.333 -1.33301 -52.166 -4 -80.499
s-6.66699 -58.166 -12 -89.499zM727 603.997c2.66699 16.667 4.66699 33.167 6 49.5s2 32.5 2 48.5c0 80.667 -18.333 142.167 -55 184.5s-90 63.5 -160 63.5c-80.667 0 -147.5 -29.167 -200.5 -87.5s-90.5 -144.5 -112.5 -258.5h520zM625 1452l176.001 0.000976562
c-60 -57.333 -122.167 -108.833 -186.5 -154.5s-129.833 -85.5 -196.5 -119.5l-61 18c46.667 35.333 92.167 74.166 136.5 116.499s88.166 88.833 131.499 139.5z" />
    <glyph glyph-name="ecircumflex" unicode="&#xea;" horiz-adv-x="948" 
d="M842 506l-647 -0.00292969c-2 -15.333 -3.33301 -31.333 -4 -48s-1 -38.334 -1 -65.001c0 -107.333 21.167 -187.666 63.5 -240.999s105.833 -80 190.5 -80c48.667 0 95 5.83301 139 17.5s87.333 29.5 130 53.5l-13 -110c-43.333 -22 -87.833 -38.5 -133.5 -49.5
s-91.834 -16.5 -138.501 -16.5c-120 0 -212.5 38 -277.5 114s-97.5 184.333 -97.5 325c0 192.667 43.833 349.334 131.5 470.001s200.834 181 339.501 181c105.333 0 187.333 -33.5 246 -100.5s88 -160.5 88 -280.5c0 -25.333 -1.33301 -52.166 -4 -80.499
s-6.66699 -58.166 -12 -89.499zM727 603.997c2.66699 16.667 4.66699 33.167 6 49.5s2 32.5 2 48.5c0 80.667 -18.333 142.167 -55 184.5s-90 63.5 -160 63.5c-80.667 0 -147.5 -29.167 -200.5 -87.5s-90.5 -144.5 -112.5 -258.5h520zM525 1440h64.999
c36 -43.333 72.833 -83.333 110.5 -120s76.5 -71 116.5 -103l-63 -48c-40 33.333 -78.167 62.166 -114.5 86.499s-71.833 44.833 -106.5 61.5c-40 -19.333 -81 -41.166 -123 -65.499s-85.667 -51.833 -131 -82.5l-47 48c55.333 36 107.333 72.5 156 109.5
s94.334 74.833 137.001 113.5z" />
    <glyph glyph-name="edieresis" unicode="&#xeb;" horiz-adv-x="948" 
d="M842 506l-647 -0.00292969c-2 -15.333 -3.33301 -31.333 -4 -48s-1 -38.334 -1 -65.001c0 -107.333 21.167 -187.666 63.5 -240.999s105.833 -80 190.5 -80c48.667 0 95 5.83301 139 17.5s87.333 29.5 130 53.5l-13 -110c-43.333 -22 -87.833 -38.5 -133.5 -49.5
s-91.834 -16.5 -138.501 -16.5c-120 0 -212.5 38 -277.5 114s-97.5 184.333 -97.5 325c0 192.667 43.833 349.334 131.5 470.001s200.834 181 339.501 181c105.333 0 187.333 -33.5 246 -100.5s88 -160.5 88 -280.5c0 -25.333 -1.33301 -52.166 -4 -80.499
s-6.66699 -58.166 -12 -89.499zM727 603.997c2.66699 16.667 4.66699 33.167 6 49.5s2 32.5 2 48.5c0 80.667 -18.333 142.167 -55 184.5s-90 63.5 -160 63.5c-80.667 0 -147.5 -29.167 -200.5 -87.5s-90.5 -144.5 -112.5 -258.5h520zM707 1405
c24.667 0 44.834 -7.49805 60.501 -22.498s23.5 -34.833 23.5 -59.5c0 -27.333 -9.33301 -50.5 -28 -69.5s-41.334 -28.5 -68.001 -28.5c-24.667 0 -44.5 7.66699 -59.5 23s-22.5 35.666 -22.5 60.999c0 27.333 9 50.166 27 68.499s40.333 27.5 67 27.5zM381 1405
c25.333 0 45.668 -7.5 61.001 -22.5s23 -34.833 23 -59.5c0 -28 -9 -51.333 -27 -70s-40.333 -28 -67 -28c-24.667 0 -44.834 7.83301 -60.501 23.5s-23.5 35.834 -23.5 60.501c0 27.333 9 50.166 27 68.499s40.333 27.5 67 27.5z" />
    <glyph glyph-name="igrave" unicode="&#xec;" horiz-adv-x="455" 
d="M346 1036c-30.667 -138.667 -58 -295.001 -82 -469.001s-44.333 -363 -61 -567h-162c42 224.667 74.667 426.834 98 606.501s35 313.5 35 401.5v12c36 1.33301 67.833 3.33301 95.5 6s53.167 6 76.5 10zM108 1452h176c28 -49.333 58.5 -95.5 91.5 -138.5
s68.167 -82.167 105.5 -117.5l-68 -18c-59.333 35.333 -114.5 76 -165.5 122s-97.5 96.667 -139.5 152z" />
    <glyph glyph-name="iacute" unicode="&#xed;" horiz-adv-x="455" 
d="M346 1036c-30.667 -138.667 -58 -295.001 -82 -469.001s-44.333 -363 -61 -567h-162c42 224.667 74.667 426.834 98 606.501s35 313.5 35 401.5v12c36 1.33301 67.833 3.33301 95.5 6s53.167 6 76.5 10zM397 1452l176.001 0.000976562
c-60 -57.333 -122.167 -108.833 -186.5 -154.5s-129.833 -85.5 -196.5 -119.5l-61 18c46.667 35.333 92.167 74.166 136.5 116.499s88.166 88.833 131.499 139.5z" />
    <glyph glyph-name="icircumflex" unicode="&#xee;" horiz-adv-x="455" 
d="M346 1036c-30.667 -138.667 -58 -295.001 -82 -469.001s-44.333 -363 -61 -567h-162c42 224.667 74.667 426.834 98 606.501s35 313.5 35 401.5v12c36 1.33301 67.833 3.33301 95.5 6s53.167 6 76.5 10zM297 1440h64.999c36 -43.333 72.833 -83.333 110.5 -120
s76.5 -71 116.5 -103l-63 -48c-40 33.333 -78.167 62.166 -114.5 86.499s-71.833 44.833 -106.5 61.5c-40 -19.333 -81 -41.166 -123 -65.499s-85.667 -51.833 -131 -82.5l-47 48c55.333 36 107.333 72.5 156 109.5s94.334 74.833 137.001 113.5z" />
    <glyph glyph-name="idieresis" unicode="&#xef;" horiz-adv-x="455" 
d="M346 1036c-30.667 -138.667 -58 -295.001 -82 -469.001s-44.333 -363 -61 -567h-162c42 224.667 74.667 426.834 98 606.501s35 313.5 35 401.5v12c36 1.33301 67.833 3.33301 95.5 6s53.167 6 76.5 10zM479 1405c24.667 0 44.834 -7.49805 60.501 -22.498
s23.5 -34.833 23.5 -59.5c0 -27.333 -9.33301 -50.5 -28 -69.5s-41.334 -28.5 -68.001 -28.5c-24.667 0 -44.5 7.66699 -59.5 23s-22.5 35.666 -22.5 60.999c0 27.333 9 50.166 27 68.499s40.333 27.5 67 27.5zM153 1405c25.333 0 45.668 -7.5 61.001 -22.5
s23 -34.833 23 -59.5c0 -28 -9 -51.333 -27 -70s-40.333 -28 -67 -28c-24.667 0 -44.834 7.83301 -60.501 23.5s-23.5 35.834 -23.5 60.501c0 27.333 9 50.166 27 68.499s40.333 27.5 67 27.5z" />
    <glyph glyph-name="eth" unicode="&#xf0;" 
d="M549 930c-110.667 0 -197.333 -47.833 -260 -143.5s-94 -227.5 -94 -395.5c0 -101.333 23 -179.5 69 -234.5s111 -82.5 195 -82.5c110 0 196.167 48 258.5 144s93.5 229.333 93.5 400c0 100 -22.833 177 -68.5 231s-110.167 81 -193.5 81zM475.001 1565
c9.33301 0 22.334 -0.332031 39.001 -0.999023s29 -1 37 -1s20.167 0.333008 36.5 1s28.833 1 37.5 1c12 -28.667 33 -74 63 -136c7.33301 -15.333 13 -26.666 17 -33.999l282 104l35 -90l-274 -104c70.667 -141.333 122.334 -266.5 155.001 -375.5s49 -210.5 49 -304.5
c0 -203.333 -45.833 -363.833 -137.5 -481.5s-216.5 -176.5 -374.5 -176.5c-121.333 0 -216.166 36.833 -284.499 110.5s-102.5 176.167 -102.5 307.5c0 195.333 45.667 352.666 137 471.999s211.666 179 360.999 179c44 0 83.333 -4.83301 118 -14.5
s63.667 -23.834 87 -42.501c-17.333 46 -36.333 92.333 -57 139s-43.334 94.667 -68.001 144l-346 -127l-35 90l336 123l-61 124.5c-16.667 33 -33.334 63.833 -50.001 92.5z" />
    <glyph glyph-name="ntilde" unicode="&#xf1;" 
d="M809 0l-166 -0.000976562c41.333 201.333 72.833 368.833 94.5 502.5s32.5 226.834 32.5 279.501s-10.833 92.167 -32.5 118.5s-54.5 39.5 -98.5 39.5c-38 0 -82.833 -8.66699 -134.5 -26s-114.167 -45 -187.5 -83c-18.667 -107.333 -36.334 -228.333 -53.001 -363
s-33.667 -290.667 -51 -468h-166c46 220 80.667 414 104 582s35 308.667 35 422l1 28c3.33301 -0.666992 6.83301 -1.16699 10.5 -1.5s9.5 -0.5 17.5 -0.5c10.667 0 22 0.833008 34 2.5s25.333 4.16699 40 7.5l26 -127c100 53.333 178.667 90.666 236 111.999s105 32 143 32
c68 0 120.167 -20.167 156.5 -60.5s54.5 -98.166 54.5 -173.499c0 -32 -13.167 -138.833 -39.5 -320.5s-45.166 -349.167 -56.499 -502.5zM860 1382l36.998 -26c-22.667 -45.333 -49.5 -78.833 -80.5 -100.5s-66.833 -32.5 -107.5 -32.5c-26.667 0 -68.167 9.5 -124.5 28.5
s-99.5 28.5 -129.5 28.5c-25.333 0 -49.5 -5 -72.5 -15s-45.5 -25.333 -67.5 -46l-34 28c20 43.333 46 76.333 78 99s68 34 108 34c24 0 63.833 -9.5 119.5 -28.5s99.834 -28.5 132.501 -28.5c26 0 50.833 5 74.5 15s45.834 24.667 66.501 44z" />
    <glyph glyph-name="ograve" unicode="&#xf2;" 
d="M549 950c-110 0 -196.501 -48.832 -259.501 -146.499s-94.5 -232.5 -94.5 -404.5c0 -103.333 22.833 -183 68.5 -239s110.834 -84 195.501 -84c110.667 0 197 48.667 259 146s93 233.666 93 408.999c0 101.333 -22.833 179.833 -68.5 235.5s-110.167 83.5 -193.5 83.5z
M562.999 1059c121.333 0 216.166 -38.333 284.499 -115s102.5 -183 102.5 -319c0 -202 -46 -362.5 -138 -481.5s-216 -178.5 -372 -178.5c-121.333 0 -216.166 37.667 -284.499 113s-102.5 180.333 -102.5 315c0 204 46 366 138 486s216 180 372 180zM412.999 1452h176
c28 -49.333 58.5 -95.5 91.5 -138.5s68.167 -82.167 105.5 -117.5l-68 -18c-59.333 35.333 -114.5 76 -165.5 122s-97.5 96.667 -139.5 152z" />
    <glyph glyph-name="oacute" unicode="&#xf3;" 
d="M549 950c-110 0 -196.501 -48.832 -259.501 -146.499s-94.5 -232.5 -94.5 -404.5c0 -103.333 22.833 -183 68.5 -239s110.834 -84 195.501 -84c110.667 0 197 48.667 259 146s93 233.666 93 408.999c0 101.333 -22.833 179.833 -68.5 235.5s-110.167 83.5 -193.5 83.5z
M562.999 1059c121.333 0 216.166 -38.333 284.499 -115s102.5 -183 102.5 -319c0 -202 -46 -362.5 -138 -481.5s-216 -178.5 -372 -178.5c-121.333 0 -216.166 37.667 -284.499 113s-102.5 180.333 -102.5 315c0 204 46 366 138 486s216 180 372 180zM701.999 1452
l176.001 0.000976562c-60 -57.333 -122.167 -108.833 -186.5 -154.5s-129.833 -85.5 -196.5 -119.5l-61 18c46.667 35.333 92.167 74.166 136.5 116.499s88.166 88.833 131.499 139.5z" />
    <glyph glyph-name="ocircumflex" unicode="&#xf4;" 
d="M549 950c-110 0 -196.501 -48.832 -259.501 -146.499s-94.5 -232.5 -94.5 -404.5c0 -103.333 22.833 -183 68.5 -239s110.834 -84 195.501 -84c110.667 0 197 48.667 259 146s93 233.666 93 408.999c0 101.333 -22.833 179.833 -68.5 235.5s-110.167 83.5 -193.5 83.5z
M562.999 1059c121.333 0 216.166 -38.333 284.499 -115s102.5 -183 102.5 -319c0 -202 -46 -362.5 -138 -481.5s-216 -178.5 -372 -178.5c-121.333 0 -216.166 37.667 -284.499 113s-102.5 180.333 -102.5 315c0 204 46 366 138 486s216 180 372 180zM601.999 1440h64.999
c36 -43.333 72.833 -83.333 110.5 -120s76.5 -71 116.5 -103l-63 -48c-40 33.333 -78.167 62.166 -114.5 86.499s-71.833 44.833 -106.5 61.5c-40 -19.333 -81 -41.166 -123 -65.499s-85.667 -51.833 -131 -82.5l-47 48c55.333 36 107.333 72.5 156 109.5
s94.334 74.833 137.001 113.5z" />
    <glyph glyph-name="otilde" unicode="&#xf5;" 
d="M549 950c-110 0 -196.501 -48.832 -259.501 -146.499s-94.5 -232.5 -94.5 -404.5c0 -103.333 22.833 -183 68.5 -239s110.834 -84 195.501 -84c110.667 0 197 48.667 259 146s93 233.666 93 408.999c0 101.333 -22.833 179.833 -68.5 235.5s-110.167 83.5 -193.5 83.5z
M562.999 1059c121.333 0 216.166 -38.333 284.499 -115s102.5 -183 102.5 -319c0 -202 -46 -362.5 -138 -481.5s-216 -178.5 -372 -178.5c-121.333 0 -216.166 37.667 -284.499 113s-102.5 180.333 -102.5 315c0 204 46 366 138 486s216 180 372 180zM883.999 1382
l36.998 -26c-22.667 -45.333 -49.5 -78.833 -80.5 -100.5s-66.833 -32.5 -107.5 -32.5c-26.667 0 -68.167 9.5 -124.5 28.5s-99.5 28.5 -129.5 28.5c-25.333 0 -49.5 -5 -72.5 -15s-45.5 -25.333 -67.5 -46l-34 28c20 43.333 46 76.333 78 99s68 34 108 34
c24 0 63.833 -9.5 119.5 -28.5s99.834 -28.5 132.501 -28.5c26 0 50.833 5 74.5 15s45.834 24.667 66.501 44z" />
    <glyph glyph-name="odieresis" unicode="&#xf6;" 
d="M549 950c-110 0 -196.501 -48.832 -259.501 -146.499s-94.5 -232.5 -94.5 -404.5c0 -103.333 22.833 -183 68.5 -239s110.834 -84 195.501 -84c110.667 0 197 48.667 259 146s93 233.666 93 408.999c0 101.333 -22.833 179.833 -68.5 235.5s-110.167 83.5 -193.5 83.5z
M562.999 1059c121.333 0 216.166 -38.333 284.499 -115s102.5 -183 102.5 -319c0 -202 -46 -362.5 -138 -481.5s-216 -178.5 -372 -178.5c-121.333 0 -216.166 37.667 -284.499 113s-102.5 180.333 -102.5 315c0 204 46 366 138 486s216 180 372 180zM783.999 1405
c24.667 0 44.834 -7.49805 60.501 -22.498s23.5 -34.833 23.5 -59.5c0 -27.333 -9.33301 -50.5 -28 -69.5s-41.334 -28.5 -68.001 -28.5c-24.667 0 -44.5 7.66699 -59.5 23s-22.5 35.666 -22.5 60.999c0 27.333 9 50.166 27 68.499s40.333 27.5 67 27.5zM457.999 1405
c25.333 0 45.668 -7.5 61.001 -22.5s23 -34.833 23 -59.5c0 -28 -9 -51.333 -27 -70s-40.333 -28 -67 -28c-24.667 0 -44.834 7.83301 -60.501 23.5s-23.5 35.834 -23.5 60.501c0 27.333 9 50.166 27 68.499s40.333 27.5 67 27.5z" />
    <glyph glyph-name="divide" unicode="&#xf7;" horiz-adv-x="1896" 
d="M948 365c31.333 0 58.3311 -11.333 80.998 -34s34 -49.667 34 -81c0 -30.667 -11.167 -57.5 -33.5 -80.5s-49.5 -34.5 -81.5 -34.5c-31.333 0 -58.166 11.167 -80.499 33.5s-33.5 49.5 -33.5 81.5c0 31.333 11.333 58.333 34 81s49.334 34 80.001 34zM347.998 670h1200
v-117h-1200v117zM947.998 1085c32 0 59.166 -11.167 81.499 -33.5s33.5 -49.166 33.5 -80.499s-11.167 -58.333 -33.5 -81s-49.5 -34 -81.5 -34s-59 11.167 -81 33.5s-33 49.5 -33 81.5c0 31.333 11.333 58.166 34 80.499s49.334 33.5 80.001 33.5z" />
    <glyph glyph-name="oslash" unicode="&#xf8;" 
d="M788 801l-249 -314.498l-265 -349.5c26 -22 54.5 -38.333 85.5 -49s64.167 -16 99.5 -16c113.333 0 201.333 49.167 264 147.5s94 236.166 94 413.499c0 32 -2.33301 62.167 -7 90.5s-12 54.166 -22 77.499zM735 889.002c-24 22 -51.332 38.333 -81.999 49
s-65.334 16 -104.001 16c-112.667 0 -201 -49.167 -265 -147.5s-96 -234.833 -96 -409.5c0 -36 2.66699 -68.667 8 -98s13.333 -54.333 24 -75l243 309.5zM954.001 1186l83.999 -66.001l-78.5 -99l-87.5 -106c26.667 -39.333 46.334 -82.666 59.001 -129.999
s19 -100 19 -158c0 -202.667 -46 -363.667 -138 -483s-216 -179 -372 -179c-46 0 -89.333 6.33301 -130 19s-77.667 31.667 -111 57v2l-148 -207l-83 67c2 3.33301 7 10.333 15 21l148 185c-26 38 -45.5 80.5 -58.5 127.5s-19.5 99.167 -19.5 156.5c0 204 46 366 138 486
s216 180 372 180c47.333 0 91 -6.16699 131 -18.5s77 -30.833 111 -55.5l64.5 85.5z" />
    <glyph glyph-name="ugrave" unicode="&#xf9;" 
d="M352 1028c-40 -192.667 -71.1729 -356.999 -93.5059 -492.999s-33.5 -230.333 -33.5 -283c0 -52 10.833 -91 32.5 -117s54.5 -39 98.5 -39c38.667 0 83.667 8.66699 135 26s113.666 45 186.999 83l4 28c24.667 154 44.334 292.167 59.001 414.5s27 245.166 37 368.499h29
c22.667 0 45.667 1 69 3s47.333 5 72 9c-45.333 -213.333 -79.5 -403 -102.5 -569s-34.5 -304.667 -34.5 -416v-40c-3.33301 0 -7.16602 0.166992 -11.499 0.5s-10.166 0.5 -17.499 0.5c-12 0 -24.167 -0.833008 -36.5 -2.5s-25.166 -4.16699 -38.499 -7.5l-27 129
c-105.333 -56 -185.166 -94.333 -239.499 -115s-100.166 -31 -137.499 -31c-68 0 -120.5 20.5 -157.5 61.5s-55.5 99.167 -55.5 174.5c0 32 13.333 136.5 40 313.5s45.334 340.167 56.001 489.5c36 0 67 1 93 3s50.333 5 73 9zM394.994 1452h176
c28 -49.333 58.5 -95.5 91.5 -138.5s68.167 -82.167 105.5 -117.5l-68 -18c-59.333 35.333 -114.5 76 -165.5 122s-97.5 96.667 -139.5 152z" />
    <glyph glyph-name="uacute" unicode="&#xfa;" 
d="M352 1028c-40 -192.667 -71.1729 -356.999 -93.5059 -492.999s-33.5 -230.333 -33.5 -283c0 -52 10.833 -91 32.5 -117s54.5 -39 98.5 -39c38.667 0 83.667 8.66699 135 26s113.666 45 186.999 83l4 28c24.667 154 44.334 292.167 59.001 414.5s27 245.166 37 368.499h29
c22.667 0 45.667 1 69 3s47.333 5 72 9c-45.333 -213.333 -79.5 -403 -102.5 -569s-34.5 -304.667 -34.5 -416v-40c-3.33301 0 -7.16602 0.166992 -11.499 0.5s-10.166 0.5 -17.499 0.5c-12 0 -24.167 -0.833008 -36.5 -2.5s-25.166 -4.16699 -38.499 -7.5l-27 129
c-105.333 -56 -185.166 -94.333 -239.499 -115s-100.166 -31 -137.499 -31c-68 0 -120.5 20.5 -157.5 61.5s-55.5 99.167 -55.5 174.5c0 32 13.333 136.5 40 313.5s45.334 340.167 56.001 489.5c36 0 67 1 93 3s50.333 5 73 9zM683.994 1452l176.001 0.000976562
c-60 -57.333 -122.167 -108.833 -186.5 -154.5s-129.833 -85.5 -196.5 -119.5l-61 18c46.667 35.333 92.167 74.166 136.5 116.499s88.166 88.833 131.499 139.5z" />
    <glyph glyph-name="ucircumflex" unicode="&#xfb;" 
d="M352 1028c-40 -192.667 -71.1729 -356.999 -93.5059 -492.999s-33.5 -230.333 -33.5 -283c0 -52 10.833 -91 32.5 -117s54.5 -39 98.5 -39c38.667 0 83.667 8.66699 135 26s113.666 45 186.999 83l4 28c24.667 154 44.334 292.167 59.001 414.5s27 245.166 37 368.499h29
c22.667 0 45.667 1 69 3s47.333 5 72 9c-45.333 -213.333 -79.5 -403 -102.5 -569s-34.5 -304.667 -34.5 -416v-40c-3.33301 0 -7.16602 0.166992 -11.499 0.5s-10.166 0.5 -17.499 0.5c-12 0 -24.167 -0.833008 -36.5 -2.5s-25.166 -4.16699 -38.499 -7.5l-27 129
c-105.333 -56 -185.166 -94.333 -239.499 -115s-100.166 -31 -137.499 -31c-68 0 -120.5 20.5 -157.5 61.5s-55.5 99.167 -55.5 174.5c0 32 13.333 136.5 40 313.5s45.334 340.167 56.001 489.5c36 0 67 1 93 3s50.333 5 73 9zM583.994 1440h64.999
c36 -43.333 72.833 -83.333 110.5 -120s76.5 -71 116.5 -103l-63 -48c-40 33.333 -78.167 62.166 -114.5 86.499s-71.833 44.833 -106.5 61.5c-40 -19.333 -81 -41.166 -123 -65.499s-85.667 -51.833 -131 -82.5l-47 48c55.333 36 107.333 72.5 156 109.5
s94.334 74.833 137.001 113.5z" />
    <glyph glyph-name="udieresis" unicode="&#xfc;" 
d="M352 1028c-40 -192.667 -71.1729 -356.999 -93.5059 -492.999s-33.5 -230.333 -33.5 -283c0 -52 10.833 -91 32.5 -117s54.5 -39 98.5 -39c38.667 0 83.667 8.66699 135 26s113.666 45 186.999 83l4 28c24.667 154 44.334 292.167 59.001 414.5s27 245.166 37 368.499h29
c22.667 0 45.667 1 69 3s47.333 5 72 9c-45.333 -213.333 -79.5 -403 -102.5 -569s-34.5 -304.667 -34.5 -416v-40c-3.33301 0 -7.16602 0.166992 -11.499 0.5s-10.166 0.5 -17.499 0.5c-12 0 -24.167 -0.833008 -36.5 -2.5s-25.166 -4.16699 -38.499 -7.5l-27 129
c-105.333 -56 -185.166 -94.333 -239.499 -115s-100.166 -31 -137.499 -31c-68 0 -120.5 20.5 -157.5 61.5s-55.5 99.167 -55.5 174.5c0 32 13.333 136.5 40 313.5s45.334 340.167 56.001 489.5c36 0 67 1 93 3s50.333 5 73 9zM765.994 1405
c24.667 0 44.834 -7.49805 60.501 -22.498s23.5 -34.833 23.5 -59.5c0 -27.333 -9.33301 -50.5 -28 -69.5s-41.334 -28.5 -68.001 -28.5c-24.667 0 -44.5 7.66699 -59.5 23s-22.5 35.666 -22.5 60.999c0 27.333 9 50.166 27 68.499s40.333 27.5 67 27.5zM439.994 1405
c25.333 0 45.668 -7.5 61.001 -22.5s23 -34.833 23 -59.5c0 -28 -9 -51.333 -27 -70s-40.333 -28 -67 -28c-24.667 0 -44.834 7.83301 -60.501 23.5s-23.5 35.834 -23.5 60.501c0 27.333 9 50.166 27 68.499s40.333 27.5 67 27.5z" />
    <glyph glyph-name="yacute" unicode="&#xfd;" horiz-adv-x="985" 
d="M985 1032c-154 -480.667 -325.499 -851.333 -514.499 -1112s-379.833 -391 -572.5 -391h-13l-20 111h10c86.667 0 168.167 24.167 244.5 72.5s148.5 121.5 216.5 219.5c-54.667 256 -104.667 474.833 -150 656.5s-84 319.167 -116 412.5l186 37
c13.333 -126 35.5 -270.833 66.5 -434.5s69.5 -340.167 115.5 -529.5c96 160.667 176.667 319.5 242 476.5s113.666 308.167 144.999 453.5zM664.001 1452l176.001 0.000976562c-60 -57.333 -122.167 -108.833 -186.5 -154.5s-129.833 -85.5 -196.5 -119.5l-61 18
c46.667 35.333 92.167 74.166 136.5 116.499s88.166 88.833 131.499 139.5z" />
    <glyph glyph-name="thorn" unicode="&#xfe;" horiz-adv-x="1100" 
d="M322 836c-22.667 -134.667 -38.668 -239.169 -48.001 -313.502s-14 -131.166 -14 -170.499c0 -89.333 21 -157.666 63 -204.999s102.333 -71 181 -71c105.333 0 190 50.5 254 151.5s96 235.5 96 403.5c0 102 -20.667 180.667 -62 236s-100 83 -176 83
c-37.333 0 -80.666 -9.5 -129.999 -28.5s-104 -47.5 -164 -85.5zM433.999 1554c-16 -64.667 -32.8359 -147.832 -50.5029 -249.499s-36.834 -227.834 -57.501 -378.501c74.667 45.333 139 78.5 193 99.5s102.333 31.5 145 31.5c100.667 0 180.334 -38 239.001 -114
s88 -180 88 -312c0 -190.667 -46.667 -349.334 -140 -476.001s-208.333 -190 -345 -190c-62 0 -117.667 14 -167 42s-90.666 68.667 -123.999 122c-10 -77.333 -19.333 -163.166 -28 -257.499s-17 -203.166 -25 -326.499h-168c69.333 381.333 125.833 740 169.5 1076
s72.5 632.667 86.5 890c30.667 5.33301 61.334 11.666 92.001 18.999s61.334 15.333 92.001 24z" />
    <glyph glyph-name="ydieresis" unicode="&#xff;" horiz-adv-x="985" 
d="M985 1032c-154 -480.667 -325.499 -851.333 -514.499 -1112s-379.833 -391 -572.5 -391h-13l-20 111h10c86.667 0 168.167 24.167 244.5 72.5s148.5 121.5 216.5 219.5c-54.667 256 -104.667 474.833 -150 656.5s-84 319.167 -116 412.5l186 37
c13.333 -126 35.5 -270.833 66.5 -434.5s69.5 -340.167 115.5 -529.5c96 160.667 176.667 319.5 242 476.5s113.666 308.167 144.999 453.5zM746.001 1405c24.667 0 44.834 -7.49805 60.501 -22.498s23.5 -34.833 23.5 -59.5c0 -27.333 -9.33301 -50.5 -28 -69.5
s-41.334 -28.5 -68.001 -28.5c-24.667 0 -44.5 7.66699 -59.5 23s-22.5 35.666 -22.5 60.999c0 27.333 9 50.166 27 68.499s40.333 27.5 67 27.5zM420.001 1405c25.333 0 45.668 -7.5 61.001 -22.5s23 -34.833 23 -59.5c0 -28 -9 -51.333 -27 -70s-40.333 -28 -67 -28
c-24.667 0 -44.834 7.83301 -60.501 23.5s-23.5 35.834 -23.5 60.501c0 27.333 9 50.166 27 68.499s40.333 27.5 67 27.5z" />
    <glyph glyph-name="Amacron" unicode="&#x100;" horiz-adv-x="1176" 
d="M684 1274l-173 -358.5l-153 -340.5h418l-47 348zM647 1464c12.667 -2 25.168 -3.50098 37.501 -4.50098s24.5 -1.5 36.5 -1.5c11.333 0 23 0.5 35 1.5s24 2.5 36 4.5c26 -262 59.5 -515.167 100.5 -759.5s89.5 -479.166 145.5 -704.499h-182l-35.5 273
c-9.66699 72.667 -18.834 137.334 -27.501 194.001h-486c-38.667 -81.333 -74 -160.833 -106 -238.5s-60.667 -153.834 -86 -228.501h-187l415 812c118 240.667 219.333 458 304 652zM473.001 1782h5.99805c113.333 -2.66699 197.333 -4 252 -4
c32.667 0 68.834 0.333008 108.501 1l179.5 3l-16 -106c-35.333 1.33301 -73.166 2.33301 -113.499 3s-97.5 1 -171.5 1c-68 0 -120.167 -0.333008 -156.5 -1s-70.833 -1.66699 -103.5 -3z" />
    <glyph glyph-name="amacron" unicode="&#x101;" horiz-adv-x="948" 
d="M815 66l-22.0029 -68c-10 -2.66699 -20.167 -4.66699 -30.5 -6s-23.5 -2 -39.5 -2c-42.667 0 -76.834 9.66699 -102.501 29s-43.5 49.333 -53.5 90c-58 -42 -114 -73 -168 -93s-107.667 -30 -161 -30c-76 0 -135.667 19.667 -179 59s-65 93.333 -65 162
c0 127.333 56.833 229 170.5 305s271.834 117.667 474.501 125l6 25c4 18 7 36.167 9 54.5s3 36.833 3 55.5c0 55.333 -17.333 96.5 -52 123.5s-87.667 40.5 -159 40.5c-45.333 0 -88.666 -5.33301 -129.999 -16s-79.666 -26.667 -114.999 -48l16 134
c39.333 14 79.166 24.667 119.499 32s81.833 11 124.5 11c105.333 0 185.5 -21 240.5 -63s82.5 -103 82.5 -183c0 -39.333 -9.33301 -111.333 -28 -216c-5.33301 -30.667 -9.66602 -54.334 -12.999 -71.001c-22 -125.333 -36 -208.666 -42 -249.999s-9 -72 -9 -92
c0 -36 8.66699 -63.5 26 -82.5s43 -28.5 77 -28.5c1.33301 0 4.33301 0.5 9 1.5s8.33398 1.5 11.001 1.5zM625.997 551c-155.333 -3.33301 -277.666 -33.499 -366.999 -90.499s-134 -132.833 -134 -227.5c0 -44 13.333 -78.833 40 -104.5s63 -38.5 109 -38.5
c52 0 102 8.83301 150 26.5s96.333 45.167 145 82.5c8 65.333 16.667 127.166 26 185.499s19.666 113.833 30.999 166.5zM259.997 1368h5.99805c113.333 -2.66699 197.333 -4 252 -4c32.667 0 68.834 0.333008 108.501 1l179.5 3l-16 -106
c-35.333 1.33301 -73.166 2.33301 -113.499 3s-97.5 1 -171.5 1c-68 0 -120.167 -0.333008 -156.5 -1s-70.833 -1.66699 -103.5 -3z" />
    <glyph glyph-name="Abreve" unicode="&#x102;" horiz-adv-x="1176" 
d="M684 1274l-173 -358.5l-153 -340.5h418l-47 348zM647 1464c12.667 -2 25.168 -3.50098 37.501 -4.50098s24.5 -1.5 36.5 -1.5c11.333 0 23 0.5 35 1.5s24 2.5 36 4.5c26 -262 59.5 -515.167 100.5 -759.5s89.5 -479.166 145.5 -704.499h-182l-35.5 273
c-9.66699 72.667 -18.834 137.334 -27.501 194.001h-486c-38.667 -81.333 -74 -160.833 -106 -238.5s-60.667 -153.834 -86 -228.501h-187l415 812c118 240.667 219.333 458 304 652zM503.001 1854c23.333 -38.667 55.501 -68.5 96.501 -89.5s87.5 -31.5 139.5 -31.5
c52.667 0 100.667 9.83301 144 29.5s84.666 50.167 123.999 91.5l31 -25c-40 -68.667 -85.833 -120 -137.5 -154s-110.167 -51 -175.5 -51c-67.333 0 -123.5 18.167 -168.5 54.5s-74.167 86.5 -87.5 150.5z" />
    <glyph glyph-name="abreve" unicode="&#x103;" horiz-adv-x="948" 
d="M815 66l-22.0029 -68c-10 -2.66699 -20.167 -4.66699 -30.5 -6s-23.5 -2 -39.5 -2c-42.667 0 -76.834 9.66699 -102.501 29s-43.5 49.333 -53.5 90c-58 -42 -114 -73 -168 -93s-107.667 -30 -161 -30c-76 0 -135.667 19.667 -179 59s-65 93.333 -65 162
c0 127.333 56.833 229 170.5 305s271.834 117.667 474.501 125l6 25c4 18 7 36.167 9 54.5s3 36.833 3 55.5c0 55.333 -17.333 96.5 -52 123.5s-87.667 40.5 -159 40.5c-45.333 0 -88.666 -5.33301 -129.999 -16s-79.666 -26.667 -114.999 -48l16 134
c39.333 14 79.166 24.667 119.499 32s81.833 11 124.5 11c105.333 0 185.5 -21 240.5 -63s82.5 -103 82.5 -183c0 -39.333 -9.33301 -111.333 -28 -216c-5.33301 -30.667 -9.66602 -54.334 -12.999 -71.001c-22 -125.333 -36 -208.666 -42 -249.999s-9 -72 -9 -92
c0 -36 8.66699 -63.5 26 -82.5s43 -28.5 77 -28.5c1.33301 0 4.33301 0.5 9 1.5s8.33398 1.5 11.001 1.5zM625.997 551c-155.333 -3.33301 -277.666 -33.499 -366.999 -90.499s-134 -132.833 -134 -227.5c0 -44 13.333 -78.833 40 -104.5s63 -38.5 109 -38.5
c52 0 102 8.83301 150 26.5s96.333 45.167 145 82.5c8 65.333 16.667 127.166 26 185.499s19.666 113.833 30.999 166.5zM289.997 1440c23.333 -38.667 55.501 -68.5 96.501 -89.5s87.5 -31.5 139.5 -31.5c52.667 0 100.667 9.83301 144 29.5s84.666 50.167 123.999 91.5
l31 -25c-40 -68.667 -85.833 -120 -137.5 -154s-110.167 -51 -175.5 -51c-67.333 0 -123.5 18.167 -168.5 54.5s-74.167 86.5 -87.5 150.5z" />
    <glyph glyph-name="Aogonek" unicode="&#x104;" horiz-adv-x="1176" 
d="M684 1274l-173 -358.5l-153 -340.5h418l-47 348zM647 1464c12.667 -2 25.166 -3.49902 37.499 -4.49902s24.5 -1.5 36.5 -1.5c11.333 0 23 0.5 35 1.5s24 2.5 36 4.5c26 -262 59.5 -515.167 100.5 -759.5s89.5 -479.166 145.5 -704.499h-45
c-31.333 -34.667 -55.166 -68.334 -71.499 -101.001s-24.5 -63.334 -24.5 -92.001c0 -36.667 12 -64.834 36 -84.501s58.333 -29.5 103 -29.5c7.33301 0 20.666 0.666992 39.999 2c10 0.666992 18 1.33398 24 2.00098l-17 -74c-18 -8.66699 -37.5 -15.167 -58.5 -19.5
s-42.167 -6.5 -63.5 -6.5c-58 0 -102 12.667 -132 38s-45 62.333 -45 111c0 42.667 14.167 85.834 42.5 129.501s68.833 85.167 121.5 124.5h-92l-37.5 293.5c-9.66699 73 -18.167 130.833 -25.5 173.5h-486c-24 -44.667 -51.667 -105.334 -83 -182.001
s-67.666 -171.667 -108.999 -285h-187l415 812c118 240.667 219.333 458 304 652z" />
    <glyph glyph-name="aogonek" unicode="&#x105;" horiz-adv-x="948" 
d="M815 66l-22.001 -68c-16 -4 -30.667 -7 -44 -9s-26 -3 -38 -3c-28 -34 -48.667 -65.833 -62 -95.5s-20 -57.5 -20 -83.5c0 -36.667 12 -64.834 36 -84.501s58.333 -29.5 103 -29.5c7.33301 0 20.666 0.666992 39.999 2c10 0.666992 17.667 1.33398 23 2.00098l-16 -74
c-18.667 -8.66699 -38.334 -15.167 -59.001 -19.5s-42 -6.5 -64 -6.5c-57.333 0 -101 12.667 -131 38s-45 62.333 -45 111c0 40.667 13 82.334 39 125.001s63.667 83 113 121c-26.667 8 -48.334 21.667 -65.001 41s-28.667 44.666 -36 75.999c-58 -42 -114 -73 -168 -93
s-107.667 -30 -161 -30c-76 0 -135.667 19.667 -179 59s-65 93.333 -65 162c0 127.333 56.833 229 170.5 305s271.834 117.667 474.501 125l6 25c4 18 7 36.167 9 54.5s3 36.833 3 55.5c0 55.333 -17.333 96.5 -52 123.5s-87.667 40.5 -159 40.5
c-45.333 0 -88.666 -5.33301 -129.999 -16s-79.666 -26.667 -114.999 -48l16 134c39.333 14 79.166 24.667 119.499 32s81.833 11 124.5 11c105.333 0 185.5 -21 240.5 -63s82.5 -103 82.5 -183c0 -39.333 -9.33301 -111.333 -28 -216
c-5.33301 -30.667 -9.66602 -54.334 -12.999 -71.001c-22 -125.333 -36 -208.666 -42 -249.999s-9 -72 -9 -92c0 -36 8.66699 -63.5 26 -82.5s43 -28.5 77 -28.5c1.33301 0 4.33301 0.5 9 1.5s8.33398 1.5 11.001 1.5zM625.999 551
c-155.333 -3.33301 -277.666 -33.499 -366.999 -90.499s-134 -132.833 -134 -227.5c0 -44 13.333 -78.833 40 -104.5s63 -38.5 109 -38.5c52 0 102 8.83301 150 26.5s96.333 45.167 145 82.5c8 65.333 16.667 127.166 26 185.499s19.666 113.833 30.999 166.5z" />
    <glyph glyph-name="Cacute" unicode="&#x106;" horiz-adv-x="1104" 
d="M1077 1442l6 -142c-37.333 20 -77.333 35 -120 45s-88 15 -136 15c-180 0 -324 -73.333 -432 -220s-162 -343 -162 -589c0 -150.667 33.833 -266.167 101.5 -346.5s164.5 -120.5 290.5 -120.5c65.333 0 130.333 8.66699 195 26s129.334 43.333 194.001 78l-35 -131
c-56 -28.667 -115.333 -50.5 -178 -65.5s-127 -22.5 -193 -22.5c-166.667 0 -295 50 -385 150s-135 243.333 -135 430c0 132 17.5 254.833 52.5 368.5s85.833 212.5 152.5 296.5c67.333 86 146.833 150.667 238.5 194s195.167 65 310.5 65
c41.333 0 81.666 -2.66699 120.999 -8s77.333 -13 114 -23zM940 1866l176.001 0.000976562c-60 -57.333 -122.167 -108.833 -186.5 -154.5s-129.833 -85.5 -196.5 -119.5l-61 18c46.667 35.333 92.167 74.166 136.5 116.499s88.166 88.833 131.499 139.5z" />
    <glyph glyph-name="cacute" unicode="&#x107;" horiz-adv-x="834" 
d="M766 1020l-17.9971 -113c-26.667 14.667 -54.334 25.5 -83.001 32.5s-57.667 10.5 -87 10.5c-117.333 0 -211.666 -49.167 -282.999 -147.5s-107 -228.5 -107 -390.5c0 -111.333 23.333 -195.166 70 -251.499s115.667 -84.5 207 -84.5c35.333 0 71.166 4.5 107.499 13.5
s74.166 22.833 113.499 41.5l-37 -121c-37.333 -14.667 -73 -25.5 -107 -32.5s-67.333 -10.5 -100 -10.5c-122.667 0 -217.834 35.833 -285.501 107.5s-101.5 173.167 -101.5 304.5c0 201.333 48.333 364.666 145 489.999s221.667 188 375 188
c34 0 66.833 -3.16699 98.5 -9.5s62.5 -15.5 92.5 -27.5zM678.003 1452l176.001 0.000976562c-60 -57.333 -122.167 -108.833 -186.5 -154.5s-129.833 -85.5 -196.5 -119.5l-61 18c46.667 35.333 92.167 74.166 136.5 116.499s88.166 88.833 131.499 139.5z" />
    <glyph glyph-name="Ccircumflex" unicode="&#x108;" horiz-adv-x="1104" 
d="M1077 1442l6 -142c-37.333 20 -77.333 35 -120 45s-88 15 -136 15c-180 0 -324 -73.333 -432 -220s-162 -343 -162 -589c0 -150.667 33.833 -266.167 101.5 -346.5s164.5 -120.5 290.5 -120.5c65.333 0 130.333 8.66699 195 26s129.334 43.333 194.001 78l-35 -131
c-56 -28.667 -115.333 -50.5 -178 -65.5s-127 -22.5 -193 -22.5c-166.667 0 -295 50 -385 150s-135 243.333 -135 430c0 132 17.5 254.833 52.5 368.5s85.833 212.5 152.5 296.5c67.333 86 146.833 150.667 238.5 194s195.167 65 310.5 65
c41.333 0 81.666 -2.66699 120.999 -8s77.333 -13 114 -23zM840 1854h64.999c36 -43.333 72.833 -83.333 110.5 -120s76.5 -71 116.5 -103l-63 -48c-40 33.333 -78.167 62.166 -114.5 86.499s-71.833 44.833 -106.5 61.5c-40 -19.333 -81 -41.166 -123 -65.499
s-85.667 -51.833 -131 -82.5l-47 48c55.333 36 107.333 72.5 156 109.5s94.334 74.833 137.001 113.5z" />
    <glyph glyph-name="ccircumflex" unicode="&#x109;" horiz-adv-x="834" 
d="M766 1020l-17.9971 -113c-26.667 14.667 -54.334 25.5 -83.001 32.5s-57.667 10.5 -87 10.5c-117.333 0 -211.666 -49.167 -282.999 -147.5s-107 -228.5 -107 -390.5c0 -111.333 23.333 -195.166 70 -251.499s115.667 -84.5 207 -84.5c35.333 0 71.166 4.5 107.499 13.5
s74.166 22.833 113.499 41.5l-37 -121c-37.333 -14.667 -73 -25.5 -107 -32.5s-67.333 -10.5 -100 -10.5c-122.667 0 -217.834 35.833 -285.501 107.5s-101.5 173.167 -101.5 304.5c0 201.333 48.333 364.666 145 489.999s221.667 188 375 188
c34 0 66.833 -3.16699 98.5 -9.5s62.5 -15.5 92.5 -27.5zM578.003 1440h64.999c36 -43.333 72.833 -83.333 110.5 -120s76.5 -71 116.5 -103l-63 -48c-40 33.333 -78.167 62.166 -114.5 86.499s-71.833 44.833 -106.5 61.5c-40 -19.333 -81 -41.166 -123 -65.499
s-85.667 -51.833 -131 -82.5l-47 48c55.333 36 107.333 72.5 156 109.5s94.334 74.833 137.001 113.5z" />
    <glyph glyph-name="Cdot" unicode="&#x10a;" horiz-adv-x="1104" 
d="M1077 1442l6 -142c-37.333 20 -77.333 35 -120 45s-88 15 -136 15c-180 0 -324 -73.333 -432 -220s-162 -343 -162 -589c0 -150.667 33.833 -266.167 101.5 -346.5s164.5 -120.5 290.5 -120.5c65.333 0 130.333 8.66699 195 26s129.334 43.333 194.001 78l-35 -131
c-56 -28.667 -115.333 -50.5 -178 -65.5s-127 -22.5 -193 -22.5c-166.667 0 -295 50 -385 150s-135 243.333 -135 430c0 132 17.5 254.833 52.5 368.5s85.833 212.5 152.5 296.5c67.333 86 146.833 150.667 238.5 194s195.167 65 310.5 65
c41.333 0 81.666 -2.66699 120.999 -8s77.333 -13 114 -23zM860 1831c28 0 50.667 -8.49805 68 -25.498s26 -39.167 26 -66.5c0 -30.667 -10.333 -56.834 -31 -78.501s-45.667 -32.5 -75 -32.5c-27.333 0 -49.833 8.66699 -67.5 26s-26.5 39.666 -26.5 66.999
c0 30.667 10.333 56.667 31 78s45.667 32 75 32z" />
    <glyph glyph-name="cdot" unicode="&#x10b;" horiz-adv-x="834" 
d="M766 1020l-17.9971 -113c-26.667 14.667 -54.334 25.5 -83.001 32.5s-57.667 10.5 -87 10.5c-117.333 0 -211.666 -49.167 -282.999 -147.5s-107 -228.5 -107 -390.5c0 -111.333 23.333 -195.166 70 -251.499s115.667 -84.5 207 -84.5c35.333 0 71.166 4.5 107.499 13.5
s74.166 22.833 113.499 41.5l-37 -121c-37.333 -14.667 -73 -25.5 -107 -32.5s-67.333 -10.5 -100 -10.5c-122.667 0 -217.834 35.833 -285.501 107.5s-101.5 173.167 -101.5 304.5c0 201.333 48.333 364.666 145 489.999s221.667 188 375 188
c34 0 66.833 -3.16699 98.5 -9.5s62.5 -15.5 92.5 -27.5zM598.003 1417c28 0 50.667 -8.49805 68 -25.498s26 -39.167 26 -66.5c0 -30.667 -10.333 -56.834 -31 -78.501s-45.667 -32.5 -75 -32.5c-27.333 0 -49.833 8.66699 -67.5 26s-26.5 39.666 -26.5 66.999
c0 30.667 10.333 56.667 31 78s45.667 32 75 32z" />
    <glyph glyph-name="Ccaron" unicode="&#x10c;" horiz-adv-x="1104" 
d="M1077 1442l6 -142c-37.333 20 -77.333 35 -120 45s-88 15 -136 15c-180 0 -324 -73.333 -432 -220s-162 -343 -162 -589c0 -150.667 33.833 -266.167 101.5 -346.5s164.5 -120.5 290.5 -120.5c65.333 0 130.333 8.66699 195 26s129.334 43.333 194.001 78l-35 -131
c-56 -28.667 -115.333 -50.5 -178 -65.5s-127 -22.5 -193 -22.5c-166.667 0 -295 50 -385 150s-135 243.333 -135 430c0 132 17.5 254.833 52.5 368.5s85.833 212.5 152.5 296.5c67.333 86 146.833 150.667 238.5 194s195.167 65 310.5 65
c41.333 0 81.666 -2.66699 120.999 -8s77.333 -13 114 -23zM635 1854c40 -33.333 78.167 -62 114.5 -86s71.833 -44.667 106.5 -62c40 19.333 81 41.166 123 65.499s85.667 51.833 131 82.5l47 -45c-52 -35.333 -102.333 -71.666 -151 -108.999s-96 -76.333 -142 -117h-63
c-38 44 -76 84.667 -114 122s-76.667 71.333 -116 102z" />
    <glyph glyph-name="ccaron" unicode="&#x10d;" horiz-adv-x="834" 
d="M766 1020l-17.9971 -113c-26.667 14.667 -54.334 25.5 -83.001 32.5s-57.667 10.5 -87 10.5c-117.333 0 -211.666 -49.167 -282.999 -147.5s-107 -228.5 -107 -390.5c0 -111.333 23.333 -195.166 70 -251.499s115.667 -84.5 207 -84.5c35.333 0 71.166 4.5 107.499 13.5
s74.166 22.833 113.499 41.5l-37 -121c-37.333 -14.667 -73 -25.5 -107 -32.5s-67.333 -10.5 -100 -10.5c-122.667 0 -217.834 35.833 -285.501 107.5s-101.5 173.167 -101.5 304.5c0 201.333 48.333 364.666 145 489.999s221.667 188 375 188
c34 0 66.833 -3.16699 98.5 -9.5s62.5 -15.5 92.5 -27.5zM373.003 1440c40 -33.333 78.167 -62 114.5 -86s71.833 -44.667 106.5 -62c40 19.333 81 41.166 123 65.499s85.667 51.833 131 82.5l47 -45c-52 -35.333 -102.333 -71.666 -151 -108.999s-96 -76.333 -142 -117h-63
c-38 44 -76 84.667 -114 122s-76.667 71.333 -116 102z" />
    <glyph glyph-name="Dcaron" unicode="&#x10e;" horiz-adv-x="1339" 
d="M293 115c22.667 -2 44.335 -3.49707 65.002 -4.49707s41.334 -1.5 62.001 -1.5c227.333 0 399.166 61.333 515.499 184s174.5 303.667 174.5 543c0 173.333 -40.333 299.166 -121 377.499s-210.334 117.5 -389.001 117.5c-21.333 0 -43.333 -0.5 -66 -1.5
s-46.334 -2.5 -71.001 -4.5c-38 -196.667 -71 -395.834 -99 -597.501s-51.667 -405.834 -71 -612.501zM303.001 1442l243.999 0.00292969c114.667 0 202.667 -5 264 -15s117.333 -26.333 168 -49c90 -40 158.833 -105 206.5 -195s71.5 -199.667 71.5 -329
c0 -158.667 -27.833 -299.667 -83.5 -423s-136.834 -224 -243.501 -302c-61.333 -44.667 -142.166 -77.334 -242.499 -98.001s-228.5 -31 -384.5 -31h-203c47.333 235.333 87.833 473.166 121.5 713.499s60.834 483.166 81.501 728.499zM596 1854.01
c40 -33.333 78.167 -62 114.5 -86s71.833 -44.667 106.5 -62c40 19.333 81 41.166 123 65.499s85.667 51.833 131 82.5l47 -45c-52 -35.333 -102.333 -71.666 -151 -108.999s-96 -76.333 -142 -117h-63c-38 44 -76 84.667 -114 122s-76.667 71.333 -116 102z" />
    <glyph glyph-name="dcaron" unicode="&#x10f;" horiz-adv-x="1327" 
d="M811 858c-40 30.667 -80.999 53.668 -122.999 69.001s-85 23 -129 23c-109.333 0 -198.833 -51.833 -268.5 -155.5s-104.5 -238.167 -104.5 -403.5c0 -103.333 21.833 -182.333 65.5 -237s106.5 -82 188.5 -82c63.333 0 119.166 16.667 167.499 50
s82.833 78.666 103.5 135.999c28.667 78 61 269 97 573zM1049 1554c-64 -379.333 -112.5 -694.999 -145.5 -946.999s-49.5 -431.667 -49.5 -539c0 -10.667 0.333008 -21.5 1 -32.5s1.66699 -22.5 3 -34.5l-102 -5l-33 121c-45.333 -50.667 -94.833 -88.667 -148.5 -114
s-112.167 -38 -175.5 -38c-108.667 0 -194.167 37.5 -256.5 112.5s-93.5 178.167 -93.5 309.5c0 194 48.167 354.167 144.5 480.5s217.5 189.5 363.5 189.5c42 0 86.333 -8.83301 133 -26.5s91.667 -43.167 135 -76.5c14 104 25.667 202.833 35 296.5s17 180.5 23 260.5
c29.333 5.33301 57.833 11.666 85.5 18.999s54.5 15.333 80.5 24zM1372 1473c14.667 -17.333 25.501 -34.334 32.501 -51.001s10.5 -34 10.5 -52c0 -46.667 -17.667 -91.167 -53 -133.5s-88 -81.166 -158 -116.499l-38 60c34 20 58.167 38.333 72.5 55s21.5 35 21.5 55
c0 15.333 -3.83301 31.5 -11.5 48.5s-18.834 35.167 -33.501 54.5z" />
    <glyph glyph-name="Dslash" unicode="&#x110;" horiz-adv-x="1352" 
d="M293 115c22.667 -2 44.335 -3.49902 65.002 -4.49902s41.334 -1.5 62.001 -1.5c227.333 0 399.166 61.333 515.499 184s174.5 303.667 174.5 543c0 173.333 -40.333 299.166 -121 377.499s-210.334 117.5 -389.001 117.5c-21.333 0 -43.333 -0.5 -66 -1.5
s-46.334 -2.5 -71.001 -4.5l-47.5 -262.5c-14.333 -83 -27.166 -161.5 -38.499 -235.5c50 0 104.667 0.5 164 1.5s123.333 2.5 192 4.5l-16 -122c-68.667 2 -132.334 3.5 -191.001 4.5s-113.334 1.5 -164.001 1.5c-15.333 -110.667 -28.666 -215.167 -39.999 -313.5
s-21 -194.5 -29 -288.5zM303.001 1442l244 0.00292969c114.667 0 202.667 -5 264 -15s117.333 -26.333 168 -49c90 -40 158.833 -105 206.5 -195s71.5 -199.667 71.5 -329c0 -158.667 -27.833 -299.667 -83.5 -423s-136.834 -224 -243.501 -302
c-61.333 -44.667 -142.166 -77.334 -242.499 -98.001s-228.5 -31 -384.5 -31h-203c20 96 40 202.5 60 319.5s40.333 249.5 61 397.5c-31.333 -0.666992 -67.5 -1.5 -108.5 -2.5s-65.5 -1.5 -73.5 -1.5l16 118c20 -0.666992 50.167 -1.33398 90.5 -2.00098
s71.166 -1.33398 92.499 -2.00098c13.333 104.667 25.333 208.167 36 310.5s20.334 203.833 29.001 304.5z" />
    <glyph glyph-name="dcroat" unicode="&#x111;" horiz-adv-x="1114" 
d="M811 858c-40 30.667 -80.999 53.668 -122.999 69.001s-85 23 -129 23c-109.333 0 -198.833 -51.833 -268.5 -155.5s-104.5 -238.167 -104.5 -403.5c0 -103.333 21.833 -182.333 65.5 -237s106.5 -82 188.5 -82c63.333 0 119.166 16.667 167.499 50
s82.833 78.666 103.5 135.999c28.667 78 61 269 97 573zM1049 1554c-6.66699 -36.667 -14.667 -84 -24 -142l-19 -120c21.333 0.666992 51.833 1.33398 91.5 2.00098s66.834 1.33398 81.501 2.00098l-10 -100c-12.667 0.666992 -39.834 1.83398 -81.501 3.50098
s-74.5 2.5 -98.5 2.5c-46 -298.667 -80 -539.5 -102 -722.5s-33 -317.5 -33 -403.5c0 -12 0.333008 -23.833 1 -35.5s1.66699 -24.834 3 -39.501l-102 -5l-33 121c-45.333 -50.667 -94.833 -88.667 -148.5 -114s-112.167 -38 -175.5 -38
c-108.667 0 -194.167 37.5 -256.5 112.5s-93.5 178.167 -93.5 309.5c0 194 48.167 354.167 144.5 480.5s217.5 189.5 363.5 189.5c42 0 86.333 -8.83301 133 -26.5s91.667 -43.167 135 -76.5l29 248c-60 -0.666992 -117 -1.66699 -171 -3s-104.667 -2.33301 -152 -3l14 102
c50.667 -2 102.5 -3.5 155.5 -4.5s107.5 -1.5 163.5 -1.5c3.33301 31.333 6.5 65.166 9.5 101.499l9.5 117.5c29.333 5.33301 57.833 11.666 85.5 18.999s54.5 15.333 80.5 24z" />
    <glyph glyph-name="Emacron" unicode="&#x112;" horiz-adv-x="999" 
d="M299 1442l629 0.00195312l6 -137c-53.333 8.66699 -111.833 15.167 -175.5 19.5s-137.5 6.5 -221.5 6.5h-86l-74 -506h487l-59 -133c-60 8 -121.167 14.167 -183.5 18.5s-125.5 6.5 -189.5 6.5h-72l-81 -608h149c79.333 0 150.5 2.5 213.5 7.5s122.167 13.167 177.5 24.5
l-61 -141h-662c50 237.333 92 476.166 126 716.499s59.667 482.166 77 725.499zM373 1782h5.99805c113.333 -2.66699 197.333 -4 252 -4c32.667 0 68.834 0.333008 108.501 1l179.5 3l-16 -106c-35.333 1.33301 -73.166 2.33301 -113.499 3s-97.5 1 -171.5 1
c-68 0 -120.167 -0.333008 -156.5 -1s-70.833 -1.66699 -103.5 -3z" />
    <glyph glyph-name="emacron" unicode="&#x113;" horiz-adv-x="948" 
d="M842 506l-647 -0.00292969c-2 -15.333 -3.33301 -31.333 -4 -48s-1 -38.334 -1 -65.001c0 -107.333 21.167 -187.666 63.5 -240.999s105.833 -80 190.5 -80c48.667 0 95 5.83301 139 17.5s87.333 29.5 130 53.5l-13 -110c-43.333 -22 -87.833 -38.5 -133.5 -49.5
s-91.834 -16.5 -138.501 -16.5c-120 0 -212.5 38 -277.5 114s-97.5 184.333 -97.5 325c0 192.667 43.833 349.334 131.5 470.001s200.834 181 339.501 181c105.333 0 187.333 -33.5 246 -100.5s88 -160.5 88 -280.5c0 -25.333 -1.33301 -52.166 -4 -80.499
s-6.66699 -58.166 -12 -89.499zM727 603.997c2.66699 16.667 4.66699 33.167 6 49.5s2 32.5 2 48.5c0 80.667 -18.333 142.167 -55 184.5s-90 63.5 -160 63.5c-80.667 0 -147.5 -29.167 -200.5 -87.5s-90.5 -144.5 -112.5 -258.5h520zM273 1368h5.99805
c113.333 -2.66699 197.333 -4 252 -4c32.667 0 68.834 0.333008 108.501 1l179.5 3l-16 -106c-35.333 1.33301 -73.166 2.33301 -113.499 3s-97.5 1 -171.5 1c-68 0 -120.167 -0.333008 -156.5 -1s-70.833 -1.66699 -103.5 -3z" />
    <glyph glyph-name="Ebreve" unicode="&#x114;" horiz-adv-x="999" 
d="M299 1442l629 0.00195312l6 -137c-53.333 8.66699 -111.833 15.167 -175.5 19.5s-137.5 6.5 -221.5 6.5h-86l-74 -506h487l-59 -133c-60 8 -121.167 14.167 -183.5 18.5s-125.5 6.5 -189.5 6.5h-72l-81 -608h149c79.333 0 150.5 2.5 213.5 7.5s122.167 13.167 177.5 24.5
l-61 -141h-662c50 237.333 92 476.166 126 716.499s59.667 482.166 77 725.499zM403 1854c23.333 -38.667 55.501 -68.5 96.501 -89.5s87.5 -31.5 139.5 -31.5c52.667 0 100.667 9.83301 144 29.5s84.666 50.167 123.999 91.5l31 -25c-40 -68.667 -85.833 -120 -137.5 -154
s-110.167 -51 -175.5 -51c-67.333 0 -123.5 18.167 -168.5 54.5s-74.167 86.5 -87.5 150.5z" />
    <glyph glyph-name="ebreve" unicode="&#x115;" horiz-adv-x="948" 
d="M842 506l-647 -0.00292969c-2 -15.333 -3.33301 -31.333 -4 -48s-1 -38.334 -1 -65.001c0 -107.333 21.167 -187.666 63.5 -240.999s105.833 -80 190.5 -80c48.667 0 95 5.83301 139 17.5s87.333 29.5 130 53.5l-13 -110c-43.333 -22 -87.833 -38.5 -133.5 -49.5
s-91.834 -16.5 -138.501 -16.5c-120 0 -212.5 38 -277.5 114s-97.5 184.333 -97.5 325c0 192.667 43.833 349.334 131.5 470.001s200.834 181 339.501 181c105.333 0 187.333 -33.5 246 -100.5s88 -160.5 88 -280.5c0 -25.333 -1.33301 -52.166 -4 -80.499
s-6.66699 -58.166 -12 -89.499zM727 603.997c2.66699 16.667 4.66699 33.167 6 49.5s2 32.5 2 48.5c0 80.667 -18.333 142.167 -55 184.5s-90 63.5 -160 63.5c-80.667 0 -147.5 -29.167 -200.5 -87.5s-90.5 -144.5 -112.5 -258.5h520zM303 1440
c23.333 -38.667 55.501 -68.5 96.501 -89.5s87.5 -31.5 139.5 -31.5c52.667 0 100.667 9.83301 144 29.5s84.666 50.167 123.999 91.5l31 -25c-40 -68.667 -85.833 -120 -137.5 -154s-110.167 -51 -175.5 -51c-67.333 0 -123.5 18.167 -168.5 54.5s-74.167 86.5 -87.5 150.5
z" />
    <glyph glyph-name="Edot" unicode="&#x116;" horiz-adv-x="999" 
d="M299 1442l629 0.00195312l6 -137c-53.333 8.66699 -111.833 15.167 -175.5 19.5s-137.5 6.5 -221.5 6.5h-86l-74 -506h487l-59 -133c-60 8 -121.167 14.167 -183.5 18.5s-125.5 6.5 -189.5 6.5h-72l-81 -608h149c79.333 0 150.5 2.5 213.5 7.5s122.167 13.167 177.5 24.5
l-61 -141h-662c50 237.333 92 476.166 126 716.499s59.667 482.166 77 725.499zM645 1831c28 0 50.667 -8.49805 68 -25.498s26 -39.167 26 -66.5c0 -30.667 -10.333 -56.834 -31 -78.501s-45.667 -32.5 -75 -32.5c-27.333 0 -49.833 8.66699 -67.5 26
s-26.5 39.666 -26.5 66.999c0 30.667 10.333 56.667 31 78s45.667 32 75 32z" />
    <glyph glyph-name="edot" unicode="&#x117;" horiz-adv-x="948" 
d="M842 506l-647 -0.00292969c-2 -15.333 -3.33301 -31.333 -4 -48s-1 -38.334 -1 -65.001c0 -107.333 21.167 -187.666 63.5 -240.999s105.833 -80 190.5 -80c48.667 0 95 5.83301 139 17.5s87.333 29.5 130 53.5l-13 -110c-43.333 -22 -87.833 -38.5 -133.5 -49.5
s-91.834 -16.5 -138.501 -16.5c-120 0 -212.5 38 -277.5 114s-97.5 184.333 -97.5 325c0 192.667 43.833 349.334 131.5 470.001s200.834 181 339.501 181c105.333 0 187.333 -33.5 246 -100.5s88 -160.5 88 -280.5c0 -25.333 -1.33301 -52.166 -4 -80.499
s-6.66699 -58.166 -12 -89.499zM727 603.997c2.66699 16.667 4.66699 33.167 6 49.5s2 32.5 2 48.5c0 80.667 -18.333 142.167 -55 184.5s-90 63.5 -160 63.5c-80.667 0 -147.5 -29.167 -200.5 -87.5s-90.5 -144.5 -112.5 -258.5h520zM545 1417
c28 0 50.667 -8.49805 68 -25.498s26 -39.167 26 -66.5c0 -30.667 -10.333 -56.834 -31 -78.501s-45.667 -32.5 -75 -32.5c-27.333 0 -49.833 8.66699 -67.5 26s-26.5 39.666 -26.5 66.999c0 30.667 10.333 56.667 31 78s45.667 32 75 32z" />
    <glyph glyph-name="Eogonek" unicode="&#x118;" horiz-adv-x="999" 
d="M299 1442h629.001l6 -137c-53.333 8.66699 -111.833 15.167 -175.5 19.5s-137.5 6.5 -221.5 6.5h-86l-74 -506h487l-59 -133c-60 8 -121.167 14.167 -183.5 18.5s-125.5 6.5 -189.5 6.5h-72l-81 -608h149c79.333 0 150.5 2.5 213.5 7.5s122.167 13.167 177.5 24.5
l-61 -141h-70c-32 -32.667 -56 -65.167 -72 -97.5s-24 -64.166 -24 -95.499c0 -36.667 12 -64.834 36 -84.501s58.333 -29.5 103 -29.5c7.33301 0 20.666 0.666992 39.999 2c10 0.666992 18 1.33398 24 2.00098l-17 -74c-18 -8.66699 -37.5 -15.167 -58.5 -19.5
s-42.5 -6.5 -64.5 -6.5c-57.333 0 -101 12.667 -131 38s-45 62.333 -45 111c0 42.667 14 85.834 42 129.501s68.667 85.167 122 124.5h-547c50 237.333 92 476.166 126 716.499s59.667 482.166 77 725.499z" />
    <glyph glyph-name="eogonek" unicode="&#x119;" horiz-adv-x="948" 
d="M843 506h-648.003c-2 -15.333 -3.33301 -31.333 -4 -48s-1 -38.334 -1 -65.001c0 -107.333 21.167 -187.666 63.5 -240.999s105.833 -80 190.5 -80c48.667 0 95 5.83301 139 17.5s87.333 29.5 130 53.5l-13 -110c-21.333 -11.333 -43.166 -21.166 -65.499 -29.499
s-45.5 -14.833 -69.5 -19.5c-27.333 -32.667 -47.833 -63.667 -61.5 -93s-20.5 -57.333 -20.5 -84c0 -36.667 12 -64.834 36 -84.501s58.667 -29.5 104 -29.5c6.66699 0 20 0.666992 40 2c9.33301 0.666992 17 1.33398 23 2.00098l-16 -73
c-18.667 -9.33301 -38.167 -16.166 -58.5 -20.499s-41.166 -6.5 -62.499 -6.5c-58 0 -102.167 12.667 -132.5 38s-45.5 62.333 -45.5 111c0 37.333 11.167 75.166 33.5 113.499s55.166 76.166 98.499 113.499c-14 -2 -28.5 -3.5 -43.5 -4.5s-30.167 -1.5 -45.5 -1.5
c-112.667 0 -201 38.833 -265 116.5s-96 185.167 -96 322.5c0 192.667 43.833 349.334 131.5 470.001s200.834 181 339.501 181c105.333 0 187.333 -33.5 246 -100.5s88 -160.5 88 -280.5c0 -28.667 -1.16699 -56.834 -3.5 -84.501s-6.16602 -56.167 -11.499 -85.5z
M726.997 604c2.66699 16.667 4.66699 33.167 6 49.5s2 32.5 2 48.5c0 80.667 -18.333 142.167 -55 184.5s-90 63.5 -160 63.5c-80.667 0 -147.5 -29.167 -200.5 -87.5s-90.5 -144.5 -112.5 -258.5h520z" />
    <glyph glyph-name="Ecaron" unicode="&#x11a;" horiz-adv-x="999" 
d="M299 1442l629 0.00195312l6 -137c-53.333 8.66699 -111.833 15.167 -175.5 19.5s-137.5 6.5 -221.5 6.5h-86l-74 -506h487l-59 -133c-60 8 -121.167 14.167 -183.5 18.5s-125.5 6.5 -189.5 6.5h-72l-81 -608h149c79.333 0 150.5 2.5 213.5 7.5s122.167 13.167 177.5 24.5
l-61 -141h-662c50 237.333 92 476.166 126 716.499s59.667 482.166 77 725.499zM420 1854c40 -33.333 78.167 -62 114.5 -86s71.833 -44.667 106.5 -62c40 19.333 81 41.166 123 65.499s85.667 51.833 131 82.5l47 -45c-52 -35.333 -102.333 -71.666 -151 -108.999
s-96 -76.333 -142 -117h-63c-38 44 -76 84.667 -114 122s-76.667 71.333 -116 102z" />
    <glyph glyph-name="ecaron" unicode="&#x11b;" horiz-adv-x="948" 
d="M842 506l-647 -0.00292969c-2 -15.333 -3.33301 -31.333 -4 -48s-1 -38.334 -1 -65.001c0 -107.333 21.167 -187.666 63.5 -240.999s105.833 -80 190.5 -80c48.667 0 95 5.83301 139 17.5s87.333 29.5 130 53.5l-13 -110c-43.333 -22 -87.833 -38.5 -133.5 -49.5
s-91.834 -16.5 -138.501 -16.5c-120 0 -212.5 38 -277.5 114s-97.5 184.333 -97.5 325c0 192.667 43.833 349.334 131.5 470.001s200.834 181 339.501 181c105.333 0 187.333 -33.5 246 -100.5s88 -160.5 88 -280.5c0 -25.333 -1.33301 -52.166 -4 -80.499
s-6.66699 -58.166 -12 -89.499zM727 603.997c2.66699 16.667 4.66699 33.167 6 49.5s2 32.5 2 48.5c0 80.667 -18.333 142.167 -55 184.5s-90 63.5 -160 63.5c-80.667 0 -147.5 -29.167 -200.5 -87.5s-90.5 -144.5 -112.5 -258.5h520zM320 1440
c40 -33.333 78.167 -62 114.5 -86s71.833 -44.667 106.5 -62c40 19.333 81 41.166 123 65.499s85.667 51.833 131 82.5l47 -45c-52 -35.333 -102.333 -71.666 -151 -108.999s-96 -76.333 -142 -117h-63c-38 44 -76 84.667 -114 122s-76.667 71.333 -116 102z" />
    <glyph glyph-name="Gcircumflex" unicode="&#x11c;" horiz-adv-x="1251" 
d="M1077 1442l6.00195 -142.001c-37.333 20 -77.333 35 -120 45s-88 15 -136 15c-183.333 0 -328.5 -74.833 -435.5 -224.5s-160.5 -353.5 -160.5 -611.5c0 -137.333 35.5 -245.333 106.5 -324s168.833 -118 293.5 -118c44.667 0 89.667 5.33301 135 16
s87.666 25.667 126.999 45c23.333 108 41 206.167 53 294.5s19 169.833 21 244.5h168c-26 -96 -46.5 -192.667 -61.5 -290s-24.833 -196.666 -29.5 -297.999c-68 -42 -138.333 -73.667 -211 -95s-147.667 -32 -225 -32c-166 0 -294.167 50.667 -384.5 152
s-135.5 245.333 -135.5 432c0 132 17.5 254.5 52.5 367.5s85.833 211.5 152.5 295.5c67.333 86 146.833 150.667 238.5 194s195.167 65 310.5 65c41.333 0 81.666 -2.66699 120.999 -8s77.333 -13 114 -23zM822.002 1854h64.999c36 -43.333 72.833 -83.333 110.5 -120
s76.5 -71 116.5 -103l-63 -48c-40 33.333 -78.167 62.166 -114.5 86.499s-71.833 44.833 -106.5 61.5c-40 -19.333 -81 -41.166 -123 -65.499s-85.667 -51.833 -131 -82.5l-47 48c55.333 36 107.333 72.5 156 109.5s94.334 74.833 137.001 113.5z" />
    <glyph glyph-name="gcircumflex" unicode="&#x11d;" horiz-adv-x="1061" 
d="M795 950l10 84l45 -3c10 -0.666992 19 -1 27 -1s17 0.333008 27 1s24 1.66699 42 3c-47.333 -239.333 -86.333 -487.333 -117 -744s-46.334 -386.667 -47.001 -390c-19.333 -116.667 -64.833 -207 -136.5 -271s-163.167 -96 -274.5 -96c-54 0 -106 6.33301 -156 19
s-97.667 31.667 -143 57l16 133c42 -34 86.5 -59.167 133.5 -75.5s97.5 -24.5 151.5 -24.5c102 0 176.833 35.5 224.5 106.5s79.167 198.5 94.5 382.5c-41.333 -50 -87.666 -87.333 -138.999 -112s-107.333 -37 -168 -37c-102 0 -183.5 37.333 -244.5 112
s-91.5 175.667 -91.5 303c0 189.333 47.5 347 142.5 473s212.167 189 351.5 189c42.667 0 85.5 -9.33301 128.5 -28s84.167 -45.667 123.5 -81zM784 858c-35.333 32 -72.1689 55.666 -110.502 70.999s-78.5 23 -120.5 23c-105.333 0 -192.833 -51.333 -262.5 -154
s-104.5 -232.667 -104.5 -390c0 -101.333 21.5 -180.333 64.5 -237s102.167 -85 177.5 -85c56.667 0 108.334 16.833 155.001 50.5s80.334 78.167 101.001 133.5c29.333 78.667 62 267.334 98 566.001zM599.997 1440h64.999c36 -43.333 72.833 -83.333 110.5 -120
s76.5 -71 116.5 -103l-63 -48c-40 33.333 -78.167 62.166 -114.5 86.499s-71.833 44.833 -106.5 61.5c-40 -19.333 -81 -41.166 -123 -65.499s-85.667 -51.833 -131 -82.5l-47 48c55.333 36 107.333 72.5 156 109.5s94.334 74.833 137.001 113.5z" />
    <glyph glyph-name="Gbreve" unicode="&#x11e;" horiz-adv-x="1251" 
d="M1077 1442l6.00195 -142.001c-37.333 20 -77.333 35 -120 45s-88 15 -136 15c-183.333 0 -328.5 -74.833 -435.5 -224.5s-160.5 -353.5 -160.5 -611.5c0 -137.333 35.5 -245.333 106.5 -324s168.833 -118 293.5 -118c44.667 0 89.667 5.33301 135 16
s87.666 25.667 126.999 45c23.333 108 41 206.167 53 294.5s19 169.833 21 244.5h168c-26 -96 -46.5 -192.667 -61.5 -290s-24.833 -196.666 -29.5 -297.999c-68 -42 -138.333 -73.667 -211 -95s-147.667 -32 -225 -32c-166 0 -294.167 50.667 -384.5 152
s-135.5 245.333 -135.5 432c0 132 17.5 254.5 52.5 367.5s85.833 211.5 152.5 295.5c67.333 86 146.833 150.667 238.5 194s195.167 65 310.5 65c41.333 0 81.666 -2.66699 120.999 -8s77.333 -13 114 -23zM600.002 1854c23.333 -38.667 55.501 -68.5 96.501 -89.5
s87.5 -31.5 139.5 -31.5c52.667 0 100.667 9.83301 144 29.5s84.666 50.167 123.999 91.5l31 -25c-40 -68.667 -85.833 -120 -137.5 -154s-110.167 -51 -175.5 -51c-67.333 0 -123.5 18.167 -168.5 54.5s-74.167 86.5 -87.5 150.5z" />
    <glyph glyph-name="gbreve" unicode="&#x11f;" horiz-adv-x="1061" 
d="M795 950l10 84l45 -3c10 -0.666992 19 -1 27 -1s17 0.333008 27 1s24 1.66699 42 3c-47.333 -239.333 -86.333 -487.333 -117 -744s-46.334 -386.667 -47.001 -390c-19.333 -116.667 -64.833 -207 -136.5 -271s-163.167 -96 -274.5 -96c-54 0 -106 6.33301 -156 19
s-97.667 31.667 -143 57l16 133c42 -34 86.5 -59.167 133.5 -75.5s97.5 -24.5 151.5 -24.5c102 0 176.833 35.5 224.5 106.5s79.167 198.5 94.5 382.5c-41.333 -50 -87.666 -87.333 -138.999 -112s-107.333 -37 -168 -37c-102 0 -183.5 37.333 -244.5 112
s-91.5 175.667 -91.5 303c0 189.333 47.5 347 142.5 473s212.167 189 351.5 189c42.667 0 85.5 -9.33301 128.5 -28s84.167 -45.667 123.5 -81zM784 858c-35.333 32 -72.1689 55.666 -110.502 70.999s-78.5 23 -120.5 23c-105.333 0 -192.833 -51.333 -262.5 -154
s-104.5 -232.667 -104.5 -390c0 -101.333 21.5 -180.333 64.5 -237s102.167 -85 177.5 -85c56.667 0 108.334 16.833 155.001 50.5s80.334 78.167 101.001 133.5c29.333 78.667 62 267.334 98 566.001zM377.997 1440c23.333 -38.667 55.501 -68.5 96.501 -89.5
s87.5 -31.5 139.5 -31.5c52.667 0 100.667 9.83301 144 29.5s84.666 50.167 123.999 91.5l31 -25c-40 -68.667 -85.833 -120 -137.5 -154s-110.167 -51 -175.5 -51c-67.333 0 -123.5 18.167 -168.5 54.5s-74.167 86.5 -87.5 150.5z" />
    <glyph glyph-name="Gdot" unicode="&#x120;" horiz-adv-x="1251" 
d="M1077 1442l6.00195 -142.001c-37.333 20 -77.333 35 -120 45s-88 15 -136 15c-183.333 0 -328.5 -74.833 -435.5 -224.5s-160.5 -353.5 -160.5 -611.5c0 -137.333 35.5 -245.333 106.5 -324s168.833 -118 293.5 -118c44.667 0 89.667 5.33301 135 16
s87.666 25.667 126.999 45c23.333 108 41 206.167 53 294.5s19 169.833 21 244.5h168c-26 -96 -46.5 -192.667 -61.5 -290s-24.833 -196.666 -29.5 -297.999c-68 -42 -138.333 -73.667 -211 -95s-147.667 -32 -225 -32c-166 0 -294.167 50.667 -384.5 152
s-135.5 245.333 -135.5 432c0 132 17.5 254.5 52.5 367.5s85.833 211.5 152.5 295.5c67.333 86 146.833 150.667 238.5 194s195.167 65 310.5 65c41.333 0 81.666 -2.66699 120.999 -8s77.333 -13 114 -23zM842.002 1831c28 0 50.667 -8.49805 68 -25.498
s26 -39.167 26 -66.5c0 -30.667 -10.333 -56.834 -31 -78.501s-45.667 -32.5 -75 -32.5c-27.333 0 -49.833 8.66699 -67.5 26s-26.5 39.666 -26.5 66.999c0 30.667 10.333 56.667 31 78s45.667 32 75 32z" />
    <glyph glyph-name="gdot" unicode="&#x121;" horiz-adv-x="1061" 
d="M795 950l10 84l45 -3c10 -0.666992 19 -1 27 -1s17 0.333008 27 1s24 1.66699 42 3c-47.333 -239.333 -86.333 -487.333 -117 -744s-46.334 -386.667 -47.001 -390c-19.333 -116.667 -64.833 -207 -136.5 -271s-163.167 -96 -274.5 -96c-54 0 -106 6.33301 -156 19
s-97.667 31.667 -143 57l16 133c42 -34 86.5 -59.167 133.5 -75.5s97.5 -24.5 151.5 -24.5c102 0 176.833 35.5 224.5 106.5s79.167 198.5 94.5 382.5c-41.333 -50 -87.666 -87.333 -138.999 -112s-107.333 -37 -168 -37c-102 0 -183.5 37.333 -244.5 112
s-91.5 175.667 -91.5 303c0 189.333 47.5 347 142.5 473s212.167 189 351.5 189c42.667 0 85.5 -9.33301 128.5 -28s84.167 -45.667 123.5 -81zM784 858c-35.333 32 -72.1689 55.666 -110.502 70.999s-78.5 23 -120.5 23c-105.333 0 -192.833 -51.333 -262.5 -154
s-104.5 -232.667 -104.5 -390c0 -101.333 21.5 -180.333 64.5 -237s102.167 -85 177.5 -85c56.667 0 108.334 16.833 155.001 50.5s80.334 78.167 101.001 133.5c29.333 78.667 62 267.334 98 566.001zM619.997 1417c28 0 50.667 -8.49805 68 -25.498s26 -39.167 26 -66.5
c0 -30.667 -10.333 -56.834 -31 -78.501s-45.667 -32.5 -75 -32.5c-27.333 0 -49.833 8.66699 -67.5 26s-26.5 39.666 -26.5 66.999c0 30.667 10.333 56.667 31 78s45.667 32 75 32z" />
    <glyph glyph-name="Gcedilla" unicode="&#x122;" horiz-adv-x="1251" 
d="M1077 1442l6.00195 -142.001c-37.333 20 -77.333 35 -120 45s-88 15 -136 15c-183.333 0 -328.5 -74.833 -435.5 -224.5s-160.5 -353.5 -160.5 -611.5c0 -137.333 35.5 -245.333 106.5 -324s168.833 -118 293.5 -118c44.667 0 89.667 5.33301 135 16
s87.666 25.667 126.999 45c23.333 108 41 206.167 53 294.5s19 169.833 21 244.5h168c-26 -96 -46.5 -192.667 -61.5 -290s-24.833 -196.666 -29.5 -297.999c-68 -42 -138.333 -73.667 -211 -95s-147.667 -32 -225 -32c-166 0 -294.167 50.667 -384.5 152
s-135.5 245.333 -135.5 432c0 132 17.5 254.5 52.5 367.5s85.833 211.5 152.5 295.5c67.333 86 146.833 150.667 238.5 194s195.167 65 310.5 65c41.333 0 81.666 -2.66699 120.999 -8s77.333 -13 114 -23zM618.002 -156.001l132.998 -40.999
c-49.333 -48 -101.5 -91.333 -156.5 -130s-112.5 -72.334 -172.5 -101.001l-84 33c52.667 30.667 102.334 66 149.001 106s90.334 84.333 131.001 133z" />
    <glyph glyph-name="gcedilla" unicode="&#x123;" horiz-adv-x="1061" 
d="M795 950l10 84l45 -3c10 -0.666992 19 -1 27 -1s17 0.333008 27 1s24 1.66699 42 3c-47.333 -239.333 -86.333 -487.333 -117 -744s-46.334 -386.667 -47.001 -390c-19.333 -116.667 -64.833 -207 -136.5 -271s-163.167 -96 -274.5 -96c-54 0 -106 6.33301 -156 19
s-97.667 31.667 -143 57l16 133c42 -34 86.5 -59.167 133.5 -75.5s97.5 -24.5 151.5 -24.5c102 0 176.833 35.5 224.5 106.5s79.167 198.5 94.5 382.5c-41.333 -50 -87.666 -87.333 -138.999 -112s-107.333 -37 -168 -37c-102 0 -183.5 37.333 -244.5 112
s-91.5 175.667 -91.5 303c0 189.333 47.5 347 142.5 473s212.167 189 351.5 189c42.667 0 85.5 -9.33301 128.5 -28s84.167 -45.667 123.5 -81zM784 858c-35.333 32 -72.1689 55.666 -110.502 70.999s-78.5 23 -120.5 23c-105.333 0 -192.833 -51.333 -262.5 -154
s-104.5 -232.667 -104.5 -390c0 -101.333 21.5 -180.333 64.5 -237s102.167 -85 177.5 -85c56.667 0 108.334 16.833 155.001 50.5s80.334 78.167 101.001 133.5c29.333 78.667 62 267.334 98 566.001zM699.997 1452l176.001 0.000976562
c-60 -57.333 -122.167 -108.833 -186.5 -154.5s-129.833 -85.5 -196.5 -119.5l-61 18c46.667 35.333 92.167 74.166 136.5 116.499s88.166 88.833 131.499 139.5z" />
    <glyph glyph-name="Hcircumflex" unicode="&#x124;" horiz-adv-x="1403" 
d="M299 1442l184.001 0.000976562c-20.667 -103.333 -40 -206.166 -58 -308.499s-34.667 -204.5 -50 -306.5h684c13.333 100 25.333 201.167 36 303.5s19.667 206.166 27 311.499h185c-50 -239.333 -91.833 -479.333 -125.5 -720s-58.834 -481.334 -75.501 -722.001h-184
c24 130 46 254.5 66 373.5s38 234.167 54 345.5h-684c-14.667 -121.333 -28.5 -242.166 -41.5 -362.499s-24.833 -239.166 -35.5 -356.499h-185c50 237.333 92 476.166 126 716.499s59.667 482.166 77 725.499zM832.001 1854h64.999c36 -43.333 72.833 -83.333 110.5 -120
s76.5 -71 116.5 -103l-63 -48c-40 33.333 -78.167 62.166 -114.5 86.499s-71.833 44.833 -106.5 61.5c-40 -19.333 -81 -41.166 -123 -65.499s-85.667 -51.833 -131 -82.5l-47 48c55.333 36 107.333 72.5 156 109.5s94.334 74.833 137.001 113.5z" />
    <glyph glyph-name="hcircumflex" unicode="&#x125;" 
d="M434 1554l-49.999 -293l-54 -343c79.333 45.333 149.833 79.833 211.5 103.5s112.5 35.5 152.5 35.5c68 0 120.167 -20.167 156.5 -60.5s54.5 -98.166 54.5 -173.499c0 -32 -13.167 -138.833 -39.5 -320.5s-45.166 -349.167 -56.499 -502.5h-166
c41.333 201.333 72.833 368.833 94.5 502.5s32.5 226.834 32.5 279.501s-10.833 92.167 -32.5 118.5s-54.5 39.5 -98.5 39.5c-38 0 -82.833 -8.66699 -134.5 -26s-114.167 -45 -187.5 -83c-18.667 -107.333 -36.334 -228.333 -53.001 -363s-33.667 -290.667 -51 -468h-166
c59.333 299.333 107.666 577.666 144.999 834.999s62 482.666 74 675.999c29.333 5.33301 57.833 11.5 85.5 18.5s55.167 15.167 82.5 24.5zM379.001 1938h64.999c36 -43.333 72.833 -83.333 110.5 -120s76.5 -71 116.5 -103l-63 -48
c-40 33.333 -78.167 62.166 -114.5 86.499s-71.833 44.833 -106.5 61.5c-40 -19.333 -81 -41.166 -123 -65.499s-85.667 -51.833 -131 -82.5l-47 48c55.333 36 107.333 72.5 156 109.5s94.334 74.833 137.001 113.5z" />
    <glyph glyph-name="Hbar" unicode="&#x126;" horiz-adv-x="1413" 
d="M420 1096l-41 -269h686l31 269h-676zM303 1442l184.002 -0.00195312l-49 -246h670l20 246h185l-49 -246h186l-16 -100h-191c-42.667 -269.333 -73.334 -484 -92.001 -644s-32.334 -310.667 -41.001 -452h-184c29.333 158.667 53.5 294 72.5 406s35.833 216.333 50.5 313
h-687c-14.667 -121.333 -28.5 -242.166 -41.5 -362.499s-24.833 -239.166 -35.5 -356.499h-185c40 184.667 74.333 368.5 103 551.5s51.667 364.5 69 544.5h-190l18 100h183z" />
    <glyph glyph-name="hbar" unicode="&#x127;" 
d="M434 1554c-0.666992 -3.33301 -1.99902 -11.6689 -3.99902 -25.002l-37 -220h312l-13 -90h-315l-47 -301c79.333 45.333 149.833 79.833 211.5 103.5s112.5 35.5 152.5 35.5c68 0 120.167 -20.167 156.5 -60.5s54.5 -98.166 54.5 -173.499
c0 -32 -13.167 -138.833 -39.5 -320.5s-45.166 -349.167 -56.499 -502.5h-166c41.333 201.333 72.833 368.833 94.5 502.5s32.5 226.834 32.5 279.501s-10.833 92.167 -32.5 118.5s-54.5 39.5 -98.5 39.5c-38 0 -82.833 -8.66699 -134.5 -26s-114.167 -45 -187.5 -83
c-18.667 -107.333 -36.334 -228.333 -53.001 -363s-33.667 -290.667 -51 -468h-166c32.667 154.667 65.167 334.5 97.5 539.5s64.166 431.5 95.499 679.5h-170l12 90h168c3.33301 28 6.5 59.333 9.5 94s5.16699 70.667 6.5 108c29.333 5.33301 57.833 11.5 85.5 18.5
s55.167 15.167 82.5 24.5z" />
    <glyph glyph-name="Itilde" unicode="&#x128;" horiz-adv-x="602" 
d="M311 1442l187.001 0.00292969c-50.667 -237.333 -92.834 -476.333 -126.501 -717s-59.167 -482.334 -76.5 -725.001h-186c50 237.333 91.833 476.166 125.5 716.499s59.167 482.166 76.5 725.499zM714.001 1796l36.998 -26c-22.667 -45.333 -49.5 -78.833 -80.5 -100.5
s-66.833 -32.5 -107.5 -32.5c-26.667 0 -68.167 9.5 -124.5 28.5s-99.5 28.5 -129.5 28.5c-25.333 0 -49.5 -5 -72.5 -15s-45.5 -25.333 -67.5 -46l-34 28c20 43.333 46 76.333 78 99s68 34 108 34c24 0 63.833 -9.5 119.5 -28.5s99.834 -28.5 132.501 -28.5
c26 0 50.833 5 74.5 15s45.834 24.667 66.501 44z" />
    <glyph glyph-name="itilde" unicode="&#x129;" horiz-adv-x="455" 
d="M346 1036c-30.667 -138.667 -58 -295.001 -82 -469.001s-44.333 -363 -61 -567h-162c42 224.667 74.667 426.834 98 606.501s35 313.5 35 401.5v12c36 1.33301 67.833 3.33301 95.5 6s53.167 6 76.5 10zM579 1382l36.998 -26c-22.667 -45.333 -49.5 -78.833 -80.5 -100.5
s-66.833 -32.5 -107.5 -32.5c-26.667 0 -68.167 9.5 -124.5 28.5s-99.5 28.5 -129.5 28.5c-25.333 0 -49.5 -5 -72.5 -15s-45.5 -25.333 -67.5 -46l-34 28c20 43.333 46 76.333 78 99s68 34 108 34c24 0 63.833 -9.5 119.5 -28.5s99.834 -28.5 132.501 -28.5
c26 0 50.833 5 74.5 15s45.834 24.667 66.501 44z" />
    <glyph glyph-name="Imacron" unicode="&#x12a;" horiz-adv-x="602" 
d="M311 1442l187.001 0.00292969c-50.667 -237.333 -92.834 -476.333 -126.501 -717s-59.167 -482.334 -76.5 -725.001h-186c50 237.333 91.833 476.166 125.5 716.499s59.167 482.166 76.5 725.499zM180.001 1782h5.99805c113.333 -2.66699 197.333 -4 252 -4
c32.667 0 68.834 0.333008 108.501 1l179.5 3l-16 -106c-35.333 1.33301 -73.166 2.33301 -113.499 3s-97.5 1 -171.5 1c-68 0 -120.167 -0.333008 -156.5 -1s-70.833 -1.66699 -103.5 -3z" />
    <glyph glyph-name="imacron" unicode="&#x12b;" horiz-adv-x="455" 
d="M346 1036c-30.667 -138.667 -58 -295.001 -82 -469.001s-44.333 -363 -61 -567h-162c42 224.667 74.667 426.834 98 606.501s35 313.5 35 401.5v12c36 1.33301 67.833 3.33301 95.5 6s53.167 6 76.5 10zM45 1368h5.99805c113.333 -2.66699 197.333 -4 252 -4
c32.667 0 68.834 0.333008 108.501 1l179.5 3l-16 -106c-35.333 1.33301 -73.166 2.33301 -113.499 3s-97.5 1 -171.5 1c-68 0 -120.167 -0.333008 -156.5 -1s-70.833 -1.66699 -103.5 -3z" />
    <glyph glyph-name="Ibreve" unicode="&#x12c;" horiz-adv-x="602" 
d="M311 1442l187.001 0.00292969c-50.667 -237.333 -92.834 -476.333 -126.501 -717s-59.167 -482.334 -76.5 -725.001h-186c50 237.333 91.833 476.166 125.5 716.499s59.167 482.166 76.5 725.499zM210.001 1854c23.333 -38.667 55.501 -68.5 96.501 -89.5
s87.5 -31.5 139.5 -31.5c52.667 0 100.667 9.83301 144 29.5s84.666 50.167 123.999 91.5l31 -25c-40 -68.667 -85.833 -120 -137.5 -154s-110.167 -51 -175.5 -51c-67.333 0 -123.5 18.167 -168.5 54.5s-74.167 86.5 -87.5 150.5z" />
    <glyph glyph-name="ibreve" unicode="&#x12d;" horiz-adv-x="455" 
d="M346 1036c-30.667 -138.667 -58 -295.001 -82 -469.001s-44.333 -363 -61 -567h-162c42 224.667 74.667 426.834 98 606.501s35 313.5 35 401.5v12c36 1.33301 67.833 3.33301 95.5 6s53.167 6 76.5 10zM75 1440c23.333 -38.667 55.501 -68.5 96.501 -89.5
s87.5 -31.5 139.5 -31.5c52.667 0 100.667 9.83301 144 29.5s84.666 50.167 123.999 91.5l31 -25c-40 -68.667 -85.833 -120 -137.5 -154s-110.167 -51 -175.5 -51c-67.333 0 -123.5 18.167 -168.5 54.5s-74.167 86.5 -87.5 150.5z" />
    <glyph glyph-name="Iogonek" unicode="&#x12e;" horiz-adv-x="602" 
d="M311 1442l187.001 0.00292969c-50.667 -237.333 -92.834 -476.333 -126.501 -717s-59.167 -482.334 -76.5 -725.001h-186c50 237.333 91.833 476.166 125.5 716.499s59.167 482.166 76.5 725.499zM252.001 29.0029l29.999 -0.000976562
c-40 -39.333 -70.5 -77.833 -91.5 -115.5s-31.5 -73.167 -31.5 -106.5c0 -36.667 12 -64.834 36 -84.501s58.667 -29.5 104 -29.5c6.66699 0 20 0.666992 40 2c9.33301 0.666992 17 1.33398 23 2.00098l-18 -73c-18.667 -9.33301 -38.167 -16.166 -58.5 -20.499
s-41.166 -6.5 -62.499 -6.5c-57.333 0 -101 12.667 -131 38s-45 62.333 -45 111c0 48 17.5 96.167 52.5 144.5s85.833 94.5 152.5 138.5z" />
    <glyph glyph-name="iogonek" unicode="&#x12f;" horiz-adv-x="455" 
d="M346 1036c-30.667 -138.667 -58 -295.001 -82 -469.001s-44.333 -363 -61 -567h-162c42 224.667 74.667 426.834 98 606.501s35 313.5 35 401.5v12c36 1.33301 67.833 3.33301 95.5 6s53.167 6 76.5 10zM322 1479c28 0 50.333 -8.5 67 -25.5s25 -40.167 25 -69.5
c0 -33.333 -11.167 -62 -33.5 -86s-48.833 -36 -79.5 -36c-25.333 0 -46.333 9.5 -63 28.5s-25 43.5 -25 73.5c0 32.667 10.333 60 31 82s46.667 33 78 33zM164 28.999l29.999 -0.000976562c-40 -39.333 -70.5 -77.833 -91.5 -115.5s-31.5 -73.167 -31.5 -106.5
c0 -36.667 12 -64.834 36 -84.501s58.667 -29.5 104 -29.5c6.66699 0 20 0.666992 40 2c9.33301 0.666992 17 1.33398 23 2.00098l-18 -73c-18.667 -9.33301 -38.167 -16.166 -58.5 -20.499s-41.166 -6.5 -62.499 -6.5c-57.333 0 -101 12.667 -131 38s-45 62.333 -45 111
c0 48 17.5 96.167 52.5 144.5s85.833 94.5 152.5 138.5z" />
    <glyph glyph-name="Idotaccent" unicode="&#x130;" horiz-adv-x="602" 
d="M311 1442l187.001 0.00292969c-50.667 -237.333 -92.834 -476.333 -126.501 -717s-59.167 -482.334 -76.5 -725.001h-186c50 237.333 91.833 476.166 125.5 716.499s59.167 482.166 76.5 725.499zM452.001 1831c28 0 50.667 -8.49805 68 -25.498s26 -39.167 26 -66.5
c0 -30.667 -10.333 -56.834 -31 -78.501s-45.667 -32.5 -75 -32.5c-27.333 0 -49.833 8.66699 -67.5 26s-26.5 39.666 -26.5 66.999c0 30.667 10.333 56.667 31 78s45.667 32 75 32z" />
    <glyph glyph-name="dotlessi" unicode="&#x131;" horiz-adv-x="455" 
d="M346 1036c-30.667 -138.667 -58 -295.001 -82 -469.001s-44.333 -363 -61 -567h-162c42 224.667 74.667 426.834 98 606.501s35 313.5 35 401.5v12c36 1.33301 67.833 3.33301 95.5 6s53.167 6 76.5 10z" />
    <glyph glyph-name="IJ" unicode="&#x132;" horiz-adv-x="1118" 
d="M854 1442l183.997 -0.00195312c-62.667 -290.667 -117.667 -646 -165 -1066c-13.333 -112.667 -23 -192 -29 -238c-13.333 -100.667 -29.166 -176.667 -47.499 -228s-42.833 -93.666 -73.5 -126.999c-38 -42 -82.833 -74 -134.5 -96s-107.834 -33 -168.501 -33
c-15.333 0 -31.333 1 -48 3s-37.667 5.66699 -63 11l-12 142c28.667 -10 53.834 -17.333 75.501 -22s41.5 -7 59.5 -7c82.667 0 144.834 29.833 186.501 89.5s75.834 178.5 102.501 356.5c23.333 158.667 46.5 342.334 69.5 551.001s44.167 430 63.5 664zM310.997 1442
l187.001 0.00292969c-50.667 -237.333 -92.834 -476.333 -126.501 -717s-59.167 -482.334 -76.5 -725.001h-186c50 237.333 91.833 476.166 125.5 716.499s59.167 482.166 76.5 725.499z" />
    <glyph glyph-name="ij" unicode="&#x133;" horiz-adv-x="895" 
d="M799 1036c-45.333 -208.667 -84.8291 -441 -118.496 -697s-52.834 -398.333 -57.501 -427c-25.333 -140 -63 -238.167 -113 -294.5s-122.333 -84.5 -217 -84.5c-8 0 -17.167 0.333008 -27.5 1s-22.833 1.66699 -37.5 3l-11 113
c13.333 -2.66699 26.666 -4.66699 39.999 -6s26 -2 38 -2c57.333 0 101.333 19.667 132 59s55.667 111 75 215c22 120.667 43.833 279.167 65.5 475.5s40.167 405.833 55.5 628.5c35.333 1.33301 67.166 3.33301 95.499 6s55.166 6 80.499 10zM346.004 1036
c-30.667 -138.667 -58 -295.001 -82 -469.001s-44.333 -363 -61 -567h-162c42 224.667 74.667 426.834 98 606.501s35 313.5 35 401.5v12c36 1.33301 67.833 3.33301 95.5 6s53.167 6 76.5 10zM768.004 1479c28.667 0 51.168 -8.49902 67.501 -25.499
s24.5 -40.167 24.5 -69.5c0 -33.333 -11 -62 -33 -86s-48.333 -36 -79 -36c-26 0 -47.667 9.66699 -65 29s-26 43.666 -26 72.999c0 32.667 10.667 60 32 82s47.666 33 78.999 33zM322.005 1479c28 0 50.333 -8.5 67 -25.5s25 -40.167 25 -69.5
c0 -33.333 -11.167 -62 -33.5 -86s-48.833 -36 -79.5 -36c-25.333 0 -46.333 9.5 -63 28.5s-25 43.5 -25 73.5c0 32.667 10.333 60 31 82s46.667 33 78 33z" />
    <glyph glyph-name="Jcircumflex" unicode="&#x134;" horiz-adv-x="569" 
d="M305 1442l184 -0.000976562c-63.333 -293.333 -119.333 -651 -168 -1073c-12.667 -109.333 -22 -186.333 -28 -231c-14 -104 -29.833 -181 -47.5 -231s-41.5 -91.333 -71.5 -124c-38 -42 -82.833 -74 -134.5 -96s-107.834 -33 -168.501 -33
c-16 0 -32.833 1.16699 -50.5 3.5s-38.5 5.83301 -62.5 10.5l-12 142c28.667 -10 53.834 -17.333 75.501 -22s41.5 -7 59.5 -7c83.333 0 146 30.167 188 90.5s76.333 178.833 103 355.5c23.333 158.667 46.5 342.334 69.5 551.001s44.167 430 63.5 664zM414 1854h64.999
c36 -43.333 72.833 -83.333 110.5 -120s76.5 -71 116.5 -103l-63 -48c-40 33.333 -78.167 62.166 -114.5 86.499s-71.833 44.833 -106.5 61.5c-40 -19.333 -81 -41.166 -123 -65.499s-85.667 -51.833 -131 -82.5l-47 48c55.333 36 107.333 72.5 156 109.5
s94.334 74.833 137.001 113.5z" />
    <glyph glyph-name="jcircumflex" unicode="&#x135;" horiz-adv-x="455" 
d="M356 1036c-44.667 -208 -83.499 -439.834 -116.499 -695.501s-52.167 -398.5 -57.5 -428.5c-24.667 -139.333 -62.334 -237.333 -113.001 -294s-123.667 -85 -219 -85c-7.33301 0 -15.5 0.333008 -24.5 1s-21.5 1.66699 -37.5 3l-11 113
c13.333 -2.66699 26.5 -4.66699 39.5 -6s25.833 -2 38.5 -2c56.667 0 100 19.5 130 58.5s54.667 110.833 74 215.5c23.333 128 46 289.333 68 484s40.667 401.334 56 620.001c34.667 1.33301 66 3.33301 94 6s54.333 6 79 10zM297.001 1440h64.999
c36 -43.333 72.833 -83.333 110.5 -120s76.5 -71 116.5 -103l-63 -48c-40 33.333 -78.167 62.166 -114.5 86.499s-71.833 44.833 -106.5 61.5c-40 -19.333 -81 -41.166 -123 -65.499s-85.667 -51.833 -131 -82.5l-47 48c55.333 36 107.333 72.5 156 109.5
s94.334 74.833 137.001 113.5z" />
    <glyph glyph-name="Kcedilla" unicode="&#x136;" horiz-adv-x="1118" 
d="M299 1442l183.997 0.00292969c-28 -143.333 -51.833 -269.833 -71.5 -379.5s-34.5 -201.834 -44.5 -276.501c134 130.667 248.5 250.667 343.5 360s170.167 208 225.5 296h211c-76 -72 -168.5 -165.667 -277.5 -281l-347.5 -381
c54 -48.667 137.833 -163.834 251.5 -345.501s212.834 -326.5 297.501 -434.5h-215c-96.667 189.333 -186.167 346 -268.5 470s-158.166 216.667 -227.499 278c-9.33301 -71.333 -19.666 -159.166 -30.999 -263.499s-27.333 -265.833 -48 -484.5h-185
c50 237.333 92 476.166 126 716.499s59.667 482.166 77 725.499zM494.997 -159.997c11.333 -12 20 -24.833 26 -38.5s9 -28.167 9 -43.5c0 -42.667 -18 -85 -54 -127s-85 -77.333 -147 -106l-12 12c22 22 38 43 48 63s15 40 15 60c0 19.333 -2.5 38 -7.5 56
s-13.167 36.333 -24.5 55z" />
    <glyph glyph-name="kcedilla" unicode="&#x137;" horiz-adv-x="948" 
d="M436 1554c-34.667 -196 -65.667 -378.832 -93 -548.499s-49.666 -317.167 -66.999 -442.5c71.333 64.667 143.666 134.834 216.999 210.501s150 159.167 230 250.5h180l-229.5 -209.5l-249.5 -243.5c46 -51.333 112 -142.833 198 -274.5s159.333 -230.5 220 -296.5h-191
c-79.333 138 -148 247.167 -206 327.5s-116.333 150.166 -175 209.499c-9.33301 -70 -18.666 -148.667 -27.999 -236s-19 -187.666 -29 -300.999h-166c59.333 299.333 107.666 577.666 144.999 834.999s62 482.666 74 675.999c28.667 6.66699 57.167 13.667 85.5 21z
M397 -159.999c11.333 -12 20 -24.833 26 -38.5s9 -28.167 9 -43.5c0 -42.667 -18 -85 -54 -127s-85 -77.333 -147 -106l-12 12c22 22 38 43 48 63s15 40 15 60c0 19.333 -2.5 38 -7.5 56s-13.167 36.333 -24.5 55z" />
    <glyph glyph-name="kra" unicode="&#x138;" horiz-adv-x="930" 
d="M195 1024l158.999 -0.000976562l-50 -270l-34 -195c102 92.667 190.167 178.834 264.5 258.501s130.166 148.5 167.499 206.5h181l-89 -84c-172 -161.333 -302.333 -288.333 -391 -381c41.333 -38 108.5 -121.833 201.5 -251.5s176.167 -232.167 249.5 -307.5h-199
c-69.333 124 -137.166 231.333 -203.499 322s-128.166 160 -185.499 208c-14.667 -98.667 -27 -192 -37 -280s-17.667 -171.333 -23 -250h-161c39.333 176 71.5 349.167 96.5 519.5s42.833 338.5 53.5 504.5z" />
    <glyph glyph-name="Lacute" unicode="&#x139;" horiz-adv-x="958" 
d="M299 1442l182 0.00195312c-42.667 -226.667 -79.5 -441 -110.5 -643s-55.5 -386.333 -73.5 -553l-14 -137h176c68 0 139 2.66699 213 8s151.667 13.333 233 24l-63 -141h-746c50 237.333 92 476.166 126 716.499s59.667 482.166 77 725.499zM520 1866
l176.001 0.000976562c-60 -57.333 -122.167 -108.833 -186.5 -154.5s-129.833 -85.5 -196.5 -119.5l-61 18c46.667 35.333 92.167 74.166 136.5 116.499s88.166 88.833 131.499 139.5z" />
    <glyph glyph-name="lacute" unicode="&#x13a;" horiz-adv-x="455" 
d="M420 1554c-46 -214 -88.1689 -452.499 -126.502 -715.499s-71.833 -542.5 -100.5 -838.5h-162c62 348 111.333 657.833 148 929.5s55.667 465.5 57 581.5c30.667 5.33301 61.334 11.666 92.001 18.999s61.334 15.333 92.001 24zM464.998 1950l176.001 0.000976562
c-60 -57.333 -122.167 -108.833 -186.5 -154.5s-129.833 -85.5 -196.5 -119.5l-61 18c46.667 35.333 92.167 74.166 136.5 116.499s88.166 88.833 131.499 139.5z" />
    <glyph glyph-name="Lcedilla" unicode="&#x13b;" horiz-adv-x="958" 
d="M299 1442l182 0.00195312c-42.667 -226.667 -79.5 -441 -110.5 -643s-55.5 -386.333 -73.5 -553l-14 -137h176c68 0 139 2.66699 213 8s151.667 13.333 233 24l-63 -141h-746c50 237.333 92 476.166 126 716.499s59.667 482.166 77 725.499zM416 -159.998
c11.333 -12 20 -24.833 26 -38.5s9 -28.167 9 -43.5c0 -42.667 -18 -85 -54 -127s-85 -77.333 -147 -106l-12 12c22 22 38 43 48 63s15 40 15 60c0 19.333 -2.5 38 -7.5 56s-13.167 36.333 -24.5 55z" />
    <glyph glyph-name="lcedilla" unicode="&#x13c;" horiz-adv-x="455" 
d="M420 1554c-46 -214 -88.1689 -452.499 -126.502 -715.499s-71.833 -542.5 -100.5 -838.5h-162c62 348 111.333 657.833 148 929.5s55.667 465.5 57 581.5c30.667 5.33301 61.334 11.666 92.001 18.999s61.334 15.333 92.001 24zM148.998 -159.999
c11.333 -12 20 -24.833 26 -38.5s9 -28.167 9 -43.5c0 -42.667 -18 -85 -54 -127s-85 -77.333 -147 -106l-12 12c22 22 38 43 48 63s15 40 15 60c0 19.333 -2.5 38 -7.5 56s-13.167 36.333 -24.5 55z" />
    <glyph glyph-name="Lcaron" unicode="&#x13d;" horiz-adv-x="958" 
d="M299 1442l182 0.00195312c-42.667 -226.667 -79.5 -441 -110.5 -643s-55.5 -386.333 -73.5 -553l-14 -137h176c68 0 139 2.66699 213 8s151.667 13.333 233 24l-63 -141h-746c50 237.333 92 476.166 126 716.499s59.667 482.166 77 725.499zM893 1473
c14.667 -17.333 25.502 -34.334 32.502 -51.001s10.5 -34 10.5 -52c0 -46.667 -17.833 -91.167 -53.5 -133.5s-88.167 -81.166 -157.5 -116.499l-41 60c35.333 20 60.166 38.5 74.499 55.5s21.5 35.167 21.5 54.5c0 15.333 -3.83301 31.5 -11.5 48.5
s-18.834 35.167 -33.501 54.5z" />
    <glyph glyph-name="lcaron" unicode="&#x13e;" horiz-adv-x="682" 
d="M420 1554c-46 -214 -88.1689 -452.499 -126.502 -715.499s-71.833 -542.5 -100.5 -838.5h-162c62 348 111.333 657.833 148 929.5s55.667 465.5 57 581.5c30.667 5.33301 61.334 11.666 92.001 18.999s61.334 15.333 92.001 24zM726.998 1473
c14.667 -17.333 25.501 -34.334 32.501 -51.001s10.5 -34 10.5 -52c0 -46.667 -17.667 -91.167 -53 -133.5s-88 -81.166 -158 -116.499l-38 60c34 20 58.167 38.333 72.5 55s21.5 35 21.5 55c0 15.333 -3.83301 31.5 -11.5 48.5s-18.834 35.167 -33.501 54.5z" />
    <glyph glyph-name="Ldot" unicode="&#x13f;" horiz-adv-x="985" 
d="M799 883c29.333 0 54 -9.99902 74 -29.999s30 -45 30 -75c0 -29.333 -10.167 -54 -30.5 -74s-44.833 -30 -73.5 -30c-29.333 0 -54.166 10.167 -74.499 30.5s-30.5 44.833 -30.5 73.5c0 29.333 10.167 54.166 30.5 74.499s45.166 30.5 74.499 30.5zM205 1442
l194 -0.000976562c-7.33301 -118 -12.833 -259.5 -16.5 -424.5s-5.5 -378.5 -5.5 -640.5v-262h133c74 0 147.833 2.5 221.5 7.5s147.167 12.5 220.5 22.5l-43 -145h-704c8 110.667 14 225.834 18 345.501s6 244.167 6 373.5c0 131.333 -2 257.333 -6 378
s-10 235.667 -18 345z" />
    <glyph glyph-name="ldot" unicode="&#x140;" horiz-adv-x="834" 
d="M682 786c30 0 54.833 -9.83301 74.5 -29.5s29.5 -44.5 29.5 -74.5c0 -29.333 -10 -54 -30 -74s-44.667 -30 -74 -30s-54 10 -74 30s-30 44.667 -30 74s10 54 30 74s44.667 30 74 30zM358 1554c-6.66699 -58 -12.333 -170.668 -17 -338.001s-7 -359 -7 -575
c0 -96.667 2 -199 6 -307s10 -219.333 18 -334h-186c8 117.333 14.167 244.5 18.5 381.5s6.5 282.833 6.5 437.5c0 167.333 -2.33301 312.833 -7 436.5s-10.667 208.834 -18 255.501c30 4 60.5 9.66699 91.5 17s62.5 16 94.5 26z" />
    <glyph glyph-name="Lslash" unicode="&#x141;" horiz-adv-x="973" 
d="M299 1442l181.999 0.000976562c-26 -136.667 -48.5 -259.5 -67.5 -368.5s-34.5 -208.167 -46.5 -297.5l131 94l143 107l59 -96l-172 -113l-178 -115l-36.5 -271.5c-7.66699 -59 -13.167 -104.167 -16.5 -135.5l-14 -137h176c68 0 139 2.66699 213 8
s151.667 13.333 233 24l-63 -141h-746c16.667 76 33.334 159.667 50.001 251s35 201 55 329l-100 -69c-24 -17.333 -44.667 -33.333 -62 -48l-55 96l104 62l133 86c18 129.333 33.5 255.166 46.5 377.499s23.5 241.5 31.5 357.5z" />
    <glyph glyph-name="lslash" unicode="&#x142;" horiz-adv-x="483" 
d="M446 1554c-16.667 -71.333 -37.1699 -177.329 -61.5029 -317.996s-49.5 -301.334 -75.5 -482.001c26.667 19.333 53.834 40.166 81.501 62.499l92.5 76.5l-22 -145c-22 -13.333 -47 -29.833 -75 -49.5l-97 -71.5l-40 -339c-12 -106 -22 -202 -30 -288h-162
c25.333 132.667 45.5 244.667 60.5 336s26.167 170.333 33.5 237l-94 -75c-28 -23.333 -53.667 -46 -77 -68l20 148c34.667 22 65.834 42.833 93.501 62.5l78.5 57.5c29.333 201.333 51.666 370.166 66.999 506.499s23 234.5 23 294.5v12
c30.667 5.33301 61.334 11.666 92.001 18.999s61.334 15.333 92.001 24z" />
    <glyph glyph-name="Nacute" unicode="&#x143;" horiz-adv-x="1413" 
d="M301 1442l225.001 0.00195312l232.5 -658l245.5 -645l83 623c16.667 121.333 30.667 237.666 42 348.999s20.666 221.333 27.999 330l178 1c-45.333 -202.667 -86.5 -425.5 -123.5 -668.5s-68.833 -500.833 -95.5 -773.5h-211l-280.5 787l-204.5 559l-96 -680
c-14 -98 -26.333 -202.333 -37 -313s-19.667 -228.334 -27 -353.001h-184c46 204.667 88 428.5 126 671.5s71 499.833 99 770.5zM915.001 1866l176.001 0.000976562c-60 -57.333 -122.167 -108.833 -186.5 -154.5s-129.833 -85.5 -196.5 -119.5l-61 18
c46.667 35.333 92.167 74.166 136.5 116.499s88.166 88.833 131.499 139.5z" />
    <glyph glyph-name="nacute" unicode="&#x144;" 
d="M809 0l-166 -0.000976562c41.333 201.333 72.833 368.833 94.5 502.5s32.5 226.834 32.5 279.501s-10.833 92.167 -32.5 118.5s-54.5 39.5 -98.5 39.5c-38 0 -82.833 -8.66699 -134.5 -26s-114.167 -45 -187.5 -83c-18.667 -107.333 -36.334 -228.333 -53.001 -363
s-33.667 -290.667 -51 -468h-166c46 220 80.667 414 104 582s35 308.667 35 422l1 28c3.33301 -0.666992 6.83301 -1.16699 10.5 -1.5s9.5 -0.5 17.5 -0.5c10.667 0 22 0.833008 34 2.5s25.333 4.16699 40 7.5l26 -127c100 53.333 178.667 90.666 236 111.999s105 32 143 32
c68 0 120.167 -20.167 156.5 -60.5s54.5 -98.166 54.5 -173.499c0 -32 -13.167 -138.833 -39.5 -320.5s-45.166 -349.167 -56.499 -502.5zM678 1452l176.001 0.000976562c-60 -57.333 -122.167 -108.833 -186.5 -154.5s-129.833 -85.5 -196.5 -119.5l-61 18
c46.667 35.333 92.167 74.166 136.5 116.499s88.166 88.833 131.499 139.5z" />
    <glyph glyph-name="Ncedilla" unicode="&#x145;" horiz-adv-x="1413" 
d="M301 1442l225.001 0.00195312l232.5 -658l245.5 -645l83 623c16.667 121.333 30.667 237.666 42 348.999s20.666 221.333 27.999 330l178 1c-45.333 -202.667 -86.5 -425.5 -123.5 -668.5s-68.833 -500.833 -95.5 -773.5h-211l-280.5 787l-204.5 559l-96 -680
c-14 -98 -26.333 -202.333 -37 -313s-19.667 -228.334 -27 -353.001h-184c46 204.667 88 428.5 126 671.5s71 499.833 99 770.5zM657.001 -159.998c11.333 -12 20 -24.833 26 -38.5s9 -28.167 9 -43.5c0 -42.667 -18 -85 -54 -127s-85 -77.333 -147 -106l-12 12
c22 22 38 43 48 63s15 40 15 60c0 19.333 -2.5 38 -7.5 56s-13.167 36.333 -24.5 55z" />
    <glyph glyph-name="ncedilla" unicode="&#x146;" 
d="M809 0l-166 -0.000976562c41.333 201.333 72.833 368.833 94.5 502.5s32.5 226.834 32.5 279.501s-10.833 92.167 -32.5 118.5s-54.5 39.5 -98.5 39.5c-38 0 -82.833 -8.66699 -134.5 -26s-114.167 -45 -187.5 -83c-18.667 -107.333 -36.334 -228.333 -53.001 -363
s-33.667 -290.667 -51 -468h-166c46 220 80.667 414 104 582s35 308.667 35 422l1 28c3.33301 -0.666992 6.83301 -1.16699 10.5 -1.5s9.5 -0.5 17.5 -0.5c10.667 0 22 0.833008 34 2.5s25.333 4.16699 40 7.5l26 -127c100 53.333 178.667 90.666 236 111.999s105 32 143 32
c68 0 120.167 -20.167 156.5 -60.5s54.5 -98.166 54.5 -173.499c0 -32 -13.167 -138.833 -39.5 -320.5s-45.166 -349.167 -56.499 -502.5zM454 -160.001c11.333 -12 20 -24.833 26 -38.5s9 -28.167 9 -43.5c0 -42.667 -18 -85 -54 -127s-85 -77.333 -147 -106l-12 12
c22 22 38 43 48 63s15 40 15 60c0 19.333 -2.5 38 -7.5 56s-13.167 36.333 -24.5 55z" />
    <glyph glyph-name="Ncaron" unicode="&#x147;" horiz-adv-x="1413" 
d="M301 1442l225.001 0.00195312l232.5 -658l245.5 -645l83 623c16.667 121.333 30.667 237.666 42 348.999s20.666 221.333 27.999 330l178 1c-45.333 -202.667 -86.5 -425.5 -123.5 -668.5s-68.833 -500.833 -95.5 -773.5h-211l-280.5 787l-204.5 559l-96 -680
c-14 -98 -26.333 -202.333 -37 -313s-19.667 -228.334 -27 -353.001h-184c46 204.667 88 428.5 126 671.5s71 499.833 99 770.5zM610.001 1854c40 -33.333 78.167 -62 114.5 -86s71.833 -44.667 106.5 -62c40 19.333 81 41.166 123 65.499s85.667 51.833 131 82.5l47 -45
c-52 -35.333 -102.333 -71.666 -151 -108.999s-96 -76.333 -142 -117h-63c-38 44 -76 84.667 -114 122s-76.667 71.333 -116 102z" />
    <glyph glyph-name="ncaron" unicode="&#x148;" 
d="M809 0l-166 -0.000976562c41.333 201.333 72.833 368.833 94.5 502.5s32.5 226.834 32.5 279.501s-10.833 92.167 -32.5 118.5s-54.5 39.5 -98.5 39.5c-38 0 -82.833 -8.66699 -134.5 -26s-114.167 -45 -187.5 -83c-18.667 -107.333 -36.334 -228.333 -53.001 -363
s-33.667 -290.667 -51 -468h-166c46 220 80.667 414 104 582s35 308.667 35 422l1 28c3.33301 -0.666992 6.83301 -1.16699 10.5 -1.5s9.5 -0.5 17.5 -0.5c10.667 0 22 0.833008 34 2.5s25.333 4.16699 40 7.5l26 -127c100 53.333 178.667 90.666 236 111.999s105 32 143 32
c68 0 120.167 -20.167 156.5 -60.5s54.5 -98.166 54.5 -173.499c0 -32 -13.167 -138.833 -39.5 -320.5s-45.166 -349.167 -56.499 -502.5zM373 1440c40 -33.333 78.167 -62 114.5 -86s71.833 -44.667 106.5 -62c40 19.333 81 41.166 123 65.499s85.667 51.833 131 82.5
l47 -45c-52 -35.333 -102.333 -71.666 -151 -108.999s-96 -76.333 -142 -117h-63c-38 44 -76 84.667 -114 122s-76.667 71.333 -116 102z" />
    <glyph glyph-name="quoten" unicode="&#x149;" horiz-adv-x="1518" 
d="M1368 0l-174.001 -0.00195312c4.66699 100.667 8.16699 193.167 10.5 277.5s3.5 164.5 3.5 240.5c0 180 -13 293.667 -39 341s-72.333 71 -139 71c-48 0 -100.167 -8.16699 -156.5 -24.5s-116.833 -41.166 -181.5 -74.499v-98c0 -106 2.33301 -219.667 7 -341
s12 -252 22 -392h-176c4 80.667 7 159 9 235s3 150 3 222c0 133.333 -3 244.5 -9 333.5s-15 169.5 -27 241.5c3.33301 -0.666992 7 -1.16699 11 -1.5s10.333 -0.5 19 -0.5c12.667 0 25.667 0.833008 39 2.5s27 4.16699 41 7.5l49 -133c92 52.667 169.333 90.834 232 114.501
s116.334 35.5 161.001 35.5c98 0 167.5 -31.5 208.5 -94.5s61.5 -174.167 61.5 -333.5c0 -136 2.16699 -257.833 6.5 -365.5s10.5 -195.5 18.5 -263.5zM357.999 1473c23.333 -24.667 39.832 -47.833 49.499 -69.5s14.5 -45.167 14.5 -70.5c0 -44 -14.5 -85.833 -43.5 -125.5
s-71.833 -76.167 -128.5 -109.5l-51 61c26.667 19.333 44.834 36.5 54.501 51.5s14.5 33.5 14.5 55.5c0 15.333 -5.5 33.5 -16.5 54.5s-26.5 42.833 -46.5 65.5z" />
    <glyph glyph-name="Eng" unicode="&#x14a;" horiz-adv-x="1407" 
d="M301 1442h225.001l239.5 -680l240.5 -641l81 641c18 138 32.833 262.667 44.5 374s20.167 213.333 25.5 306h172c-53.333 -235.333 -115 -629.666 -185 -1183l-12 -90c-22 -184 -64.167 -315.833 -126.5 -395.5s-153.166 -119.5 -272.499 -119.5
c-22.667 0 -43.834 1.16699 -63.501 3.5s-38.834 5.83301 -57.501 10.5l-12 142c24.667 -9.33301 48.167 -16.166 70.5 -20.499s43.833 -6.5 64.5 -6.5c60.667 0 108.667 12.667 144 38s53 59.666 53 102.999c0 42.667 -63.167 227.167 -189.5 553.5
s-233.833 615.833 -322.5 868.5l-96 -680c-14 -98 -26.333 -202.333 -37 -313s-19.667 -228.334 -27 -353.001h-184c46 204.667 88 428.5 126 671.5s71 499.833 99 770.5z" />
    <glyph glyph-name="eng" unicode="&#x14b;" 
d="M392 -463l-10.9971 113.001c13.333 -2.66699 26.666 -4.66699 39.999 -6s26 -2 38 -2c49.333 0 89.5 15.667 120.5 47s54.167 79.666 69.5 144.999c8 33.333 16.333 78.833 25 136.5s21.667 155.167 39 292.5l9 73c30.667 246.667 46 395.334 46 446.001
c0 52.667 -11 92.167 -33 118.5s-54.667 39.5 -98 39.5c-36 0 -79.667 -8.66699 -131 -26s-114.333 -45 -189 -83c-18.667 -107.333 -36.334 -228.333 -53.001 -363s-33.667 -290.667 -51 -468h-166c46 220 80.667 414 104 582s35 308.667 35 422l1 28
c3.33301 -0.666992 6.83301 -1.16699 10.5 -1.5s9.5 -0.5 17.5 -0.5c10.667 0 22 0.833008 34 2.5s25.333 4.16699 40 7.5l26 -127c95.333 51.333 172.333 88.166 231 110.499s106.667 33.5 144 33.5c69.333 0 122.166 -20.667 158.499 -62s54.5 -101.333 54.5 -180
c0 -44 -12.667 -153.667 -38 -329l-25 -172l-19 -142c-31.333 -239.333 -57.333 -386 -78 -440c-25.333 -66 -62 -115.667 -110 -149s-106.667 -50 -176 -50c-8.66699 0 -18 0.333008 -28 1s-22.333 1.66699 -37 3z" />
    <glyph glyph-name="Omacron" unicode="&#x14c;" horiz-adv-x="1366" 
d="M1126 901c0 143.333 -32.668 255.333 -98.001 336s-156 121 -272 121c-154 0 -278.833 -75 -374.5 -225s-143.5 -347.333 -143.5 -592c0 -141.333 32.333 -252.833 97 -334.5s152.334 -122.5 263.001 -122.5c160 0 288 73.833 384 221.5s144 346.167 144 595.5z
M763.999 1473c160 0 285.002 -51.5 375.002 -154.5s135 -246.833 135 -431.5c0 -124 -15.667 -242.167 -47 -354.5s-76.333 -212.833 -135 -301.5c-56.667 -84 -127.834 -149 -213.501 -195s-178.5 -69 -278.5 -69c-160 0 -284.667 51.5 -374 154.5s-134 247.5 -134 433.5
c0 124.667 15.667 243 47 355s76.333 211.333 135 298c56.667 84 127.667 149.167 213 195.5s177.666 69.5 276.999 69.5zM555.001 1782h5.99805c113.333 -2.66699 197.333 -4 252 -4c32.667 0 68.834 0.333008 108.501 1l179.5 3l-16 -106
c-35.333 1.33301 -73.166 2.33301 -113.499 3s-97.5 1 -171.5 1c-68 0 -120.167 -0.333008 -156.5 -1s-70.833 -1.66699 -103.5 -3z" />
    <glyph glyph-name="omacron" unicode="&#x14d;" 
d="M549 950c-110 0 -196.501 -48.832 -259.501 -146.499s-94.5 -232.5 -94.5 -404.5c0 -103.333 22.833 -183 68.5 -239s110.834 -84 195.501 -84c110.667 0 197 48.667 259 146s93 233.666 93 408.999c0 101.333 -22.833 179.833 -68.5 235.5s-110.167 83.5 -193.5 83.5z
M562.999 1059c121.333 0 216.166 -38.333 284.499 -115s102.5 -183 102.5 -319c0 -202 -46 -362.5 -138 -481.5s-216 -178.5 -372 -178.5c-121.333 0 -216.166 37.667 -284.499 113s-102.5 180.333 -102.5 315c0 204 46 366 138 486s216 180 372 180zM349.999 1368h5.99805
c113.333 -2.66699 197.333 -4 252 -4c32.667 0 68.834 0.333008 108.501 1l179.5 3l-16 -106c-35.333 1.33301 -73.166 2.33301 -113.499 3s-97.5 1 -171.5 1c-68 0 -120.167 -0.333008 -156.5 -1s-70.833 -1.66699 -103.5 -3z" />
    <glyph glyph-name="Obreve" unicode="&#x14e;" horiz-adv-x="1366" 
d="M1126 901c0 143.333 -32.668 255.333 -98.001 336s-156 121 -272 121c-154 0 -278.833 -75 -374.5 -225s-143.5 -347.333 -143.5 -592c0 -141.333 32.333 -252.833 97 -334.5s152.334 -122.5 263.001 -122.5c160 0 288 73.833 384 221.5s144 346.167 144 595.5z
M763.999 1473c160 0 285.002 -51.5 375.002 -154.5s135 -246.833 135 -431.5c0 -124 -15.667 -242.167 -47 -354.5s-76.333 -212.833 -135 -301.5c-56.667 -84 -127.834 -149 -213.501 -195s-178.5 -69 -278.5 -69c-160 0 -284.667 51.5 -374 154.5s-134 247.5 -134 433.5
c0 124.667 15.667 243 47 355s76.333 211.333 135 298c56.667 84 127.667 149.167 213 195.5s177.666 69.5 276.999 69.5zM585.001 1854c23.333 -38.667 55.501 -68.5 96.501 -89.5s87.5 -31.5 139.5 -31.5c52.667 0 100.667 9.83301 144 29.5s84.666 50.167 123.999 91.5
l31 -25c-40 -68.667 -85.833 -120 -137.5 -154s-110.167 -51 -175.5 -51c-67.333 0 -123.5 18.167 -168.5 54.5s-74.167 86.5 -87.5 150.5z" />
    <glyph glyph-name="obreve" unicode="&#x14f;" 
d="M549 950c-110 0 -196.501 -48.832 -259.501 -146.499s-94.5 -232.5 -94.5 -404.5c0 -103.333 22.833 -183 68.5 -239s110.834 -84 195.501 -84c110.667 0 197 48.667 259 146s93 233.666 93 408.999c0 101.333 -22.833 179.833 -68.5 235.5s-110.167 83.5 -193.5 83.5z
M562.999 1059c121.333 0 216.166 -38.333 284.499 -115s102.5 -183 102.5 -319c0 -202 -46 -362.5 -138 -481.5s-216 -178.5 -372 -178.5c-121.333 0 -216.166 37.667 -284.499 113s-102.5 180.333 -102.5 315c0 204 46 366 138 486s216 180 372 180zM379.999 1440
c23.333 -38.667 55.501 -68.5 96.501 -89.5s87.5 -31.5 139.5 -31.5c52.667 0 100.667 9.83301 144 29.5s84.666 50.167 123.999 91.5l31 -25c-40 -68.667 -85.833 -120 -137.5 -154s-110.167 -51 -175.5 -51c-67.333 0 -123.5 18.167 -168.5 54.5s-74.167 86.5 -87.5 150.5
z" />
    <glyph glyph-name="Odblacute" unicode="&#x150;" horiz-adv-x="1366" 
d="M1126 901c0 143.333 -32.668 255.333 -98.001 336s-156 121 -272 121c-154 0 -278.833 -75 -374.5 -225s-143.5 -347.333 -143.5 -592c0 -141.333 32.333 -252.833 97 -334.5s152.334 -122.5 263.001 -122.5c160 0 288 73.833 384 221.5s144 346.167 144 595.5z
M763.999 1473c160 0 285.002 -51.5 375.002 -154.5s135 -246.833 135 -431.5c0 -124 -15.667 -242.167 -47 -354.5s-76.333 -212.833 -135 -301.5c-56.667 -84 -127.834 -149 -213.501 -195s-178.5 -69 -278.5 -69c-160 0 -284.667 51.5 -374 154.5s-134 247.5 -134 433.5
c0 124.667 15.667 243 47 355s76.333 211.333 135 298c56.667 84 127.667 149.167 213 195.5s177.666 69.5 276.999 69.5zM1050 1866h142.001c-42.667 -56.667 -86.334 -108 -131.001 -154s-90 -86 -136 -120l-61 10c35.333 35.333 68.5 75 99.5 119s59.833 92.333 86.5 145
zM747.002 1866l143.998 -0.000976562c-41.333 -55.333 -84.666 -106.166 -129.999 -152.499s-91.666 -86.833 -138.999 -121.5l-61 10c35.333 35.333 68.5 75 99.5 119s59.833 92.333 86.5 145z" />
    </font>
</defs>
</svg>
